# Blender 4.1.1
# www.blender.org
mtllib player.mtl
o 立方体
v -0.998148 3.933589 0.231142
v -1.533016 4.180402 0.231142
v -1.973824 1.819198 0.231142
v -2.508693 2.066010 0.231142
v -0.998148 3.933589 -0.231142
v -1.533016 4.180402 -0.231142
v -1.973824 1.819198 -0.231142
v -2.508693 2.066010 -0.231142
v -1.000000 4.000000 -0.000001
v -0.980785 4.000000 0.195090
v -0.923879 4.000000 0.382683
v -0.831470 4.000000 0.555570
v -0.707107 4.000000 0.707106
v -0.555570 4.000000 0.831469
v -0.382683 4.000000 0.923879
v -0.195090 4.000000 0.980784
v 0.000000 4.000000 0.999999
v 0.195090 4.000000 0.980784
v 0.382683 4.000000 0.923879
v 0.555570 4.000000 0.831469
v 0.707107 4.000000 0.707106
v 0.831470 4.000000 0.555569
v 0.923880 4.000000 0.382683
v 0.980785 4.000000 0.195090
v 1.000000 4.000000 -0.000001
v 0.980785 4.000000 -0.195091
v 0.923880 4.000000 -0.382684
v 0.831469 4.000000 -0.555571
v 0.707107 4.000000 -0.707107
v 0.555570 4.000000 -0.831470
v 0.382683 3.999999 -0.923880
v 0.195090 3.999999 -0.980786
v -0.000000 4.000000 -1.000000
v -0.195090 4.000000 -0.980786
v -0.382684 4.000000 -0.923880
v -0.555570 4.000000 -0.831470
v -0.707107 4.000000 -0.707107
v -0.831469 4.000000 -0.555571
v -0.923879 4.000000 -0.382684
v -0.980785 4.000000 -0.195091
v -0.000000 0.000000 0.000001
v 0.000000 4.500000 -0.000000
v 0.525725 5.052781 -0.723607
v 0.850649 5.052780 0.276388
v 0.000000 5.052784 0.894426
v -0.850649 5.052780 0.276388
v -0.525725 5.052781 -0.723607
v 0.850649 5.947220 -0.276388
v 0.525725 5.947220 0.723607
v -0.525725 5.947219 0.723607
v -0.850649 5.947220 -0.276388
v 0.000000 5.947216 -0.894426
v 0.000000 6.500000 -0.000000
v 0.499995 4.649346 0.162456
v 0.309011 4.649346 -0.425323
v 0.809012 4.974262 -0.262869
v 0.000000 4.974264 -0.850648
v -0.309011 4.649346 -0.425323
v 0.000000 4.649348 0.525730
v 0.499997 4.974264 0.688189
v -0.499995 4.649345 0.162456
v -0.499997 4.974264 0.688189
v -0.809011 4.974262 -0.262869
v 0.309013 5.500000 -0.951058
v -0.309012 5.500000 -0.951058
v 1.000000 5.500000 -0.000000
v 0.809017 5.500000 -0.587786
v 0.309013 5.500000 0.951058
v 0.809017 5.500000 0.587785
v -0.809017 5.500000 0.587786
v -0.309012 5.500000 0.951058
v -0.809017 5.500000 -0.587785
v -1.000000 5.500000 0.000000
v 0.499997 6.025736 -0.688189
v 0.809012 6.025738 0.262869
v 0.000000 6.025736 0.850648
v -0.809011 6.025738 0.262869
v -0.499997 6.025736 -0.688189
v 0.499995 6.350655 -0.162456
v 0.000000 6.350652 -0.525730
v 0.309012 6.350655 0.425323
v -0.309011 6.350654 0.425323
v -0.499995 6.350654 -0.162456
v 1.973823 1.819198 0.231142
v 2.508692 2.066010 0.231142
v 0.998148 3.933590 0.231142
v 1.533017 4.180402 0.231142
v 1.973823 1.819198 -0.231142
v 2.508692 2.066010 -0.231142
v 0.998148 3.933590 -0.231142
v 1.533017 4.180402 -0.231142
vn -0.0000 -0.0000 1.0000
vn -0.4190 -0.9080 -0.0000
vn -0.0000 -0.0000 -1.0000
vn 0.4190 0.9080 -0.0000
vn 0.9080 -0.4190 -0.0000
vn -0.9080 0.4190 -0.0000
vn -0.9657 -0.2414 0.0951
vn -0.9286 -0.2414 0.2817
vn -0.8558 -0.2414 0.4575
vn -0.7501 -0.2414 0.6156
vn -0.6156 -0.2414 0.7501
vn -0.4575 -0.2414 0.8558
vn -0.2817 -0.2414 0.9286
vn -0.0951 -0.2414 0.9657
vn 0.0951 -0.2414 0.9657
vn 0.2817 -0.2414 0.9286
vn 0.4575 -0.2414 0.8558
vn 0.6156 -0.2414 0.7501
vn 0.7501 -0.2414 0.6156
vn 0.8558 -0.2414 0.4575
vn 0.9286 -0.2414 0.2817
vn 0.9657 -0.2414 0.0951
vn 0.9657 -0.2414 -0.0951
vn 0.9286 -0.2414 -0.2817
vn 0.8558 -0.2414 -0.4575
vn 0.7501 -0.2414 -0.6156
vn 0.6156 -0.2414 -0.7501
vn 0.4575 -0.2414 -0.8558
vn 0.2817 -0.2414 -0.9286
vn 0.0951 -0.2414 -0.9657
vn -0.0951 -0.2414 -0.9657
vn -0.2817 -0.2414 -0.9286
vn -0.4575 -0.2414 -0.8558
vn -0.6156 -0.2414 -0.7501
vn -0.7501 -0.2414 -0.6156
vn -0.8558 -0.2414 -0.4575
vn -0.0000 1.0000 -0.0000
vn -0.9286 -0.2414 -0.2817
vn -0.9657 -0.2414 -0.0951
vn 0.3151 -0.9435 -0.1024
vn 0.2680 -0.6617 -0.7002
vn 0.1947 -0.9435 0.2680
vn -0.1947 -0.9435 0.2680
vn -0.3151 -0.9435 -0.1024
vn 0.2680 -0.3304 -0.9050
vn 0.9435 -0.3304 -0.0247
vn 0.3151 -0.3304 0.8897
vn -0.7488 -0.3304 0.5746
vn -0.7779 -0.3304 -0.5346
vn 0.5831 -0.1256 -0.8026
vn 0.9435 -0.1256 0.3066
vn -0.0000 -0.1256 0.9921
vn -0.9435 -0.1256 0.3066
vn -0.5831 -0.1256 -0.8026
vn 0.6284 0.6617 -0.4089
vn 0.5831 0.6617 0.4713
vn -0.2680 0.6617 0.7002
vn -0.7488 0.6617 -0.0385
vn -0.1947 0.6617 -0.7240
vn -0.1947 0.9435 -0.2680
vn -0.3568 0.7947 -0.4911
vn -0.6284 0.6617 -0.4089
vn -0.3151 0.9435 0.1024
vn -0.5773 0.7947 0.1876
vn -0.5831 0.6617 0.4713
vn -0.0000 0.9435 0.3313
vn -0.0000 0.7947 0.6071
vn 0.2680 0.6617 0.7002
vn 0.3151 0.9435 0.1024
vn 0.5773 0.7947 0.1876
vn 0.7488 0.6617 -0.0385
vn 0.1947 0.9435 -0.2680
vn 0.3568 0.7947 -0.4911
vn 0.1947 0.6617 -0.7240
vn -0.3151 0.3304 -0.8897
vn -0.5773 0.1876 -0.7947
vn -0.7488 0.3304 -0.5746
vn -0.9435 0.3304 0.0247
vn -0.9342 0.1876 0.3035
vn -0.7779 0.3304 0.5346
vn -0.2680 0.3304 0.9050
vn -0.0000 0.1876 0.9822
vn 0.2680 0.3304 0.9050
vn 0.7779 0.3304 0.5346
vn 0.9342 0.1876 0.3035
vn 0.9435 0.3304 0.0247
vn 0.7488 0.3304 -0.5746
vn 0.5773 0.1876 -0.7947
vn 0.3151 0.3304 -0.8897
vn -0.9435 0.1256 -0.3066
vn -0.9342 -0.1876 -0.3035
vn -0.9435 -0.3304 -0.0247
vn -0.5831 0.1256 0.8026
vn -0.5773 -0.1876 0.7947
vn -0.3151 -0.3304 0.8897
vn 0.5831 0.1256 0.8026
vn 0.5773 -0.1876 0.7947
vn 0.7488 -0.3304 0.5746
vn 0.9435 0.1256 -0.3066
vn 0.9342 -0.1876 -0.3035
vn 0.7779 -0.3304 -0.5346
vn -0.0000 0.1256 -0.9921
vn -0.0000 -0.1876 -0.9822
vn -0.2680 -0.3304 -0.9050
vn -0.5831 -0.6617 -0.4713
vn -0.5773 -0.7947 -0.1876
vn -0.7488 -0.6617 0.0385
vn -0.6284 -0.6617 0.4089
vn -0.3568 -0.7947 0.4911
vn -0.1947 -0.6617 0.7240
vn 0.1947 -0.6617 0.7240
vn 0.3568 -0.7947 0.4911
vn 0.6284 -0.6617 0.4089
vn -0.2680 -0.6617 -0.7002
vn -0.0000 -0.7947 -0.6071
vn -0.0000 -0.9435 -0.3313
vn 0.7488 -0.6617 0.0385
vn 0.5773 -0.7947 -0.1876
vn 0.5831 -0.6617 -0.4713
vn -0.4190 0.9080 -0.0000
vn 0.4190 -0.9080 -0.0000
vn -0.9080 -0.4190 -0.0000
vn 0.9080 0.4190 -0.0000
vt 0.633577 0.000218
vt 0.506992 0.126802
vt 0.506992 0.000218
vt 0.633577 0.126802
vt 0.506992 0.253387
vt 0.633577 0.379971
vt 0.506992 0.379971
vt 0.506992 0.506556
vt 0.380408 0.379971
vt 0.380408 0.253387
vt 0.760161 0.253387
vt 0.633577 0.253387
vt 0.450465 0.858770
vt 0.238925 0.745699
vt 0.468460 0.815328
vt 0.477633 0.769210
vt 0.477633 0.722189
vt 0.468460 0.676071
vt 0.450465 0.632629
vt 0.424342 0.593532
vt 0.391093 0.560283
vt 0.351996 0.534160
vt 0.308554 0.516165
vt 0.262436 0.506992
vt 0.215415 0.506992
vt 0.169297 0.516165
vt 0.125855 0.534160
vt 0.086758 0.560283
vt 0.053509 0.593532
vt 0.027386 0.632629
vt 0.009391 0.676071
vt 0.000218 0.722189
vt 0.000218 0.769210
vt 0.009391 0.815328
vt 0.027386 0.858770
vt 0.053509 0.897867
vt 0.086758 0.931116
vt 0.125855 0.957239
vt 0.169297 0.975234
vt 0.215415 0.984407
vt 0.262436 0.984407
vt 0.308554 0.975233
vt 0.351996 0.957239
vt 0.391093 0.931116
vt 0.946311 0.676071
vt 0.647148 0.516165
vt 0.487242 0.815328
vt 0.424342 0.897867
vt 0.760597 0.414494
vt 0.800461 0.391479
vt 0.800461 0.437509
vt 0.840326 0.368463
vt 0.800461 0.345448
vt 0.840326 0.322433
vt 0.760597 0.046249
vt 0.800461 0.023233
vt 0.800461 0.069264
vt 0.760597 0.138310
vt 0.800461 0.115295
vt 0.800461 0.161325
vt 0.760597 0.230371
vt 0.800461 0.207356
vt 0.800461 0.253387
vt 0.880190 0.345448
vt 0.840326 0.460525
vt 0.840326 0.414494
vt 0.880190 0.437509
vt 0.840326 0.092279
vt 0.840325 0.046249
vt 0.880190 0.069264
vt 0.840326 0.184341
vt 0.840326 0.138310
vt 0.880190 0.161325
vt 0.840326 0.276402
vt 0.840326 0.230371
vt 0.880190 0.253387
vt 0.880190 0.391479
vt 0.880190 0.483540
vt 0.880190 0.115295
vt 0.880190 0.207356
vt 0.880190 0.299417
vt 0.920053 0.414494
vt 0.920053 0.368463
vt 0.959918 0.391479
vt 0.920053 0.506556
vt 0.920053 0.460525
vt 0.959918 0.483540
vt 0.920053 0.138310
vt 0.920053 0.092279
vt 0.959918 0.115295
vt 0.920053 0.230371
vt 0.920053 0.184341
vt 0.959918 0.207356
vt 0.920053 0.322433
vt 0.920053 0.276402
vt 0.959918 0.299417
vt 0.959918 0.253387
vt 0.999782 0.276402
vt 0.959918 0.161325
vt 0.999782 0.184341
vt 0.959918 0.069264
vt 0.999782 0.092279
vt 0.920053 0.046249
vt 0.959918 0.437509
vt 0.999782 0.460525
vt 0.959918 0.345448
vt 0.999782 0.368463
vt 0.880190 0.023233
vt 0.840325 0.000218
vt 0.800461 0.299417
vt 0.760597 0.322433
vt 0.253387 0.000218
vt 0.126803 0.126802
vt 0.126803 0.000218
vt 0.253387 0.126802
vt 0.126803 0.253387
vt 0.253387 0.253387
vt 0.126803 0.379971
vt 0.253387 0.379971
vt 0.126803 0.506556
vt 0.000218 0.379971
vt 0.000218 0.253387
vt 0.379972 0.253387
vt 0.633577 0.506556
vt 0.760161 0.379971
vt 0.505237 0.858770
vt 0.531360 0.897866
vt 0.564609 0.931116
vt 0.603706 0.957239
vt 0.647148 0.975233
vt 0.693266 0.984407
vt 0.740287 0.984407
vt 0.786405 0.975234
vt 0.829847 0.957239
vt 0.868943 0.931116
vt 0.902192 0.897867
vt 0.928316 0.858770
vt 0.946311 0.815328
vt 0.955484 0.769210
vt 0.955484 0.722189
vt 0.928316 0.632629
vt 0.902193 0.593533
vt 0.868944 0.560283
vt 0.829847 0.534160
vt 0.786405 0.516165
vt 0.740287 0.506992
vt 0.693266 0.506992
vt 0.603706 0.534159
vt 0.564610 0.560283
vt 0.531360 0.593532
vt 0.505237 0.632629
vt 0.487242 0.676071
vt 0.478069 0.722189
vt 0.478069 0.769210
vt 0.253387 0.506556
vt 0.379972 0.379971
s 0
usemtl マテリアル.001
f 2/1/1 3/2/1 1/3/1
f 4/4/2 7/5/2 3/2/2
f 7/5/3 6/6/3 5/7/3
f 6/6/4 1/8/4 5/7/4
f 7/5/5 1/9/5 3/10/5
f 4/11/6 6/6/6 8/12/6
f 9/13/7 41/14/7 10/15/7
f 10/15/8 41/14/8 11/16/8
f 11/16/9 41/14/9 12/17/9
f 12/17/10 41/14/10 13/18/10
f 13/18/11 41/14/11 14/19/11
f 14/19/12 41/14/12 15/20/12
f 15/20/13 41/14/13 16/21/13
f 16/21/14 41/14/14 17/22/14
f 17/22/15 41/14/15 18/23/15
f 18/23/16 41/14/16 19/24/16
f 19/24/17 41/14/17 20/25/17
f 20/25/18 41/14/18 21/26/18
f 21/26/19 41/14/19 22/27/19
f 22/27/20 41/14/20 23/28/20
f 23/28/21 41/14/21 24/29/21
f 24/29/22 41/14/22 25/30/22
f 25/30/23 41/14/23 26/31/23
f 26/31/24 41/14/24 27/32/24
f 27/32/25 41/14/25 28/33/25
f 28/33/26 41/14/26 29/34/26
f 29/34/27 41/14/27 30/35/27
f 30/35/28 41/14/28 31/36/28
f 31/36/29 41/14/29 32/37/29
f 32/37/30 41/14/30 33/38/30
f 33/38/31 41/14/31 34/39/31
f 34/39/32 41/14/32 35/40/32
f 35/40/33 41/14/33 36/41/33
f 36/41/34 41/14/34 37/42/34
f 37/42/35 41/14/35 38/43/35
f 38/43/36 41/14/36 39/44/36
f 24/45/37 32/46/37 40/47/37
f 39/44/38 41/14/38 40/48/38
f 40/48/39 41/14/39 9/13/39
f 42/49/40 55/50/40 54/51/40
f 43/52/41 55/53/41 57/54/41
f 42/55/42 54/56/42 59/57/42
f 42/58/43 59/59/43 61/60/43
f 42/61/44 61/62/44 58/63/44
f 43/52/45 57/54/45 64/64/45
f 44/65/46 56/66/46 66/67/46
f 45/68/47 60/69/47 68/70/47
f 46/71/48 62/72/48 70/73/48
f 47/74/49 63/75/49 72/76/49
f 43/52/50 64/64/50 67/77/50
f 44/65/51 66/67/51 69/78/51
f 45/68/52 68/70/52 71/79/52
f 46/71/53 70/73/53 73/80/53
f 47/74/54 72/76/54 65/81/54
f 48/82/55 74/83/55 79/84/55
f 49/85/56 75/86/56 81/87/56
f 50/88/57 76/89/57 82/90/57
f 51/91/58 77/92/58 83/93/58
f 52/94/59 78/95/59 80/96/59
f 80/96/60 83/97/60 53/98/60
f 80/96/61 78/95/61 83/97/61
f 78/95/62 51/91/62 83/97/62
f 83/93/63 82/99/63 53/100/63
f 83/93/64 77/92/64 82/99/64
f 77/92/65 50/88/65 82/99/65
f 82/90/66 81/101/66 53/102/66
f 82/90/67 76/89/67 81/101/67
f 76/89/68 49/103/68 81/101/68
f 81/87/69 79/104/69 53/105/69
f 81/87/70 75/86/70 79/104/70
f 75/86/71 48/82/71 79/104/71
f 79/84/72 80/106/72 53/107/72
f 79/84/73 74/83/73 80/106/73
f 74/83/74 52/94/74 80/106/74
f 65/81/75 78/95/75 52/94/75
f 65/81/76 72/76/76 78/95/76
f 72/76/77 51/91/77 78/95/77
f 73/80/78 77/92/78 51/91/78
f 73/80/79 70/73/79 77/92/79
f 70/73/80 50/88/80 77/92/80
f 71/79/81 76/89/81 50/88/81
f 71/79/82 68/70/82 76/89/82
f 68/70/83 49/103/83 76/89/83
f 69/78/84 75/86/84 49/85/84
f 69/78/85 66/67/85 75/86/85
f 66/67/86 48/82/86 75/86/86
f 67/77/87 74/83/87 48/82/87
f 67/77/88 64/64/88 74/83/88
f 64/64/89 52/94/89 74/83/89
f 72/76/90 73/80/90 51/91/90
f 72/76/91 63/75/91 73/80/91
f 63/75/92 46/71/92 73/80/92
f 70/73/93 71/79/93 50/88/93
f 70/73/94 62/72/94 71/79/94
f 62/72/95 45/68/95 71/79/95
f 68/70/96 69/108/96 49/103/96
f 68/70/97 60/69/97 69/108/97
f 60/69/98 44/109/98 69/108/98
f 66/67/99 67/77/99 48/82/99
f 66/67/100 56/66/100 67/77/100
f 56/66/101 43/52/101 67/77/101
f 64/64/102 65/81/102 52/94/102
f 64/64/103 57/54/103 65/81/103
f 57/54/104 47/74/104 65/81/104
f 58/63/105 63/75/105 47/74/105
f 58/63/106 61/62/106 63/75/106
f 61/62/107 46/71/107 63/75/107
f 61/60/108 62/72/108 46/71/108
f 61/60/109 59/59/109 62/72/109
f 59/59/110 45/68/110 62/72/110
f 59/57/111 60/69/111 45/68/111
f 59/57/112 54/56/112 60/69/112
f 54/56/113 44/109/113 60/69/113
f 57/54/114 58/110/114 47/74/114
f 57/54/115 55/53/115 58/110/115
f 55/53/116 42/111/116 58/110/116
f 54/51/117 56/66/117 44/65/117
f 54/51/118 55/50/118 56/66/118
f 55/50/119 43/52/119 56/66/119
f 85/112/1 86/113/1 84/114/1
f 87/115/120 90/116/120 86/113/120
f 91/117/3 88/118/3 90/116/3
f 89/119/121 84/120/121 88/118/121
f 90/116/122 84/121/122 86/122/122
f 87/123/123 89/119/123 91/117/123
f 2/1/1 4/4/1 3/2/1
f 4/4/2 8/12/2 7/5/2
f 7/5/3 8/12/3 6/6/3
f 6/6/4 2/124/4 1/8/4
f 7/5/5 5/7/5 1/9/5
f 4/11/6 2/125/6 6/6/6
f 40/47/37 9/126/37 10/127/37
f 10/127/37 11/128/37 12/129/37
f 12/129/37 13/130/37 14/131/37
f 14/131/37 15/132/37 16/133/37
f 16/133/37 17/134/37 18/135/37
f 18/135/37 19/136/37 20/137/37
f 20/137/37 21/138/37 22/139/37
f 22/139/37 23/140/37 24/45/37
f 24/45/37 25/141/37 26/142/37
f 26/142/37 27/143/37 28/144/37
f 28/144/37 29/145/37 30/146/37
f 30/146/37 31/147/37 32/46/37
f 32/46/37 33/148/37 34/149/37
f 34/149/37 35/150/37 36/151/37
f 36/151/37 37/152/37 38/153/37
f 38/153/37 39/154/37 40/47/37
f 40/47/37 10/127/37 12/129/37
f 12/129/37 14/131/37 16/133/37
f 16/133/37 18/135/37 20/137/37
f 20/137/37 22/139/37 24/45/37
f 24/45/37 26/142/37 28/144/37
f 28/144/37 30/146/37 32/46/37
f 32/46/37 34/149/37 36/151/37
f 36/151/37 38/153/37 40/47/37
f 40/47/37 12/129/37 16/133/37
f 16/133/37 20/137/37 24/45/37
f 24/45/37 28/144/37 32/46/37
f 32/46/37 36/151/37 40/47/37
f 40/47/37 16/133/37 24/45/37
f 85/112/1 87/115/1 86/113/1
f 87/115/120 91/117/120 90/116/120
f 91/117/3 89/119/3 88/118/3
f 89/119/121 85/155/121 84/120/121
f 90/116/122 88/118/122 84/121/122
f 87/123/123 85/156/123 89/119/123
