# Blender 4.2.1 LTS
# www.blender.org
mtllib player_r_arm.mtl
o right_arm
v 0.037535 -0.687316 0.961770
v 0.037535 -0.564566 1.036602
v 0.437244 -0.231455 0.020470
v 0.437244 0.063333 0.200183
v -0.106226 -0.687316 0.961770
v -0.106226 -0.564566 1.036602
v 0.159087 -0.124999 -0.154153
v 0.159087 0.169790 0.025560
v 0.069619 -0.359278 0.362045
v 0.069619 -0.181739 0.470279
v -0.138310 -0.359278 0.362045
v -0.138310 -0.181739 0.470279
v 0.444112 -0.058648 -0.262990
v 0.444112 0.236140 -0.083276
vn 0.6979 -0.3728 0.6116
vn -0.4082 0.4752 -0.7794
vn -0.9989 -0.0244 0.0401
vn -0.0000 -0.5205 0.8538
vn -0.0000 -0.8773 -0.4799
vn -0.0000 0.8285 0.5600
vn -0.0000 0.7845 0.6201
vn -0.0796 -0.9024 -0.4234
vn -0.8841 0.2432 -0.3990
vn 0.9989 -0.0244 0.0401
vn -0.0000 -0.8538 -0.5205
vn -0.0000 0.8538 0.5205
vn 0.9998 -0.0108 0.0177
vn -0.0796 0.7897 0.6082
vn -0.0000 -0.9106 -0.4133
vt 0.625000 0.125000
vt 0.375000 0.250000
vt 0.375000 0.125000
vt 0.375000 0.500000
vt 0.625000 0.500000
vt 0.625000 0.625000
vt 0.375000 0.750000
vt 0.375000 0.625000
vt 0.625000 0.750000
vt 0.375000 1.000000
vt 0.125000 0.750000
vt 0.125000 0.625000
vt 0.875000 0.750000
vt 0.875000 0.625000
vt 0.125000 0.500000
vt 0.625000 0.000000
vt 0.375000 0.000000
vt 0.875000 0.500000
vt 0.625000 0.250000
vt 0.625000 1.000000
s 0
f 10/1/1 9/3/1 3/2/1
f 7/4/2 8/5/2 14/5/2
f 12/6/3 11/8/3 5/7/3
f 6/9/4 5/7/4 1/10/4
f 11/8/5 9/12/5 1/11/5
f 12/6/6 6/9/6 2/13/6
f 8/5/7 12/6/7 10/14/7
f 7/4/8 3/15/8 9/12/8
f 8/5/9 7/4/9 11/8/9
f 2/16/10 1/17/10 9/3/10
f 7/4/11 13/4/11 3/15/11
f 4/18/12 14/5/12 8/5/12
f 4/19/13 3/2/13 13/4/13
f 10/1/1 3/2/1 4/19/1
f 7/4/2 14/5/2 13/4/2
f 12/6/3 5/7/3 6/9/3
f 6/9/4 1/10/4 2/20/4
f 11/8/5 1/11/5 5/7/5
f 12/6/6 2/13/6 10/14/6
f 8/5/14 10/14/14 4/18/14
f 7/4/15 9/12/15 11/8/15
f 8/5/9 11/8/9 12/6/9
f 2/16/10 9/3/10 10/1/10
f 4/19/13 13/4/13 14/5/13
