# Blender 4.2.1 LTS
# www.blender.org
mtllib enemyHitBox.mtl
o body
v 0.220150 -0.396621 -3.857631
v 0.220150 0.406351 -3.857631
v -0.220151 -0.396621 -3.857631
v -0.220151 0.406351 -3.857631
v 0.609568 -1.083172 -0.000000
v 0.298496 0.004865 -3.903315
v 0.166093 1.435905 -0.055618
v -0.609568 -1.083172 0.000000
v -0.166093 1.435905 -0.055618
v -0.298496 0.004865 -3.903315
v -0.000000 -0.484601 -3.903315
v -0.000000 0.494331 -3.903315
v 0.933665 0.004865 -0.000000
v -0.933665 0.004865 0.000000
v -0.000000 0.004865 -3.999187
v 0.000000 -1.455255 0.000000
v -0.000000 1.620085 -0.056591
v 0.554784 -1.006890 2.072250
v 0.582176 -1.056844 1.023155
v 0.582176 1.066574 1.023155
v 0.554784 1.016619 2.072250
v -0.582176 -1.056844 1.023155
v -0.554784 -1.006890 2.072250
v -0.554784 1.016619 2.072250
v -0.582176 1.066574 1.023155
v 0.805801 0.004865 2.072250
v 0.869733 0.004865 1.049094
v -0.805801 0.004865 2.072250
v -0.869733 0.004865 1.049094
v 0.000000 -1.316467 2.072250
v 0.000000 -1.421301 1.049094
v 0.000000 1.326196 2.072250
v 0.000000 1.431030 1.049094
v 0.284455 -1.272024 -1.376221
v 0.161753 -1.047999 -2.080033
v 0.232211 -0.418616 -3.407135
v 0.232211 0.428346 -3.407135
v 0.421633 0.773794 -2.390539
v 0.160514 1.389801 -0.966135
v -0.232211 -0.418616 -3.407135
v -0.161753 -1.047999 -2.080033
v -0.284455 -1.272024 -1.376221
v -0.160514 1.389801 -0.966135
v -0.421634 0.773794 -2.390539
v -0.232211 0.428346 -3.407135
v 0.326645 0.004865 -3.441398
v 0.612405 0.004865 -2.429966
v 0.869733 0.004865 -1.049094
v -0.326646 0.004865 -3.441398
v -0.612406 0.004865 -2.429966
v -0.869733 0.004865 -1.049094
v -0.000000 -0.530760 -3.441398
v -0.000000 -1.041300 -2.270545
v -0.000000 -1.383692 -1.210197
v -0.000000 0.540489 -3.441398
v -0.000000 1.009071 -2.429966
v -0.000000 1.431030 -1.049094
v 0.301757 0.133334 -3.880474
v -0.301758 0.133334 -3.880473
v 0.895047 0.360076 -0.000000
v -0.895047 0.360076 0.000000
v -0.000000 0.161424 -3.951252
v -0.790195 0.328177 2.072249
v -0.842621 0.344126 1.036125
v 0.842621 0.344126 1.036125
v 0.790196 0.328177 2.072249
v -0.842621 0.344126 -1.036125
v -0.600546 0.250649 -2.410253
v -0.324841 0.140356 -3.424267
v 0.324840 0.140356 -3.424267
v 0.600545 0.250649 -2.410253
v 0.842621 0.344126 -1.036125
v 0.301757 -0.123035 -3.880474
v -0.301758 -0.123035 -3.880474
v 0.895047 -0.342233 -0.000000
v -0.895047 -0.342233 0.000000
v -0.000000 -0.151125 -3.951252
v -0.790195 -0.317878 2.072249
v -0.842621 -0.333828 1.036125
v 0.842621 -0.333828 1.036125
v 0.790196 -0.317878 2.072249
v -0.842621 -0.333828 -1.036125
v -0.600546 -0.240350 -2.410253
v -0.324841 -0.130058 -3.424267
v 0.324840 -0.130058 -3.424267
v 0.600545 -0.240350 -2.410253
v 0.842621 -0.333828 -1.036125
v 0.582176 1.066574 -1.023155
v 0.609568 1.116528 -0.000000
v 0.000000 1.535865 -0.000000
v -0.609568 1.116528 0.000000
v -0.582176 1.066574 -1.023155
v -0.000000 1.445380 -0.966135
v 0.006549 1.811543 -1.219852
v 0.000651 2.452506 -0.878314
v 0.121245 1.805768 -1.173656
v 0.125437 2.381321 -0.850357
v -0.124135 2.381321 -0.850357
v -0.114045 1.805768 -1.173656
v -0.158551 1.525338 -0.999718
v -0.156588 1.653891 -1.040502
v -0.154626 1.742949 -1.102020
v 0.005888 1.742949 -1.102020
v 0.003925 1.653891 -1.040502
v 0.001963 1.525338 -0.999718
v -0.000000 1.829480 -0.181127
v -0.000000 2.083200 -0.335352
v -0.000000 2.299405 -0.558137
v -0.166093 2.232315 -0.570170
v -0.166093 2.012859 -0.342017
v -0.166093 1.755630 -0.183668
v 0.160514 1.525338 -0.999718
v 0.160514 1.653891 -1.040502
v 0.160514 1.742949 -1.102020
v 0.166093 2.232315 -0.570170
v 0.166093 2.012859 -0.342017
v 0.166093 1.755630 -0.183668
v 0.582176 -1.056844 -1.023155
v 0.421633 -0.764065 -2.390539
v -0.421634 -0.764065 -2.390539
v -0.582176 -1.056844 -1.023155
v -0.000000 -1.421301 -1.049094
v -0.000000 -0.999342 -2.429966
v -0.000000 -1.384252 -2.673964
v -0.000000 -1.926845 -2.666773
v 0.096936 -1.843663 -2.667936
v 0.055122 -1.507066 -2.672640
v -0.055122 -1.507066 -2.672640
v -0.096937 -1.843663 -2.667936
v -0.234245 -1.574389 -1.553332
v -0.171217 -1.812353 -1.809351
v -0.132187 -1.892220 -2.281715
v -0.000000 -1.996759 -2.222256
v -0.000000 -1.911416 -1.675362
v -0.000000 -1.656041 -1.408076
v 0.132187 -1.892220 -2.281715
v 0.171217 -1.812353 -1.809351
v 0.234244 -1.574389 -1.553332
v 0.075167 -1.469208 -2.522313
v 0.097361 -1.411496 -2.351533
v 0.133201 -1.243986 -2.141109
v -0.000000 -1.150987 -2.306554
v -0.000000 -1.298665 -2.504144
v -0.000000 -1.350140 -2.590035
v -0.075167 -1.469208 -2.522313
v -0.097361 -1.411496 -2.351533
v -0.133201 -1.243986 -2.141109
vn 0.9926 -0.1104 -0.0511
vn 0.9391 0.3395 -0.0527
vn -0.9926 -0.1104 0.0511
vn -0.9391 0.3395 0.0527
vn -0.9556 0.2900 -0.0528
vn -0.9985 -0.0198 -0.0508
vn -0.2397 -0.1647 -0.9568
vn -0.2391 0.1517 -0.9591
vn 0.2391 0.1517 -0.9591
vn 0.2397 -0.1648 -0.9568
vn 0.5207 -0.8530 0.0359
vn -0.5313 -0.8467 0.0274
vn -0.3859 -0.9180 -0.0917
vn 0.4408 -0.8959 -0.0555
vn -0.5316 0.8452 0.0555
vn 0.5649 0.8211 0.0821
vn 0.3859 0.9180 -0.0917
vn -0.4408 0.8959 -0.0555
vn 0.5314 0.8427 0.0863
vn -0.0000 -0.0000 1.0000
vn -0.4866 0.8720 0.0542
vn -0.5314 -0.8427 0.0863
vn 0.4866 -0.8720 0.0542
vn -0.9449 0.3231 0.0528
vn -0.9953 -0.0817 0.0516
vn 0.9926 -0.1104 0.0511
vn 0.9953 -0.0817 0.0516
vn 0.9391 0.3395 0.0527
vn 0.9449 0.3231 0.0528
vn -0.3688 0.8425 0.3928
vn -0.4902 0.8387 -0.2371
vn -0.4799 0.7995 -0.3611
vn -0.1499 -0.8541 -0.4980
vn 0.5218 0.8158 -0.2493
vn 0.4474 0.8115 -0.3760
vn 0.5207 -0.8530 -0.0359
vn 0.6425 -0.7509 -0.1530
vn 0.4799 -0.7995 -0.3611
vn -0.5313 -0.8467 -0.0274
vn -0.5797 -0.8050 -0.1266
vn -0.4474 -0.8115 -0.3760
vn -0.9926 -0.1104 -0.0511
vn -0.9802 -0.0853 -0.1785
vn -0.9608 -0.0681 -0.2686
vn -0.9391 0.3395 -0.0527
vn -0.9276 0.3242 -0.1855
vn -0.9087 0.3090 -0.2807
vn 0.9556 0.2900 -0.0528
vn 0.9087 0.3090 -0.2807
vn 0.9276 0.3242 -0.1855
vn 0.9985 -0.0198 -0.0508
vn 0.9608 -0.0681 -0.2686
vn 0.9802 -0.0853 -0.1785
vn 0.9812 0.0620 -0.1828
vn 0.9613 0.0471 -0.2716
vn 0.9980 -0.0145 -0.0608
vn -0.9613 0.0471 -0.2716
vn -0.9812 0.0620 -0.1828
vn -0.9948 0.0818 -0.0606
vn 0.9969 0.0481 0.0623
vn 0.9948 0.0818 0.0606
vn -0.9969 0.0481 0.0623
vn 0.2936 0.2799 -0.9140
vn -0.2936 0.2799 -0.9140
vn -0.9980 -0.0145 -0.0608
vn -0.9948 0.0818 0.0606
vn 0.9948 0.0818 -0.0606
vn 0.9243 -0.3362 -0.1805
vn 0.9059 -0.3199 -0.2775
vn 0.9507 -0.3076 -0.0405
vn -0.9059 -0.3199 -0.2775
vn -0.9243 -0.3362 -0.1805
vn -0.9326 -0.3593 -0.0342
vn 0.9398 -0.3393 0.0407
vn 0.9326 -0.3593 0.0342
vn -0.9398 -0.3393 0.0407
vn 0.2537 -0.1376 -0.9574
vn -0.2537 -0.1376 -0.9574
vn -0.9507 -0.3076 -0.0405
vn -0.9326 -0.3593 0.0342
vn 0.9326 -0.3593 -0.0342
vn 0.6028 0.7960 -0.0550
vn 0.5545 0.8060 0.2072
vn -0.5230 0.4754 0.7075
vn -0.5875 0.8080 -0.0445
vn -0.4618 0.6988 -0.5462
vn 0.3229 0.9326 -0.1613
vn -0.3372 0.4566 -0.8233
vn 0.4235 0.4290 -0.7979
vn 0.9912 0.0919 -0.0950
vn -0.0000 -0.7519 -0.6593
vn -0.9157 0.1845 -0.3570
vn 0.3854 0.8322 0.3987
vn 0.2338 0.4970 0.8357
vn 0.2464 0.5034 0.8282
vn 0.3222 0.6794 0.6593
vn -0.9999 0.0114 -0.0125
vn -0.9998 0.0094 -0.0184
vn -0.9997 0.0044 -0.0256
vn -0.0830 -0.2397 -0.9673
vn -0.0000 -0.3024 -0.9532
vn -0.0000 -0.5683 -0.8228
vn 1.0000 -0.0024 -0.0060
vn 1.0000 -0.0036 -0.0058
vn 1.0000 -0.0054 -0.0052
vn -0.0000 -0.3872 -0.9220
vn -0.3768 0.3444 0.8599
vn -0.2390 0.5090 0.8269
vn -0.3160 0.6838 0.6577
vn 0.7709 -0.5558 -0.3113
vn -0.5750 -0.7836 -0.2353
vn 0.2422 -0.9448 -0.2206
vn 0.4258 -0.8164 -0.3902
vn -0.5270 -0.8469 0.0718
vn -0.4909 -0.8425 -0.2217
vn -0.0000 -0.0140 -0.9999
vn 0.0055 -0.0133 -0.9999
vn 0.9797 0.1195 -0.1607
vn -0.8911 0.3976 -0.2189
vn 0.8749 0.4486 -0.1823
vn -0.9929 0.0886 -0.0795
vn -0.9808 -0.0529 -0.1878
vn -0.9794 -0.0488 -0.1958
vn -0.9940 0.0586 -0.0920
vn 0.8133 0.1815 -0.5528
vn 0.8815 0.3783 -0.2827
vn 0.8766 0.4127 -0.2474
vn -0.7608 0.0895 -0.6428
vn -0.8131 0.3800 -0.4410
vn -0.8750 0.4126 -0.2532
vn 0.9746 -0.0764 -0.2105
vn 0.9883 -0.0220 -0.1509
vn 0.9881 0.0505 -0.1455
vn -0.5771 -0.4801 0.6607
vn -0.5625 -0.5978 0.5711
vn -0.5692 -0.8124 0.1268
vn 0.5750 -0.4825 0.6607
vn 0.6746 -0.6161 0.4066
vn 0.6394 -0.7650 0.0765
vn 0.9948 -0.0820 -0.0606
vn 0.9348 0.3528 -0.0422
vn -0.9948 -0.0820 0.0606
vn -0.9348 0.3528 0.0422
vn -0.9505 0.3081 -0.0405
vn -0.9980 0.0146 -0.0608
vn -0.2935 -0.2808 -0.9138
vn -0.2538 0.1379 -0.9574
vn 0.2538 0.1379 -0.9574
vn 0.2935 -0.2808 -0.9138
vn 0.5313 -0.8467 0.0274
vn -0.5207 -0.8530 0.0359
vn -0.4408 -0.8959 -0.0555
vn 0.3859 -0.9180 -0.0917
vn -0.5649 0.8211 0.0821
vn 0.5316 0.8452 0.0555
vn 0.4408 0.8959 -0.0555
vn -0.3859 0.9180 -0.0917
vn 0.4866 0.8720 0.0542
vn -0.5314 0.8427 0.0863
vn -0.4866 -0.8720 0.0542
vn 0.5314 -0.8427 0.0863
vn -0.9397 0.3395 0.0407
vn -0.9969 -0.0482 0.0623
vn 0.9948 -0.0820 0.0606
vn 0.9969 -0.0482 0.0623
vn 0.9348 0.3528 0.0422
vn 0.9397 0.3395 0.0407
vn -0.3859 0.8326 0.3973
vn -0.5218 0.8158 -0.2493
vn -0.4474 0.8115 -0.3760
vn 0.4902 0.8387 -0.2371
vn 0.4799 0.7995 -0.3611
vn 0.5313 -0.8467 -0.0274
vn 0.5797 -0.8050 -0.1266
vn 0.4474 -0.8115 -0.3760
vn -0.5207 -0.8530 -0.0359
vn -0.6425 -0.7509 -0.1530
vn -0.4799 -0.7995 -0.3611
vn -0.9948 -0.0820 -0.0606
vn -0.9812 -0.0622 -0.1828
vn -0.9613 -0.0473 -0.2716
vn -0.9348 0.3528 -0.0422
vn -0.9242 0.3364 -0.1805
vn -0.9058 0.3202 -0.2776
vn 0.9505 0.3081 -0.0405
vn 0.9058 0.3202 -0.2776
vn 0.9242 0.3364 -0.1805
vn 0.9980 0.0146 -0.0608
vn 0.9613 -0.0473 -0.2716
vn 0.9812 -0.0622 -0.1828
vn 0.9803 0.0852 -0.1785
vn 0.9608 0.0679 -0.2686
vn 0.9985 0.0197 -0.0508
vn -0.9608 0.0679 -0.2686
vn -0.9803 0.0852 -0.1785
vn -0.9928 0.1079 -0.0519
vn 0.9953 0.0815 0.0516
vn 0.9928 0.1079 0.0519
vn -0.9953 0.0815 0.0516
vn 0.2397 0.1640 -0.9569
vn -0.2397 0.1640 -0.9569
vn -0.9985 0.0197 -0.0508
vn -0.9928 0.1079 0.0519
vn 0.9928 0.1079 -0.0519
vn 0.9277 -0.3239 -0.1855
vn 0.9089 -0.3084 -0.2807
vn 0.9557 -0.2895 -0.0528
vn -0.9089 -0.3084 -0.2807
vn -0.9277 -0.3239 -0.1855
vn -0.9393 -0.3393 -0.0503
vn 0.9450 -0.3229 0.0528
vn 0.9393 -0.3393 0.0503
vn -0.9450 -0.3229 0.0528
vn 0.2391 -0.1514 -0.9591
vn -0.2391 -0.1514 -0.9591
vn -0.9557 -0.2895 -0.0528
vn -0.9393 -0.3393 0.0503
vn 0.9393 -0.3393 -0.0503
vn 0.5875 0.8080 -0.0445
vn 0.5230 0.4754 0.7075
vn -0.5545 0.8060 0.2072
vn -0.6028 0.7960 -0.0550
vn -0.3229 0.9326 -0.1613
vn 0.4618 0.6988 -0.5462
vn -0.4213 0.4235 -0.8020
vn 0.3521 0.4564 -0.8171
vn 0.9211 0.1855 -0.3422
vn 0.1569 -0.8539 -0.4962
vn -0.9909 0.0875 -0.1019
vn 0.3686 0.8419 0.3942
vn 0.3768 0.3444 0.8599
vn 0.2390 0.5090 0.8269
vn 0.3160 0.6838 0.6577
vn -1.0000 -0.0024 -0.0060
vn -1.0000 -0.0048 -0.0079
vn -0.9999 -0.0092 -0.0089
vn 1.0000 -0.0016 -0.0064
vn 1.0000 -0.0022 -0.0069
vn 1.0000 -0.0044 -0.0064
vn 0.0834 -0.2408 -0.9670
vn -0.2338 0.4970 0.8357
vn -0.2464 0.5034 0.8282
vn -0.3222 0.6794 0.6593
vn 0.5750 -0.7836 -0.2353
vn -0.7709 -0.5558 -0.3113
vn 0.5270 -0.8469 0.0718
vn 0.4909 -0.8425 -0.2217
vn -0.2422 -0.9448 -0.2206
vn -0.4258 -0.8164 -0.3902
vn -0.0055 -0.0133 -0.9999
vn 0.9929 0.0886 -0.0795
vn -0.8749 0.4486 -0.1823
vn 0.8911 0.3976 -0.2189
vn -0.9797 0.1195 -0.1607
vn -0.9746 -0.0764 -0.2105
vn -0.9883 -0.0220 -0.1509
vn -0.9881 0.0505 -0.1455
vn 0.7608 0.0895 -0.6428
vn 0.8131 0.3800 -0.4410
vn 0.8750 0.4126 -0.2532
vn -0.8133 0.1815 -0.5528
vn -0.8815 0.3783 -0.2827
vn -0.8766 0.4127 -0.2473
vn 0.9808 -0.0529 -0.1878
vn 0.9794 -0.0488 -0.1958
vn 0.9940 0.0586 -0.0920
vn -0.5750 -0.4825 0.6607
vn -0.6746 -0.6161 0.4066
vn -0.6394 -0.7650 0.0765
vn 0.5771 -0.4801 0.6607
vn 0.5625 -0.5978 0.5711
vn 0.5692 -0.8124 0.1268
vt 0.437500 0.093750
vt 0.500000 0.125000
vt 0.437500 0.125000
vt 0.625000 0.093750
vt 0.562500 0.125000
vt 0.562500 0.093750
vt 0.437500 0.593750
vt 0.500000 0.625000
vt 0.437500 0.625000
vt 0.625000 0.593750
vt 0.562500 0.625000
vt 0.562500 0.593750
vt 0.562500 0.718750
vt 0.625000 0.750000
vt 0.562500 0.750000
vt 0.500000 0.718750
vt 0.437500 0.750000
vt 0.437500 0.718750
vt 0.500000 0.750000
vt 0.437500 0.875000
vt 0.562500 0.875000
vt 0.625000 1.000000
vt 0.562500 1.000000
vt 0.500000 1.000000
vt 0.437500 1.000000
vt 0.125000 0.593750
vt 0.250000 0.625000
vt 0.125000 0.625000
vt 0.375000 0.593750
vt 0.250000 0.593750
vt 0.250000 0.718750
vt 0.375000 0.750000
vt 0.250000 0.750000
vt 0.125000 0.750000
vt 0.125000 0.718750
vt 0.750000 0.593750
vt 0.625000 0.625000
vt 0.875000 0.625000
vt 0.750000 0.625000
vt 0.750000 0.718750
vt 0.875000 0.750000
vt 0.750000 0.750000
vt 0.625000 0.718750
vt 0.750000 0.562500
vt 0.875000 0.593750
vt 0.437500 0.562500
vt 0.250000 0.562500
vt 0.375000 0.187500
vt 0.625000 0.562500
vt 0.125000 0.562500
vt 0.562500 0.562500
vt 0.500000 0.593750
vt 0.437500 0.156250
vt 0.500000 0.156250
vt 0.437500 0.187500
vt 0.625000 0.156250
vt 0.562500 0.156250
vt 0.625000 0.187500
vt 0.562500 0.187500
vt 0.750725 0.630351
vt 0.655962 0.630452
vt 0.625000 0.656250
vt 0.750000 0.687500
vt 0.625000 0.687500
vt 0.750351 0.650904
vt 0.657279 0.650799
vt 0.875000 0.656250
vt 0.750000 0.656250
vt 0.875000 0.718750
vt 0.125000 0.656250
vt 0.156431 0.659883
vt 0.248891 0.659837
vt 0.250000 0.687500
vt 0.125000 0.687500
vt 0.375000 0.656250
vt 0.250000 0.656250
vt 0.343569 0.659883
vt 0.248891 0.659837
vt 0.375000 0.718750
vt 0.437500 0.656250
vt 0.500000 0.656250
vt 0.437500 0.687500
vt 0.500000 0.687500
vt 0.562500 0.656250
vt 0.562500 0.687500
vt 0.625000 0.000000
vt 0.562500 0.031250
vt 0.562500 0.000000
vt 0.625000 0.031250
vt 0.562500 0.062500
vt 0.625000 0.062500
vt 0.437500 0.000000
vt 0.500000 0.031250
vt 0.437500 0.031250
vt 0.500000 0.062500
vt 0.437500 0.062500
vt 0.500000 0.093750
vt 0.500000 0.000000
vt 0.500000 0.187500
vt 0.500000 0.562500
vt 0.687500 0.375000
vt 0.875000 0.562500
vt 0.500000 0.875000
vt 0.375000 0.062500
vt 0.375000 0.093750
vt 0.375000 0.031250
vt 0.375000 0.000000
vt 0.375000 0.687500
vt 0.375000 0.625000
vt 0.375000 0.156250
vt 0.375000 0.125000
vt 0.375000 0.562500
vt 0.375000 1.000000
vt 0.375000 0.875000
vt 0.842721 0.650799
vt 0.844038 0.630452
vt 0.750725 0.630352
vt 0.842721 0.650799
vt 0.844038 0.630452
vt 0.657279 0.650799
vt 0.844038 0.630452
vt 0.655962 0.630452
vt 0.842721 0.650799
vt 0.750351 0.650904
vt 0.842721 0.650799
vt 0.750351 0.650904
vt 0.165300 0.683871
vt 0.334700 0.683870
vt 0.250781 0.683928
vt 0.343569 0.659883
vt 0.165300 0.683871
vt 0.250781 0.683928
vt 0.334700 0.683870
vt 0.343569 0.659883
vt 0.156431 0.659883
vt 0.156431 0.659883
vt 0.248891 0.659837
vt 0.625000 0.125000
vt 0.625000 0.875000
vt 0.875000 0.687500
s 0
f 87/1/1 13/2/1 75/3/1
f 88/4/2 60/5/2 72/6/2
f 79/7/3 14/8/3 76/9/3
f 25/10/4 61/11/4 64/12/4
f 69/13/5 4/14/5 59/15/5
f 49/16/6 74/17/6 84/18/6
f 10/19/7 77/20/7 74/17/7
f 4/14/8 62/21/8 59/15/8
f 62/21/9 2/22/9 58/23/9
f 77/20/10 6/24/10 73/25/10
f 19/26/11 16/27/11 5/28/11
f 22/29/12 16/27/12 31/30/12
f 52/31/13 3/32/13 11/33/13
f 52/31/14 1/34/14 36/35/14
f 33/36/15 91/37/15 25/10/15
f 33/36/16 89/38/16 90/39/16
f 55/40/17 2/41/17 12/42/17
f 55/40/18 4/14/18 45/43/18
f 32/44/19 20/45/19 33/36/19
f 78/46/20 30/47/20 18/48/20
f 32/44/21 25/10/21 24/49/21
f 30/47/22 22/29/22 31/30/22
f 30/47/23 19/26/23 18/50/23
f 24/49/24 64/12/24 63/51/24
f 78/46/25 29/52/25 79/7/25
f 13/2/26 80/53/26 75/3/26
f 27/54/27 81/55/27 80/53/27
f 60/5/28 20/56/28 65/57/28
f 65/57/29 21/58/29 66/59/29
f 108/60/30 98/61/30 109/61/30
f 92/62/31 56/63/31 44/64/31
f 56/63/32 45/43/32 44/64/32
f 103/65/33 99/66/33 94/65/33
f 88/67/34 56/63/34 57/68/34
f 56/63/35 37/69/35 55/40/35
f 16/27/36 118/70/36 5/28/36
f 136/71/37 125/72/37 126/71/37
f 123/73/38 36/35/38 119/74/38
f 16/27/39 121/75/39 122/76/39
f 132/77/40 125/72/40 133/78/40
f 123/73/41 40/79/41 52/31/41
f 14/8/42 82/80/42 76/9/42
f 51/81/43 83/82/43 82/80/43
f 50/83/44 84/18/44 83/82/44
f 61/11/45 92/62/45 67/84/45
f 67/84/46 44/64/46 68/85/46
f 68/85/47 45/43/47 69/13/47
f 2/86/48 70/87/48 58/88/48
f 37/89/49 71/90/49 70/87/49
f 38/91/50 72/6/50 71/90/50
f 73/92/51 46/93/51 85/94/51
f 85/94/52 47/95/52 86/96/52
f 86/96/53 48/97/53 87/1/53
f 71/90/54 48/97/54 47/95/54
f 70/87/55 47/95/55 46/93/55
f 58/88/56 46/93/56 6/98/56
f 50/83/57 69/13/57 49/16/57
f 51/81/58 68/85/58 50/83/58
f 14/8/59 67/84/59 51/81/59
f 27/54/60 66/59/60 26/99/60
f 13/2/61 65/57/61 27/54/61
f 63/51/62 29/52/62 28/100/62
f 24/49/20 66/101/20 21/102/20
f 62/21/63 6/24/63 15/103/63
f 10/19/64 62/21/64 15/103/64
f 49/16/65 59/15/65 10/19/65
f 64/12/66 14/8/66 29/52/66
f 72/6/67 13/2/67 48/97/67
f 119/104/68 87/1/68 118/105/68
f 36/106/69 86/96/69 119/104/69
f 1/107/70 85/94/70 36/106/70
f 83/82/71 40/79/71 120/108/71
f 82/80/72 120/108/72 121/75/72
f 76/9/73 121/75/73 8/109/73
f 80/53/74 18/48/74 19/110/74
f 75/3/75 19/110/75 5/111/75
f 23/112/76 79/7/76 22/29/76
f 63/51/20 78/46/20 26/99/20
f 77/20/77 1/113/77 11/114/77
f 3/32/78 77/20/78 11/114/78
f 84/18/79 3/32/79 40/79/79
f 22/29/80 76/9/80 8/109/80
f 118/105/81 75/3/81 5/111/81
f 39/115/82 89/38/82 88/67/82
f 7/116/83 90/39/83 89/38/83
f 9/61/84 90/39/84 17/117/84
f 43/66/85 91/37/85 9/61/85
f 43/66/86 57/68/86 92/62/86
f 39/115/87 57/68/87 93/65/87
f 98/61/88 94/65/88 99/66/88
f 97/116/89 94/65/89 95/117/89
f 114/118/90 97/116/90 115/119/90
f 103/65/91 96/115/91 114/118/91
f 102/120/92 98/61/92 99/66/92
f 108/60/93 97/116/93 95/117/93
f 17/117/94 117/116/94 106/117/94
f 106/117/95 116/121/95 107/60/95
f 107/60/96 115/119/96 108/60/96
f 43/66/97 111/61/97 100/66/97
f 100/66/98 110/122/98 101/66/98
f 101/66/99 109/61/99 102/120/99
f 93/65/100 112/123/100 39/115/100
f 112/123/101 104/124/101 113/125/101
f 113/125/102 103/65/102 114/118/102
f 39/115/103 117/116/103 7/116/103
f 112/123/104 116/121/104 117/116/104
f 113/125/105 115/119/105 116/121/105
f 93/65/106 100/66/106 105/126/106
f 105/126/101 101/66/101 104/124/101
f 104/124/102 102/120/102 103/65/102
f 17/117/107 111/61/107 9/61/107
f 106/117/108 110/122/108 111/61/108
f 107/60/109 109/61/109 110/122/109
f 35/127/110 118/70/110 34/71/110
f 41/128/111 121/75/111 120/108/111
f 34/71/112 122/76/112 54/72/112
f 53/129/113 119/74/113 35/127/113
f 42/130/114 122/76/114 121/75/114
f 53/129/115 120/108/115 123/73/115
f 125/72/116 127/127/116 126/71/116
f 125/72/117 128/128/117 124/129/117
f 139/131/118 126/71/118 127/127/118
f 145/128/119 124/129/119 128/128/119
f 139/131/120 124/129/120 144/132/120
f 145/128/121 129/130/121 132/77/121
f 41/128/122 130/77/122 42/130/122
f 147/133/123 131/134/123 130/77/123
f 146/133/124 132/77/124 131/134/124
f 53/129/125 141/127/125 142/132/125
f 142/132/126 140/127/126 143/132/126
f 143/132/127 139/131/127 144/132/127
f 53/129/128 147/133/128 41/128/128
f 142/132/129 146/133/129 147/133/129
f 143/132/130 145/128/130 146/133/130
f 35/127/131 138/135/131 141/127/131
f 141/127/132 137/136/132 140/127/132
f 140/127/133 136/71/133 139/131/133
f 54/72/134 130/77/134 135/137/134
f 130/77/135 134/137/135 135/137/135
f 131/134/136 133/78/136 134/137/136
f 54/72/137 138/135/137 34/71/137
f 138/135/138 134/137/138 137/136/138
f 137/136/139 133/78/139 136/71/139
f 87/1/140 48/97/140 13/2/140
f 88/4/141 89/138/141 60/5/141
f 79/7/142 29/52/142 14/8/142
f 25/10/143 91/37/143 61/11/143
f 69/13/144 45/43/144 4/14/144
f 49/16/145 10/19/145 74/17/145
f 10/19/146 15/103/146 77/20/146
f 4/14/147 12/139/147 62/21/147
f 62/21/148 12/139/148 2/22/148
f 77/20/149 15/103/149 6/24/149
f 19/26/150 31/30/150 16/27/150
f 22/29/151 8/109/151 16/27/151
f 52/31/152 40/79/152 3/32/152
f 52/31/153 11/33/153 1/34/153
f 33/36/154 90/39/154 91/37/154
f 33/36/155 20/45/155 89/38/155
f 55/40/156 37/69/156 2/41/156
f 55/40/157 12/42/157 4/14/157
f 32/44/158 21/102/158 20/45/158
f 18/48/20 81/55/20 78/46/20
f 78/46/20 23/112/20 30/47/20
f 32/44/159 33/36/159 25/10/159
f 30/47/160 23/112/160 22/29/160
f 30/47/161 31/30/161 19/26/161
f 24/49/162 25/10/162 64/12/162
f 78/46/163 28/100/163 29/52/163
f 13/2/164 27/54/164 80/53/164
f 27/54/165 26/99/165 81/55/165
f 60/5/166 89/138/166 20/56/166
f 65/57/167 20/56/167 21/58/167
f 108/60/168 95/117/168 98/61/168
f 92/62/169 57/68/169 56/63/169
f 56/63/170 55/40/170 45/43/170
f 103/65/91 102/120/91 99/66/91
f 88/67/171 38/140/171 56/63/171
f 56/63/172 38/140/172 37/69/172
f 16/27/173 122/76/173 118/70/173
f 136/71/174 133/78/174 125/72/174
f 123/73/175 52/31/175 36/35/175
f 16/27/176 8/109/176 121/75/176
f 132/77/177 129/130/177 125/72/177
f 123/73/178 120/108/178 40/79/178
f 14/8/179 51/81/179 82/80/179
f 51/81/180 50/83/180 83/82/180
f 50/83/181 49/16/181 84/18/181
f 61/11/182 91/37/182 92/62/182
f 67/84/183 92/62/183 44/64/183
f 68/85/184 44/64/184 45/43/184
f 2/86/185 37/89/185 70/87/185
f 37/89/186 38/91/186 71/90/186
f 38/91/187 88/4/187 72/6/187
f 73/92/188 6/98/188 46/93/188
f 85/94/189 46/93/189 47/95/189
f 86/96/190 47/95/190 48/97/190
f 71/90/191 72/6/191 48/97/191
f 70/87/192 71/90/192 47/95/192
f 58/88/193 70/87/193 46/93/193
f 50/83/194 68/85/194 69/13/194
f 51/81/195 67/84/195 68/85/195
f 14/8/196 61/11/196 67/84/196
f 27/54/197 65/57/197 66/59/197
f 13/2/198 60/5/198 65/57/198
f 63/51/199 64/12/199 29/52/199
f 21/102/20 32/44/20 24/49/20
f 24/49/20 63/51/20 66/101/20
f 62/21/200 58/23/200 6/24/200
f 10/19/201 59/15/201 62/21/201
f 49/16/202 69/13/202 59/15/202
f 64/12/203 61/11/203 14/8/203
f 72/6/204 60/5/204 13/2/204
f 119/104/205 86/96/205 87/1/205
f 36/106/206 85/94/206 86/96/206
f 1/107/207 73/92/207 85/94/207
f 83/82/208 84/18/208 40/79/208
f 82/80/209 83/82/209 120/108/209
f 76/9/210 82/80/210 121/75/210
f 80/53/211 81/55/211 18/48/211
f 75/3/212 80/53/212 19/110/212
f 23/112/213 78/46/213 79/7/213
f 26/99/20 66/101/20 63/51/20
f 63/51/20 28/100/20 78/46/20
f 78/46/20 81/55/20 26/99/20
f 77/20/214 73/25/214 1/113/214
f 3/32/215 74/17/215 77/20/215
f 84/18/216 74/17/216 3/32/216
f 22/29/217 79/7/217 76/9/217
f 118/105/218 87/1/218 75/3/218
f 39/115/219 7/116/219 89/38/219
f 7/116/220 17/117/220 90/39/220
f 9/61/221 91/37/221 90/39/221
f 43/66/222 92/62/222 91/37/222
f 43/66/223 93/65/223 57/68/223
f 39/115/224 88/67/224 57/68/224
f 98/61/225 95/117/225 94/65/225
f 97/116/226 96/115/226 94/65/226
f 114/118/227 96/115/227 97/116/227
f 103/65/228 94/65/228 96/115/228
f 102/120/229 109/61/229 98/61/229
f 108/60/230 115/119/230 97/116/230
f 17/117/231 7/116/231 117/116/231
f 106/117/232 117/116/232 116/121/232
f 107/60/233 116/121/233 115/119/233
f 43/66/234 9/61/234 111/61/234
f 100/66/235 111/61/235 110/122/235
f 101/66/236 110/122/236 109/61/236
f 93/65/106 105/126/106 112/123/106
f 112/123/101 105/126/101 104/124/101
f 113/125/102 104/124/102 103/65/102
f 39/115/237 112/123/237 117/116/237
f 112/123/238 113/125/238 116/121/238
f 113/125/239 114/118/239 115/119/239
f 93/65/240 43/66/240 100/66/240
f 105/126/101 100/66/101 101/66/101
f 104/124/102 101/66/102 102/120/102
f 17/117/241 106/117/241 111/61/241
f 106/117/242 107/60/242 110/122/242
f 107/60/243 108/60/243 109/61/243
f 35/127/244 119/74/244 118/70/244
f 41/128/245 42/130/245 121/75/245
f 34/71/246 118/70/246 122/76/246
f 53/129/247 123/73/247 119/74/247
f 42/130/248 54/72/248 122/76/248
f 53/129/249 41/128/249 120/108/249
f 125/72/250 124/129/250 127/127/250
f 125/72/116 129/130/116 128/128/116
f 139/131/251 136/71/251 126/71/251
f 145/128/252 144/132/252 124/129/252
f 139/131/253 127/127/253 124/129/253
f 145/128/254 128/128/254 129/130/254
f 41/128/255 147/133/255 130/77/255
f 147/133/256 146/133/256 131/134/256
f 146/133/257 145/128/257 132/77/257
f 53/129/258 35/127/258 141/127/258
f 142/132/259 141/127/259 140/127/259
f 143/132/260 140/127/260 139/131/260
f 53/129/261 142/132/261 147/133/261
f 142/132/262 143/132/262 146/133/262
f 143/132/263 144/132/263 145/128/263
f 35/127/264 34/71/264 138/135/264
f 141/127/265 138/135/265 137/136/265
f 140/127/266 137/136/266 136/71/266
f 54/72/267 42/130/267 130/77/267
f 130/77/268 131/134/268 134/137/268
f 131/134/269 132/77/269 133/78/269
f 54/72/270 135/137/270 138/135/270
f 138/135/271 135/137/271 134/137/271
f 137/136/272 134/137/272 133/78/272
o teal
v 0.230123 -0.885508 -5.195515
v 0.230123 0.725142 -5.152764
v 0.155282 -0.674780 -4.179387
v 0.155282 0.742295 -4.168355
v -0.230123 -0.885508 -5.195514
v -0.230123 0.759503 -5.157777
v -0.155282 -0.674780 -4.179387
v -0.155282 0.742295 -4.168355
v 0.000000 -0.860322 -4.158723
v 0.000000 1.004778 -4.150714
v 0.000071 -1.058696 -5.421444
v -0.000000 0.970831 -5.426416
v 0.230123 -0.559699 -4.973433
v 0.230123 -0.204984 -4.858947
v 0.230123 0.319330 -4.995069
v 0.155282 0.308742 -4.168355
v 0.155282 -0.204984 -4.168355
v 0.155282 -0.559699 -4.168355
v -0.155282 0.308742 -4.168355
v -0.155282 -0.204984 -4.168355
v -0.155282 -0.559699 -4.168355
v -0.230123 0.318135 -4.986265
v -0.230123 -0.204984 -4.838217
v -0.230123 -0.559699 -4.973433
v -0.000000 0.319330 -5.138098
v -0.000000 -0.204984 -5.001976
v -0.000000 -0.559699 -5.128994
v 0.000000 0.559869 -4.150714
v 0.000000 -0.204984 -4.150714
v 0.000000 -0.559699 -4.150714
v 0.230123 -1.000000 -4.469028
v 0.230123 -1.000000 -4.758668
v 0.230123 -1.000000 -5.048309
v 0.230123 1.202379 -4.910421
v 0.230123 1.202379 -4.663066
v 0.230123 1.202379 -4.415710
v -0.230123 -1.000000 -5.048308
v -0.230123 -1.000000 -4.758668
v -0.230123 -1.000000 -4.469028
v -0.230123 1.202379 -4.415710
v -0.230123 1.202379 -4.663066
v -0.230123 1.202379 -4.910421
v 0.000000 1.591370 -4.476888
v -0.000000 1.591370 -4.803061
v -0.000000 1.591370 -5.129233
v 0.000000 -1.274967 -4.540811
v -0.000000 -1.274967 -4.922898
v -0.000000 -1.274967 -5.304986
v -0.230123 -0.559699 -4.369624
v -0.230123 -0.559699 -4.570894
v -0.230123 -0.559699 -4.772163
v -0.230123 -0.204984 -4.335820
v -0.230123 -0.204984 -4.503286
v -0.230123 -0.204984 -4.670752
v -0.230123 0.559869 -4.372832
v -0.230123 0.559869 -4.577310
v -0.230123 0.559869 -4.781787
v 0.230123 -0.559699 -4.772163
v 0.230123 -0.559699 -4.570894
v 0.230123 -0.559699 -4.369624
v 0.230123 -0.204984 -4.670752
v 0.230123 -0.204984 -4.503286
v 0.230123 -0.204984 -4.335820
v 0.230123 0.559869 -4.781787
v 0.230123 0.559869 -4.577310
v 0.230123 0.559869 -4.372832
vn 0.9391 -0.0000 0.3437
vn -0.1129 -0.0000 0.9936
vn -1.0000 -0.0000 -0.0000
vn 0.5013 -0.3134 -0.8065
vn -0.7736 -0.3002 -0.5580
vn 0.8377 0.2359 -0.4926
vn -0.8558 0.2522 -0.4516
vn 0.8521 -0.4132 -0.3213
vn -0.5227 -0.3088 -0.7946
vn 0.1129 -0.0000 0.9936
vn 0.1627 -0.0263 0.9863
vn -0.4227 0.4582 -0.7819
vn -0.5369 0.2844 -0.7943
vn -0.5650 -0.2247 -0.7939
vn 0.4228 0.4583 -0.7818
vn 0.5369 0.2844 -0.7943
vn 0.5155 -0.2153 -0.8294
vn -0.1627 -0.0263 0.9863
vn 0.9424 -0.0736 0.3262
vn 0.9368 -0.0332 0.3483
vn 0.9130 -0.0000 0.4080
vn 1.0000 -0.0000 -0.0000
vn -0.9130 -0.0000 0.4080
vn -0.9368 -0.0332 0.3483
vn -0.9424 -0.0736 0.3262
vn 0.4260 -0.5451 0.7221
vn 0.7669 -0.6418 -0.0000
vn -0.5962 0.3028 0.7435
vn -0.8607 0.5092 -0.0000
vn 0.5076 0.4187 0.7530
vn 0.8607 0.5092 -0.0000
vn -0.6721 -0.5018 0.5446
vn -0.7669 -0.6418 -0.0000
vn -0.9391 -0.0000 0.3437
vn 0.9450 0.0218 0.3264
vn 0.5481 -0.3385 -0.7648
vn -0.8521 -0.4132 -0.3213
vn 0.8499 0.2386 -0.4698
vn -0.8231 0.2453 -0.5122
vn 0.7738 -0.3005 -0.5576
vn -0.5712 -0.3322 -0.7506
vn 0.1124 -0.0948 0.9891
vn -0.4877 0.4917 -0.7214
vn -0.5537 0.2966 -0.7781
vn -0.5374 -0.2119 -0.8162
vn 0.4877 0.4917 -0.7214
vn 0.5091 0.2644 -0.8191
vn -0.1124 -0.0948 0.9891
vn 0.9368 -0.0334 0.3483
vn 0.9318 0.0175 0.3626
vn -0.9318 0.0175 0.3626
vn -0.9368 -0.0334 0.3483
vn 0.6721 -0.5018 0.5446
vn -0.5076 0.4187 0.7530
vn 0.5962 0.3028 0.7435
vn -0.4260 -0.5451 0.7221
vn -0.9450 0.0218 0.3264
vt 0.562500 0.187500
vt 0.625000 0.250000
vt 0.562500 0.250000
vt 0.562500 0.375000
vt 0.625000 0.500000
vt 0.562500 0.500000
vt 0.562500 0.687500
vt 0.625000 0.750000
vt 0.562500 0.750000
vt 0.562500 0.875000
vt 0.625000 1.000000
vt 0.562500 1.000000
vt 0.250000 0.687500
vt 0.375000 0.750000
vt 0.250000 0.750000
vt 0.750000 0.687500
vt 0.875000 0.750000
vt 0.750000 0.750000
vt 0.625000 0.687500
vt 0.125000 0.750000
vt 0.125000 0.687500
vt 0.375000 0.250000
vt 0.437500 0.375000
vt 0.375000 0.375000
vt 0.500000 0.250000
vt 0.437500 0.250000
vt 0.500000 0.375000
vt 0.437500 0.875000
vt 0.375000 0.875000
vt 0.437500 0.750000
vt 0.500000 0.875000
vt 0.500000 0.750000
vt 0.375000 1.000000
vt 0.437500 1.000000
vt 0.500000 1.000000
vt 0.375000 0.687500
vt 0.437500 0.687500
vt 0.500000 0.687500
vt 0.375000 0.500000
vt 0.437500 0.500000
vt 0.500000 0.500000
vt 0.437500 0.187500
vt 0.375000 0.187500
vt 0.500000 0.187500
vt 0.500000 0.000000
vt 0.562500 0.062500
vt 0.500000 0.062500
vt 0.562500 0.125000
vt 0.500000 0.125000
vt 0.437500 0.062500
vt 0.437500 0.000000
vt 0.437500 0.125000
vt 0.375000 0.062500
vt 0.375000 0.000000
vt 0.375000 0.125000
vt 0.500000 0.562500
vt 0.562500 0.562500
vt 0.500000 0.625000
vt 0.562500 0.625000
vt 0.437500 0.562500
vt 0.437500 0.625000
vt 0.375000 0.562500
vt 0.375000 0.625000
vt 0.125000 0.500000
vt 0.250000 0.562500
vt 0.125000 0.562500
vt 0.125000 0.625000
vt 0.250000 0.625000
vt 0.750000 0.500000
vt 0.625000 0.562500
vt 0.750000 0.562500
vt 0.625000 0.625000
vt 0.750000 0.625000
vt 0.875000 0.562500
vt 0.875000 0.625000
vt 0.875000 0.687500
vt 0.250000 0.500000
vt 0.625000 0.000000
vt 0.562500 0.000000
vt 0.625000 0.125000
vt 0.625000 0.187500
vt 0.625000 0.375000
vt 0.625000 0.875000
vt 0.875000 0.500000
vt 0.625000 0.062500
s 0
f 213/141/273 151/142/273 163/143/273
f 175/144/274 155/145/274 166/146/274
f 204/147/275 153/148/275 169/149/275
f 172/150/276 149/151/276 162/152/276
f 195/153/277 152/154/277 158/155/277
f 192/156/278 149/157/278 159/158/278
f 192/156/279 153/148/279 189/159/279
f 195/153/280 148/160/280 180/161/280
f 153/148/281 172/150/281 169/149/281
f 151/142/282 175/144/282 163/143/282
f 150/162/283 177/163/283 156/164/283
f 164/165/282 177/163/282 165/166/282
f 163/143/282 176/167/282 164/165/282
f 152/154/284 174/168/284 158/169/284
f 171/170/285 173/171/285 174/168/285
f 169/149/286 173/171/286 170/172/286
f 174/168/287 148/173/287 158/169/287
f 173/171/288 160/174/288 174/168/288
f 173/171/289 162/152/289 161/175/289
f 184/176/275 171/170/275 152/154/275
f 198/177/275 170/172/275 171/170/275
f 204/147/275 170/172/275 201/178/275
f 177/163/290 154/179/290 156/164/290
f 176/167/274 168/180/274 177/163/274
f 176/167/274 166/146/274 167/181/274
f 207/182/291 150/162/291 178/183/291
f 210/184/292 165/166/292 207/182/292
f 210/184/293 163/143/293 164/165/293
f 161/185/294 211/186/294 208/187/294
f 208/187/294 212/188/294 209/189/294
f 209/189/294 213/141/294 210/184/294
f 161/185/294 205/190/294 160/191/294
f 208/187/294 206/192/294 205/190/294
f 209/189/294 207/182/294 206/192/294
f 160/191/294 180/193/294 148/194/294
f 205/190/294 179/195/294 180/193/294
f 206/192/294 178/183/294 179/195/294
f 166/146/295 199/196/295 167/181/295
f 202/197/275 200/198/275 199/196/275
f 203/199/275 201/178/275 200/198/275
f 168/180/296 199/196/296 196/200/296
f 196/200/275 200/198/275 197/201/275
f 197/201/275 201/178/275 198/177/275
f 154/179/297 196/200/297 186/202/297
f 186/202/275 197/201/275 185/203/275
f 185/203/275 198/177/275 184/176/275
f 150/204/298 193/205/298 178/206/298
f 193/205/299 179/207/299 178/206/299
f 194/208/299 180/161/299 179/207/299
f 157/209/300 187/210/300 155/145/300
f 190/211/301 188/212/301 187/210/301
f 191/213/301 189/159/301 188/212/301
f 157/209/302 183/214/302 190/211/302
f 190/211/303 182/215/303 191/213/303
f 191/213/303 181/216/303 192/156/303
f 154/179/304 193/205/304 156/217/304
f 193/205/305 185/203/305 194/208/305
f 194/208/305 184/176/305 195/153/305
f 155/145/306 202/197/306 166/146/306
f 187/210/275 203/199/275 202/197/275
f 188/212/275 204/147/275 203/199/275
f 149/218/294 211/186/294 162/219/294
f 211/186/294 182/220/294 212/188/294
f 212/188/294 183/221/294 213/141/294
f 213/141/307 183/221/307 151/142/307
f 175/144/274 157/222/274 155/145/274
f 204/147/275 189/159/275 153/148/275
f 172/150/308 159/223/308 149/151/308
f 195/153/309 184/176/309 152/154/309
f 192/156/310 181/216/310 149/157/310
f 192/156/311 159/158/311 153/148/311
f 195/153/312 158/155/312 148/160/312
f 153/148/313 159/223/313 172/150/313
f 151/142/282 157/222/282 175/144/282
f 150/162/314 165/166/314 177/163/314
f 164/165/282 176/167/282 177/163/282
f 163/143/282 175/144/282 176/167/282
f 152/154/315 171/170/315 174/168/315
f 171/170/316 170/172/316 173/171/316
f 169/149/317 172/150/317 173/171/317
f 174/168/318 160/174/318 148/173/318
f 173/171/319 161/175/319 160/174/319
f 173/171/289 172/150/289 162/152/289
f 184/176/275 198/177/275 171/170/275
f 198/177/275 201/178/275 170/172/275
f 204/147/275 169/149/275 170/172/275
f 177/163/320 168/180/320 154/179/320
f 176/167/274 167/181/274 168/180/274
f 176/167/274 175/144/274 166/146/274
f 207/182/321 165/166/321 150/162/321
f 210/184/293 164/165/293 165/166/293
f 210/184/322 213/141/322 163/143/322
f 161/185/294 162/219/294 211/186/294
f 208/187/294 211/186/294 212/188/294
f 209/189/294 212/188/294 213/141/294
f 161/185/294 208/187/294 205/190/294
f 208/187/294 209/189/294 206/192/294
f 209/189/294 210/184/294 207/182/294
f 160/191/294 205/190/294 180/193/294
f 205/190/294 206/192/294 179/195/294
f 206/192/294 207/182/294 178/183/294
f 166/146/323 202/197/323 199/196/323
f 202/197/275 203/199/275 200/198/275
f 203/199/275 204/147/275 201/178/275
f 168/180/295 167/181/295 199/196/295
f 196/200/275 199/196/275 200/198/275
f 197/201/275 200/198/275 201/178/275
f 154/179/324 168/180/324 196/200/324
f 186/202/275 196/200/275 197/201/275
f 185/203/275 197/201/275 198/177/275
f 150/204/325 156/217/325 193/205/325
f 193/205/299 194/208/299 179/207/299
f 194/208/299 195/153/299 180/161/299
f 157/209/326 190/211/326 187/210/326
f 190/211/301 191/213/301 188/212/301
f 191/213/301 192/156/301 189/159/301
f 157/209/327 151/224/327 183/214/327
f 190/211/303 183/214/303 182/215/303
f 191/213/303 182/215/303 181/216/303
f 154/179/328 186/202/328 193/205/328
f 193/205/305 186/202/305 185/203/305
f 194/208/305 185/203/305 184/176/305
f 155/145/329 187/210/329 202/197/329
f 187/210/275 188/212/275 203/199/275
f 188/212/275 189/159/275 204/147/275
f 149/218/294 181/225/294 211/186/294
f 211/186/294 181/225/294 182/220/294
f 212/188/294 182/220/294 183/221/294
o head
v 0.620812 -0.902003 2.108805
v 0.620812 0.902003 2.108805
v 0.400626 -0.907305 3.513721
v 0.406957 0.771569 3.510430
v -0.620812 -0.902003 2.108805
v -0.620812 0.902003 2.108805
v -0.400626 -0.907305 3.513721
v -0.406957 0.771569 3.510430
v 0.793086 -0.334464 2.108805
v 0.793086 0.000000 2.108805
v 0.793086 0.334464 2.108805
v 0.403609 -0.159684 3.545238
v 0.400626 -0.222192 3.513721
v 0.400626 -0.296888 3.513721
v -0.403610 -0.159684 3.545238
v -0.400626 -0.222192 3.513721
v -0.400626 -0.296888 3.513721
v -0.793086 0.334464 2.108805
v -0.793086 0.000000 2.108805
v -0.793086 -0.334464 2.108805
v 0.235702 -0.018626 4.918409
v 0.235702 -0.398155 4.918409
v -0.235702 -0.398155 4.918409
v 0.397643 0.864613 5.249570
v -0.397643 0.864613 5.249570
v -0.235702 -0.018626 4.918409
v 0.394296 0.514650 5.260056
v -0.394295 0.514650 5.260056
v -0.000000 -1.062443 3.523865
v -0.000000 0.909631 3.523865
v -0.000000 -1.392361 2.112381
v -0.000000 1.332789 2.112381
v -0.000000 -0.416662 2.112381
v -0.000000 -0.029786 2.112381
v -0.000000 0.357090 2.112381
v -0.000000 -0.325716 3.715774
v -0.000000 -0.222192 3.714587
v -0.000000 -0.159684 3.716903
v 0.000000 -0.359882 5.148225
v 0.000000 0.919298 5.508032
v 0.000000 0.061197 5.149505
v 0.000000 0.390906 5.510348
v 0.449255 -0.707592 3.367203
v 0.449255 0.597891 3.367203
v -0.449255 -0.707592 3.367203
v -0.449255 0.597891 3.367203
v -0.573923 -0.296888 3.367203
v -0.573923 -0.054851 3.367203
v -0.573923 0.187187 3.367203
v 0.573922 -0.296888 3.367203
v 0.573922 -0.054851 3.367203
v 0.573922 0.187187 3.367203
v -0.000000 0.909631 3.367203
v -0.000000 -1.062443 3.367203
v -0.402300 1.045174 4.580605
v 0.402300 1.045174 4.580605
v 0.398953 0.670641 4.580605
v -0.398952 0.670641 4.580605
v 0.000000 0.552471 4.580605
v 0.000000 1.214717 4.580605
v 0.404628 0.931930 4.084239
v -0.401281 0.251294 3.881760
v -0.404628 0.931930 4.084239
v 0.401281 0.251294 3.881760
v 0.000000 0.113290 3.881760
v 0.000000 1.085733 4.084239
v -0.399971 0.956606 4.939373
v 0.396624 0.582073 4.939373
v 0.000000 0.483737 4.939373
v 0.000000 1.141890 4.939373
v 0.399972 0.956606 4.939373
v -0.396624 0.582073 4.939373
v 0.235702 -0.214582 4.277516
v 0.235702 -0.594110 4.277516
v -0.235702 -0.214582 4.277516
v -0.235702 -0.594110 4.277516
v 0.000000 -0.672140 4.277516
v 0.000000 -0.232569 4.277516
v 0.235702 -0.155784 4.636372
v -0.235702 -0.155784 4.636372
v -0.235702 -0.535313 4.636372
v 0.000000 -0.604128 4.636372
v 0.000000 -0.173804 4.636372
v 0.235702 -0.535313 4.636372
v 0.235702 -0.652908 3.918660
v 0.235702 -0.273379 3.918660
v -0.235702 -0.273379 3.918660
v -0.235702 -0.652908 3.918660
v 0.000000 -0.740152 3.918660
v 0.000000 -0.291335 3.918660
v 0.542086 -0.788248 2.889151
v -0.542086 0.786989 2.889152
v -0.692514 -0.292680 2.889152
v -0.692514 -0.000630 2.889152
v -0.692514 0.291421 2.889152
v -0.000000 1.163146 2.890713
v -0.000000 -1.216423 2.890713
v 0.542086 0.786989 2.889151
v -0.542086 -0.788248 2.889152
v 0.692513 -0.292680 2.889151
v 0.692513 -0.000630 2.889151
v 0.692513 0.291421 2.889151
vn 0.5354 0.1625 0.8288
vn 1.0000 -0.0000 -0.0000
vn -0.9477 0.2877 0.1380
vn -0.0045 -0.0014 -1.0000
vn -0.6109 -0.7722 0.1746
vn 0.5619 0.8083 0.1762
vn -0.0058 -0.0000 -1.0000
vn -0.0045 -0.0000 -1.0000
vn -0.9478 -0.2877 0.1376
vn -0.9918 -0.0000 0.1278
vn -0.3429 0.8748 0.3424
vn -0.4497 0.0102 0.8931
vn -0.4053 -0.4269 0.8084
vn 0.9491 -0.0000 0.3150
vn 0.6456 -0.0000 0.7636
vn 0.7716 -0.3154 0.5524
vn -0.5351 0.0037 0.8448
vn -0.6981 -0.0000 0.7160
vn 0.2035 -0.9664 -0.1571
vn 0.0998 0.9046 -0.4143
vn -1.0000 -0.0000 -0.0000
vn 0.9999 -0.0094 0.0053
vn 0.2637 -0.8706 0.4154
vn -0.9999 -0.0089 0.0049
vn -0.2540 -0.8698 0.4230
vn -0.0686 0.8972 -0.4363
vn -0.2359 -0.9513 -0.1983
vn 0.6981 -0.0000 0.7160
vn 0.5351 0.0037 0.8448
vn 0.4053 -0.4269 0.8084
vn 0.4497 0.0102 0.8931
vn 0.4056 0.8755 0.2627
vn 0.0045 -0.0000 -1.0000
vn 0.0058 -0.0000 -1.0000
vn -0.5616 0.8085 0.1758
vn 0.6107 -0.7725 0.1742
vn 0.0045 -0.0014 -1.0000
vn 0.4690 -0.5938 -0.6537
vn -0.4391 0.6328 -0.6377
vn 0.9706 -0.0000 0.2408
vn 0.9315 -0.2828 0.2286
vn -0.7716 -0.3154 0.5524
vn -0.6456 -0.0000 0.7636
vn -0.9491 -0.0000 0.3150
vn 0.3213 0.9470 -0.0000
vn -0.3611 -0.9325 -0.0000
vn -0.5354 0.1625 0.8288
vn 0.9164 0.2782 0.2880
vn 0.3476 0.9145 -0.2070
vn -0.2461 -0.8307 0.4993
vn -0.9999 -0.0089 0.0067
vn 0.9999 -0.0072 0.0076
vn 0.2796 -0.8129 0.5109
vn -0.3777 0.8962 -0.2329
vn -0.3409 0.8969 -0.2818
vn 0.3421 -0.4858 0.8044
vn 0.9999 -0.0032 0.0108
vn -1.0000 -0.0067 0.0059
vn -0.2126 -0.6183 0.7566
vn 0.3030 0.9181 -0.2554
vn 0.4099 0.8849 0.2211
vn -0.2765 -0.9334 -0.2286
vn -1.0000 -0.0089 0.0043
vn 1.0000 -0.0089 0.0043
vn 0.2366 -0.9543 -0.1828
vn -0.3817 0.9058 0.1839
vn -0.0751 0.9841 -0.1612
vn -0.3105 -0.9381 0.1537
vn 0.3418 -0.9233 0.1750
vn 0.0750 0.9841 -0.1612
vn -0.0752 0.9840 -0.1612
vn -0.2769 -0.9483 0.1554
vn 0.3093 -0.9343 0.1771
vn 0.0751 0.9841 -0.1611
vn 0.9261 -0.0000 0.3772
vn 0.0749 0.9832 -0.1666
vn -0.9261 -0.0000 0.3772
vn 0.3013 -0.7387 0.6030
vn -0.2803 -0.7573 0.5899
vn -0.1256 0.9861 -0.1084
vn 0.9477 0.2877 0.1380
vn 0.9478 -0.2877 0.1376
vn 0.9918 -0.0000 0.1278
vn 0.6009 -0.7608 0.2451
vn -0.5226 0.7532 0.3994
vn -0.9706 -0.0000 0.2408
vn -0.9315 -0.2828 0.2286
vn 0.5232 0.7523 0.4003
vn -0.6013 -0.7603 0.2457
vn -0.9164 0.2782 0.2880
vn 0.9613 0.0068 0.2756
vn -0.6107 -0.7725 0.1742
vn 0.5616 0.8085 0.1758
vn -0.0047 0.0014 -1.0000
vn -0.4056 0.8755 0.2627
vn -0.4482 -0.0000 0.8939
vn -0.3912 -0.0341 0.9197
vn 0.6336 -0.1923 0.7494
vn 0.7226 -0.0000 0.6913
vn -0.5468 0.0198 0.8370
vn -0.6997 -0.0022 0.7144
vn 0.2359 -0.9513 -0.1983
vn 0.0686 0.8972 -0.4363
vn 0.9999 -0.0089 0.0049
vn 0.2540 -0.8698 0.4230
vn -0.9999 -0.0094 0.0053
vn -0.2637 -0.8706 0.4154
vn -0.0998 0.9046 -0.4143
vn -0.2035 -0.9664 -0.1571
vn 0.6997 -0.0022 0.7144
vn 0.5468 0.0198 0.8370
vn 0.3912 -0.0341 0.9197
vn 0.4482 -0.0000 0.8939
vn 0.3429 0.8748 0.3424
vn 0.0047 0.0014 -1.0000
vn -0.5619 0.8083 0.1762
vn 0.6109 -0.7722 0.1746
vn 0.3611 -0.9325 -0.0000
vn -0.3213 0.9470 -0.0000
vn -0.7226 -0.0000 0.6913
vn -0.6336 -0.1923 0.7494
vn 0.4391 0.6328 -0.6377
vn -0.4690 -0.5938 -0.6537
vn -0.9613 0.0068 0.2756
vn 0.3777 0.8962 -0.2329
vn -0.2796 -0.8129 0.5109
vn -0.9999 -0.0072 0.0076
vn 0.9999 -0.0089 0.0067
vn 0.2461 -0.8307 0.4993
vn -0.3476 0.9145 -0.2070
vn -0.3030 0.9181 -0.2554
vn 0.2126 -0.6183 0.7566
vn 1.0000 -0.0067 0.0059
vn -0.9999 -0.0032 0.0108
vn -0.3421 -0.4858 0.8044
vn 0.3409 0.8969 -0.2818
vn 0.3817 0.9058 0.1839
vn -0.2366 -0.9543 -0.1828
vn 0.2765 -0.9334 -0.2286
vn -0.4099 0.8849 0.2211
vn -0.0750 0.9841 -0.1612
vn -0.3418 -0.9233 0.1750
vn 0.3105 -0.9381 0.1537
vn 0.0751 0.9841 -0.1612
vn -0.0751 0.9841 -0.1611
vn -0.3093 -0.9343 0.1771
vn 0.2769 -0.9483 0.1554
vn 0.0752 0.9840 -0.1612
vn 0.1256 0.9861 -0.1084
vn 0.2803 -0.7573 0.5899
vn -0.3013 -0.7387 0.6030
vn -0.0749 0.9832 -0.1666
vn 0.6013 -0.7603 0.2457
vn -0.5232 0.7523 0.4003
vn 0.5226 0.7532 0.3994
vn -0.6009 -0.7608 0.2451
vt 0.625000 0.125000
vt 0.562500 0.250000
vt 0.562500 0.125000
vt 0.437500 0.250000
vt 0.375000 0.250000
vt 0.375000 0.250000
vt 0.625000 0.687500
vt 0.562500 0.750000
vt 0.562500 0.687500
vt 0.562500 0.875000
vt 0.625000 1.000000
vt 0.562500 1.000000
vt 0.250000 0.687500
vt 0.375000 0.750000
vt 0.250000 0.750000
vt 0.750000 0.687500
vt 0.875000 0.750000
vt 0.750000 0.750000
vt 0.437500 0.875000
vt 0.375000 1.000000
vt 0.375000 0.875000
vt 0.500000 0.875000
vt 0.437500 1.000000
vt 0.500000 1.000000
vt 0.375000 0.687500
vt 0.437500 0.750000
vt 0.437500 0.687500
vt 0.500000 0.750000
vt 0.500000 0.687500
vt 0.750000 0.500000
vt 0.625000 0.500000
vt 0.750000 0.500000
vt 0.500000 0.375000
vt 0.437500 0.500000
vt 0.437500 0.375000
vt 0.562500 0.500000
vt 0.500000 0.500000
vt 0.375000 0.125000
vt 0.437500 0.125000
vt 0.500000 0.250000
vt 0.500000 0.125000
vt 0.625000 0.375000
vt 0.562500 0.375000
vt 0.375000 0.375000
vt 0.375000 0.500000
vt 0.437500 0.375000
vt 0.437500 0.500000
vt 0.625000 0.250000
vt 0.250000 0.500000
vt 0.125000 0.500000
vt 0.250000 0.500000
vt 0.562500 0.500000
vt 0.625000 0.500000
vt 0.375000 0.500000
vt 0.875000 0.500000
vt 0.625000 0.750000
vt 0.125000 0.750000
vt 0.125000 0.687500
vt 0.250000 0.625000
vt 0.125000 0.625000
vt 0.750000 0.625000
vt 0.625000 0.625000
vt 0.500000 0.062500
vt 0.437500 0.062500
vt 0.375000 0.062500
vt 0.500000 0.625000
vt 0.437500 0.625000
vt 0.375000 0.625000
vt 0.562500 0.625000
vt 0.562500 0.062500
vt 0.750000 0.500000
vt 0.875000 0.500000
vt 0.562500 0.375000
vt 0.625000 0.500000
vt 0.562500 0.250000
vt 0.562500 0.375000
vt 0.750000 0.500000
vt 0.625000 0.250000
vt 0.437500 0.375000
vt 0.437500 0.250000
vt 0.375000 0.500000
vt 0.250000 0.500000
vt 0.375000 0.500000
vt 0.437500 0.500000
vt 0.562500 0.000000
vt 0.625000 0.062500
vt 0.437500 0.000000
vt 0.375000 0.000000
vt 0.500000 0.000000
vt 0.875000 0.687500
vt 0.625000 0.875000
vt 0.875000 0.625000
vt 0.625000 0.000000
s 0
f 257/226/330 225/227/330 265/228/330
f 292/229/331 235/230/331 297/231/331
f 305/232/332 231/233/332 308/234/332
f 248/235/333 215/236/333 224/237/333
f 310/238/334 218/239/334 244/240/334
f 309/241/335 215/242/335 245/243/335
f 246/244/336 214/245/336 244/246/336
f 247/247/337 222/248/337 246/244/337
f 248/235/337 223/249/337 247/247/337
f 312/250/338 233/251/338 218/239/338
f 306/252/339 232/253/339 233/251/339
f 308/234/339 232/253/339 307/254/339
f 283/255/340 238/256/340 253/257/340
f 250/258/341 230/259/341 249/260/341
f 250/258/342 228/261/342 229/262/342
f 256/263/343 227/229/343 216/230/343
f 263/264/344 226/265/344 227/229/344
f 264/266/345 225/227/345 226/265/345
f 253/267/346 241/261/346 255/268/346
f 252/269/347 239/259/347 236/270/347
f 282/268/348 240/227/348 255/268/348
f 296/271/349 239/259/349 254/260/349
f 293/272/350 236/270/350 239/259/350
f 281/227/351 237/273/351 240/227/351
f 295/274/352 235/275/352 252/276/352
f 285/277/353 238/256/353 280/278/353
f 295/274/354 236/270/354 294/279/354
f 296/271/355 234/229/355 292/229/355
f 282/268/356 241/261/356 285/277/356
f 234/229/357 252/269/357 235/230/357
f 240/227/358 253/267/358 255/268/358
f 225/227/359 250/258/359 226/265/359
f 227/229/360 250/258/360 249/260/360
f 283/255/361 237/280/361 284/280/361
f 232/253/362 248/235/362 247/247/362
f 233/251/362 247/247/362 246/244/362
f 218/239/363 246/244/363 244/246/363
f 309/241/364 219/281/364 305/232/364
f 310/238/365 214/282/365 304/283/365
f 219/281/366 248/235/366 231/233/366
f 216/275/367 267/284/367 256/285/367
f 221/256/368 266/286/368 259/287/368
f 314/288/369 265/228/369 264/266/369
f 313/289/369 264/266/369 263/264/369
f 313/289/370 256/263/370 304/290/370
f 228/261/371 261/291/371 229/262/371
f 229/262/372 260/292/372 230/259/372
f 230/259/373 258/293/373 220/270/373
f 217/280/374 266/286/374 243/257/374
f 220/270/375 267/284/375 242/276/375
f 228/261/376 259/287/376 262/294/376
f 315/295/377 257/226/377 265/228/377
f 279/296/378 269/280/378 274/297/378
f 275/261/379 272/298/379 271/261/379
f 276/299/380 271/261/380 268/256/380
f 274/273/381 270/300/381 277/227/381
f 277/227/382 272/298/382 278/301/382
f 279/296/383 268/256/383 273/302/383
f 243/257/384 276/299/384 279/296/384
f 225/227/385 278/301/385 251/268/385
f 217/273/386 277/227/386 225/227/386
f 221/256/387 275/261/387 276/299/387
f 228/261/388 278/301/388 275/261/388
f 243/257/389 274/297/389 217/280/389
f 269/280/390 283/255/390 284/280/390
f 272/298/391 285/277/391 271/261/391
f 271/261/392 280/278/392 268/256/392
f 270/300/393 284/303/393 281/227/393
f 272/298/394 281/227/394 282/268/394
f 268/256/395 283/255/395 273/302/395
f 299/229/396 291/304/396 286/305/396
f 301/306/397 290/307/397 289/308/397
f 298/275/398 290/307/398 302/276/398
f 300/272/350 289/308/350 288/309/350
f 300/272/399 291/304/399 303/260/399
f 299/229/331 287/230/331 298/230/331
f 286/305/400 296/271/400 292/229/400
f 289/308/401 295/274/401 294/279/401
f 287/275/402 295/274/402 290/307/402
f 288/309/350 294/279/350 293/272/350
f 288/309/403 296/271/403 291/304/403
f 286/305/331 297/231/331 287/230/331
f 227/229/404 298/230/404 216/230/404
f 249/260/405 300/272/405 303/260/405
f 230/259/406 301/306/406 300/272/406
f 216/275/407 302/276/407 242/276/407
f 220/270/408 302/276/408 301/306/408
f 249/260/409 299/229/409 227/229/409
f 224/310/410 311/311/410 315/295/410
f 222/312/411 304/290/411 214/313/411
f 223/314/412 313/289/412 222/312/412
f 223/314/412 315/295/412 314/288/412
f 267/284/413 304/283/413 256/285/413
f 266/286/414 305/232/414 259/287/414
f 262/294/415 307/254/415 261/291/415
f 261/291/415 306/252/415 260/292/415
f 258/293/416 306/252/416 312/250/416
f 266/286/417 311/315/417 309/241/417
f 267/284/418 312/250/418 310/238/418
f 259/287/419 308/234/419 262/294/419
f 257/226/420 217/273/420 225/227/420
f 292/229/331 234/229/331 235/230/331
f 305/232/332 219/281/332 231/233/332
f 248/235/336 245/316/336 215/236/336
f 310/238/421 312/250/421 218/239/421
f 309/241/422 311/315/422 215/242/422
f 246/244/423 222/248/423 214/245/423
f 247/247/337 223/249/337 222/248/337
f 248/235/337 224/237/337 223/249/337
f 312/250/338 306/252/338 233/251/338
f 306/252/339 307/254/339 232/253/339
f 308/234/339 231/233/339 232/253/339
f 283/255/424 280/278/424 238/256/424
f 250/258/425 229/262/425 230/259/425
f 250/258/426 251/268/426 228/261/426
f 256/263/427 263/264/427 227/229/427
f 263/264/344 264/266/344 226/265/344
f 264/266/428 265/228/428 225/227/428
f 253/267/429 238/256/429 241/261/429
f 252/269/430 254/260/430 239/259/430
f 282/268/431 281/227/431 240/227/431
f 296/271/432 293/272/432 239/259/432
f 293/272/350 294/279/350 236/270/350
f 281/227/433 284/303/433 237/273/433
f 295/274/434 297/275/434 235/275/434
f 285/277/435 241/261/435 238/256/435
f 295/274/436 252/276/436 236/270/436
f 296/271/437 254/260/437 234/229/437
f 282/268/438 255/268/438 241/261/438
f 234/229/439 254/260/439 252/269/439
f 240/227/440 237/273/440 253/267/440
f 225/227/441 251/268/441 250/258/441
f 227/229/442 226/265/442 250/258/442
f 283/255/443 253/257/443 237/280/443
f 232/253/362 231/233/362 248/235/362
f 233/251/362 232/253/362 247/247/362
f 218/239/444 233/251/444 246/244/444
f 309/241/445 245/243/445 219/281/445
f 310/238/446 244/240/446 214/282/446
f 219/281/363 245/316/363 248/235/363
f 216/275/447 242/276/447 267/284/447
f 221/256/448 243/257/448 266/286/448
f 314/288/369 315/295/369 265/228/369
f 313/289/369 314/288/369 264/266/369
f 313/289/370 263/264/370 256/263/370
f 228/261/449 262/294/449 261/291/449
f 229/262/372 261/291/372 260/292/372
f 230/259/450 260/292/450 258/293/450
f 217/280/451 257/317/451 266/286/451
f 220/270/452 258/293/452 267/284/452
f 228/261/453 221/256/453 259/287/453
f 315/295/377 311/311/377 257/226/377
f 279/296/454 273/302/454 269/280/454
f 275/261/455 278/301/455 272/298/455
f 276/299/456 275/261/456 271/261/456
f 274/273/457 269/273/457 270/300/457
f 277/227/458 270/300/458 272/298/458
f 279/296/459 276/299/459 268/256/459
f 243/257/460 221/256/460 276/299/460
f 225/227/461 277/227/461 278/301/461
f 217/273/462 274/273/462 277/227/462
f 221/256/463 228/261/463 275/261/463
f 228/261/464 251/268/464 278/301/464
f 243/257/465 279/296/465 274/297/465
f 269/280/466 273/302/466 283/255/466
f 272/298/467 282/268/467 285/277/467
f 271/261/392 285/277/392 280/278/392
f 270/300/393 269/273/393 284/303/393
f 272/298/468 270/300/468 281/227/468
f 268/256/469 280/278/469 283/255/469
f 299/229/470 303/260/470 291/304/470
f 301/306/471 302/276/471 290/307/471
f 298/275/472 287/275/472 290/307/472
f 300/272/350 301/306/350 289/308/350
f 300/272/473 288/309/473 291/304/473
f 299/229/331 286/305/331 287/230/331
f 286/305/474 291/304/474 296/271/474
f 289/308/475 290/307/475 295/274/475
f 287/275/476 297/275/476 295/274/476
f 288/309/350 289/308/350 294/279/350
f 288/309/477 293/272/477 296/271/477
f 286/305/331 292/229/331 297/231/331
f 227/229/404 299/229/404 298/230/404
f 249/260/478 230/259/478 300/272/478
f 230/259/406 220/270/406 301/306/406
f 216/275/479 298/275/479 302/276/479
f 220/270/480 242/276/480 302/276/480
f 249/260/481 303/260/481 299/229/481
f 224/310/410 215/318/410 311/311/410
f 222/312/411 313/289/411 304/290/411
f 223/314/412 314/288/412 313/289/412
f 223/314/412 224/310/412 315/295/412
f 267/284/482 310/238/482 304/283/482
f 266/286/483 309/241/483 305/232/483
f 262/294/415 308/234/415 307/254/415
f 261/291/415 307/254/415 306/252/415
f 258/293/416 260/292/416 306/252/416
f 266/286/484 257/317/484 311/315/484
f 267/284/485 258/293/485 312/250/485
f 259/287/419 305/232/419 308/234/419
o 立方体
v -1.000000 -1.659302 5.209571
v -1.000000 1.659302 5.209571
v -1.000000 -1.659302 -5.209571
v -1.000000 1.659302 -5.209571
v 1.000000 -1.659302 5.209571
v 1.000000 1.659302 5.209571
v 1.000000 -1.659302 -5.209571
v 1.000000 1.659302 -5.209571
vn -1.0000 -0.0000 -0.0000
vn -0.0000 -0.0000 -1.0000
vn 1.0000 -0.0000 -0.0000
vn -0.0000 -0.0000 1.0000
vn -0.0000 -1.0000 -0.0000
vn -0.0000 1.0000 -0.0000
vt 0.625000 0.000000
vt 0.375000 0.250000
vt 0.375000 0.000000
vt 0.625000 0.250000
vt 0.375000 0.500000
vt 0.625000 0.500000
vt 0.375000 0.750000
vt 0.625000 0.750000
vt 0.375000 1.000000
vt 0.125000 0.750000
vt 0.125000 0.500000
vt 0.875000 0.500000
vt 0.625000 1.000000
vt 0.875000 0.750000
s 0
f 317/319/486 318/320/486 316/321/486
f 319/322/487 322/323/487 318/320/487
f 323/324/488 320/325/488 322/323/488
f 321/326/489 316/327/489 320/325/489
f 322/323/490 316/328/490 318/329/490
f 319/330/491 321/326/491 323/324/491
f 317/319/486 319/322/486 318/320/486
f 319/322/487 323/324/487 322/323/487
f 323/324/488 321/326/488 320/325/488
f 321/326/489 317/331/489 316/327/489
f 322/323/490 320/325/490 316/328/490
f 319/330/491 317/332/491 321/326/491
