# Blender 4.2.1 LTS
# www.blender.org
mtllib enemy_tail.mtl
o teal
v 0.230123 -0.885508 -5.195515
v 0.230123 0.725142 -5.152764
v 0.155282 -0.674780 -4.179387
v 0.155282 0.742295 -4.168355
v -0.230123 -0.885508 -5.195514
v -0.230123 0.759503 -5.157777
v -0.155282 -0.674780 -4.179387
v -0.155282 0.742295 -4.168355
v 0.000000 -0.860322 -4.158723
v 0.000000 1.004778 -4.150714
v 0.000071 -1.058696 -5.421444
v -0.000000 0.970831 -5.426416
v 0.230123 -0.559699 -4.973433
v 0.230123 -0.204984 -4.858947
v 0.230123 0.319330 -4.995069
v 0.155282 0.308742 -4.168355
v 0.155282 -0.204984 -4.168355
v 0.155282 -0.559699 -4.168355
v -0.155282 0.308742 -4.168355
v -0.155282 -0.204984 -4.168355
v -0.155282 -0.559699 -4.168355
v -0.230123 0.318135 -4.986265
v -0.230123 -0.204984 -4.838217
v -0.230123 -0.559699 -4.973433
v -0.000000 0.319330 -5.138098
v -0.000000 -0.204984 -5.001976
v -0.000000 -0.559699 -5.128994
v 0.000000 0.559869 -4.150714
v 0.000000 -0.204984 -4.150714
v 0.000000 -0.559699 -4.150714
v 0.230123 -1.000000 -4.469028
v 0.230123 -1.000000 -4.758668
v 0.230123 -1.000000 -5.048309
v 0.230123 1.202379 -4.910421
v 0.230123 1.202379 -4.663066
v 0.230123 1.202379 -4.415710
v -0.230123 -1.000000 -5.048308
v -0.230123 -1.000000 -4.758668
v -0.230123 -1.000000 -4.469028
v -0.230123 1.202379 -4.415710
v -0.230123 1.202379 -4.663066
v -0.230123 1.202379 -4.910421
v 0.000000 1.591370 -4.476888
v -0.000000 1.591370 -4.803061
v -0.000000 1.591370 -5.129233
v 0.000000 -1.274967 -4.540811
v -0.000000 -1.274967 -4.922898
v -0.000000 -1.274967 -5.304986
v -0.230123 -0.559699 -4.369624
v -0.230123 -0.559699 -4.570894
v -0.230123 -0.559699 -4.772163
v -0.230123 -0.204984 -4.335820
v -0.230123 -0.204984 -4.503286
v -0.230123 -0.204984 -4.670752
v -0.230123 0.559869 -4.372832
v -0.230123 0.559869 -4.577310
v -0.230123 0.559869 -4.781787
v 0.230123 -0.559699 -4.772163
v 0.230123 -0.559699 -4.570894
v 0.230123 -0.559699 -4.369624
v 0.230123 -0.204984 -4.670752
v 0.230123 -0.204984 -4.503286
v 0.230123 -0.204984 -4.335820
v 0.230123 0.559869 -4.781787
v 0.230123 0.559869 -4.577310
v 0.230123 0.559869 -4.372832
vn 0.9391 -0.0000 0.3437
vn -0.1129 -0.0000 0.9936
vn -1.0000 -0.0000 -0.0000
vn 0.5013 -0.3134 -0.8065
vn -0.7736 -0.3002 -0.5580
vn 0.8377 0.2359 -0.4926
vn -0.8558 0.2522 -0.4516
vn 0.8521 -0.4132 -0.3213
vn -0.5227 -0.3088 -0.7946
vn 0.1129 -0.0000 0.9936
vn 0.1627 -0.0263 0.9863
vn -0.4227 0.4582 -0.7819
vn -0.5369 0.2844 -0.7943
vn -0.5650 -0.2247 -0.7939
vn 0.4228 0.4583 -0.7818
vn 0.5369 0.2844 -0.7943
vn 0.5155 -0.2153 -0.8294
vn -0.1627 -0.0263 0.9863
vn 0.9424 -0.0736 0.3262
vn 0.9368 -0.0332 0.3483
vn 0.9130 -0.0000 0.4080
vn 1.0000 -0.0000 -0.0000
vn -0.9130 -0.0000 0.4080
vn -0.9368 -0.0332 0.3483
vn -0.9424 -0.0736 0.3262
vn 0.4260 -0.5451 0.7221
vn 0.7669 -0.6418 -0.0000
vn -0.5962 0.3028 0.7435
vn -0.8607 0.5092 -0.0000
vn 0.5076 0.4187 0.7530
vn 0.8607 0.5092 -0.0000
vn -0.6721 -0.5018 0.5446
vn -0.7669 -0.6418 -0.0000
vn -0.9391 -0.0000 0.3437
vn 0.9450 0.0218 0.3264
vn 0.5481 -0.3385 -0.7648
vn -0.8521 -0.4132 -0.3213
vn 0.8499 0.2386 -0.4698
vn -0.8231 0.2453 -0.5122
vn 0.7738 -0.3005 -0.5576
vn -0.5712 -0.3322 -0.7506
vn 0.1124 -0.0948 0.9891
vn -0.4877 0.4917 -0.7214
vn -0.5537 0.2966 -0.7781
vn -0.5374 -0.2119 -0.8162
vn 0.4877 0.4917 -0.7214
vn 0.5091 0.2644 -0.8191
vn -0.1124 -0.0948 0.9891
vn 0.9368 -0.0334 0.3483
vn 0.9318 0.0175 0.3626
vn -0.9318 0.0175 0.3626
vn -0.9368 -0.0334 0.3483
vn 0.6721 -0.5018 0.5446
vn -0.5076 0.4187 0.7530
vn 0.5962 0.3028 0.7435
vn -0.4260 -0.5451 0.7221
vn -0.9450 0.0218 0.3264
vt 0.562500 0.187500
vt 0.625000 0.250000
vt 0.562500 0.250000
vt 0.562500 0.375000
vt 0.625000 0.500000
vt 0.562500 0.500000
vt 0.562500 0.687500
vt 0.625000 0.750000
vt 0.562500 0.750000
vt 0.562500 0.875000
vt 0.625000 1.000000
vt 0.562500 1.000000
vt 0.250000 0.687500
vt 0.375000 0.750000
vt 0.250000 0.750000
vt 0.750000 0.687500
vt 0.875000 0.750000
vt 0.750000 0.750000
vt 0.625000 0.687500
vt 0.125000 0.750000
vt 0.125000 0.687500
vt 0.375000 0.250000
vt 0.437500 0.375000
vt 0.375000 0.375000
vt 0.500000 0.250000
vt 0.437500 0.250000
vt 0.500000 0.375000
vt 0.437500 0.875000
vt 0.375000 0.875000
vt 0.437500 0.750000
vt 0.500000 0.875000
vt 0.500000 0.750000
vt 0.375000 1.000000
vt 0.437500 1.000000
vt 0.500000 1.000000
vt 0.375000 0.687500
vt 0.437500 0.687500
vt 0.500000 0.687500
vt 0.375000 0.500000
vt 0.437500 0.500000
vt 0.500000 0.500000
vt 0.437500 0.187500
vt 0.375000 0.187500
vt 0.500000 0.187500
vt 0.500000 0.000000
vt 0.562500 0.062500
vt 0.500000 0.062500
vt 0.562500 0.125000
vt 0.500000 0.125000
vt 0.437500 0.062500
vt 0.437500 0.000000
vt 0.437500 0.125000
vt 0.375000 0.062500
vt 0.375000 0.000000
vt 0.375000 0.125000
vt 0.500000 0.562500
vt 0.562500 0.562500
vt 0.500000 0.625000
vt 0.562500 0.625000
vt 0.437500 0.562500
vt 0.437500 0.625000
vt 0.375000 0.562500
vt 0.375000 0.625000
vt 0.125000 0.500000
vt 0.250000 0.562500
vt 0.125000 0.562500
vt 0.125000 0.625000
vt 0.250000 0.625000
vt 0.750000 0.500000
vt 0.625000 0.562500
vt 0.750000 0.562500
vt 0.625000 0.625000
vt 0.750000 0.625000
vt 0.875000 0.562500
vt 0.875000 0.625000
vt 0.875000 0.687500
vt 0.250000 0.500000
vt 0.625000 0.000000
vt 0.562500 0.000000
vt 0.625000 0.125000
vt 0.625000 0.187500
vt 0.625000 0.375000
vt 0.625000 0.875000
vt 0.875000 0.500000
vt 0.625000 0.062500
s 0
f 66/1/1 4/2/1 16/3/1
f 28/4/2 8/5/2 19/6/2
f 57/7/3 6/8/3 22/9/3
f 25/10/4 2/11/4 15/12/4
f 48/13/5 5/14/5 11/15/5
f 45/16/6 2/17/6 12/18/6
f 45/16/7 6/8/7 42/19/7
f 48/13/8 1/20/8 33/21/8
f 6/8/9 25/10/9 22/9/9
f 4/2/10 28/4/10 16/3/10
f 3/22/11 30/23/11 9/24/11
f 17/25/10 30/23/10 18/26/10
f 16/3/10 29/27/10 17/25/10
f 5/14/12 27/28/12 11/29/12
f 24/30/13 26/31/13 27/28/13
f 22/9/14 26/31/14 23/32/14
f 27/28/15 1/33/15 11/29/15
f 26/31/16 13/34/16 27/28/16
f 26/31/17 15/12/17 14/35/17
f 37/36/3 24/30/3 5/14/3
f 51/37/3 23/32/3 24/30/3
f 57/7/3 23/32/3 54/38/3
f 30/23/18 7/39/18 9/24/18
f 29/27/2 21/40/2 30/23/2
f 29/27/2 19/6/2 20/41/2
f 60/42/19 3/22/19 31/43/19
f 63/44/20 18/26/20 60/42/20
f 63/44/21 16/3/21 17/25/21
f 14/45/22 64/46/22 61/47/22
f 61/47/22 65/48/22 62/49/22
f 62/49/22 66/1/22 63/44/22
f 14/45/22 58/50/22 13/51/22
f 61/47/22 59/52/22 58/50/22
f 62/49/22 60/42/22 59/52/22
f 13/51/22 33/53/22 1/54/22
f 58/50/22 32/55/22 33/53/22
f 59/52/22 31/43/22 32/55/22
f 19/6/23 52/56/23 20/41/23
f 55/57/3 53/58/3 52/56/3
f 56/59/3 54/38/3 53/58/3
f 21/40/24 52/56/24 49/60/24
f 49/60/3 53/58/3 50/61/3
f 50/61/3 54/38/3 51/37/3
f 7/39/25 49/60/25 39/62/25
f 39/62/3 50/61/3 38/63/3
f 38/63/3 51/37/3 37/36/3
f 3/64/26 46/65/26 31/66/26
f 46/65/27 32/67/27 31/66/27
f 47/68/27 33/21/27 32/67/27
f 10/69/28 40/70/28 8/5/28
f 43/71/29 41/72/29 40/70/29
f 44/73/29 42/19/29 41/72/29
f 10/69/30 36/74/30 43/71/30
f 43/71/31 35/75/31 44/73/31
f 44/73/31 34/76/31 45/16/31
f 7/39/32 46/65/32 9/77/32
f 46/65/33 38/63/33 47/68/33
f 47/68/33 37/36/33 48/13/33
f 8/5/34 55/57/34 19/6/34
f 40/70/3 56/59/3 55/57/3
f 41/72/3 57/7/3 56/59/3
f 2/78/22 64/46/22 15/79/22
f 64/46/22 35/80/22 65/48/22
f 65/48/22 36/81/22 66/1/22
f 66/1/35 36/81/35 4/2/35
f 28/4/2 10/82/2 8/5/2
f 57/7/3 42/19/3 6/8/3
f 25/10/36 12/83/36 2/11/36
f 48/13/37 37/36/37 5/14/37
f 45/16/38 34/76/38 2/17/38
f 45/16/39 12/18/39 6/8/39
f 48/13/40 11/15/40 1/20/40
f 6/8/41 12/83/41 25/10/41
f 4/2/10 10/82/10 28/4/10
f 3/22/42 18/26/42 30/23/42
f 17/25/10 29/27/10 30/23/10
f 16/3/10 28/4/10 29/27/10
f 5/14/43 24/30/43 27/28/43
f 24/30/44 23/32/44 26/31/44
f 22/9/45 25/10/45 26/31/45
f 27/28/46 13/34/46 1/33/46
f 26/31/47 14/35/47 13/34/47
f 26/31/17 25/10/17 15/12/17
f 37/36/3 51/37/3 24/30/3
f 51/37/3 54/38/3 23/32/3
f 57/7/3 22/9/3 23/32/3
f 30/23/48 21/40/48 7/39/48
f 29/27/2 20/41/2 21/40/2
f 29/27/2 28/4/2 19/6/2
f 60/42/49 18/26/49 3/22/49
f 63/44/21 17/25/21 18/26/21
f 63/44/50 66/1/50 16/3/50
f 14/45/22 15/79/22 64/46/22
f 61/47/22 64/46/22 65/48/22
f 62/49/22 65/48/22 66/1/22
f 14/45/22 61/47/22 58/50/22
f 61/47/22 62/49/22 59/52/22
f 62/49/22 63/44/22 60/42/22
f 13/51/22 58/50/22 33/53/22
f 58/50/22 59/52/22 32/55/22
f 59/52/22 60/42/22 31/43/22
f 19/6/51 55/57/51 52/56/51
f 55/57/3 56/59/3 53/58/3
f 56/59/3 57/7/3 54/38/3
f 21/40/23 20/41/23 52/56/23
f 49/60/3 52/56/3 53/58/3
f 50/61/3 53/58/3 54/38/3
f 7/39/52 21/40/52 49/60/52
f 39/62/3 49/60/3 50/61/3
f 38/63/3 50/61/3 51/37/3
f 3/64/53 9/77/53 46/65/53
f 46/65/27 47/68/27 32/67/27
f 47/68/27 48/13/27 33/21/27
f 10/69/54 43/71/54 40/70/54
f 43/71/29 44/73/29 41/72/29
f 44/73/29 45/16/29 42/19/29
f 10/69/55 4/84/55 36/74/55
f 43/71/31 36/74/31 35/75/31
f 44/73/31 35/75/31 34/76/31
f 7/39/56 39/62/56 46/65/56
f 46/65/33 39/62/33 38/63/33
f 47/68/33 38/63/33 37/36/33
f 8/5/57 40/70/57 55/57/57
f 40/70/3 41/72/3 56/59/3
f 41/72/3 42/19/3 57/7/3
f 2/78/22 34/85/22 64/46/22
f 64/46/22 34/85/22 35/80/22
f 65/48/22 35/80/22 36/81/22
