# Blender 4.2.1 LTS
# www.blender.org
mtllib enemy_body.mtl
o body
v 0.220150 -0.396621 -3.857631
v 0.220150 0.406351 -3.857631
v -0.220151 -0.396621 -3.857631
v -0.220151 0.406351 -3.857631
v 0.609568 -1.083172 -0.000000
v 0.298496 0.004865 -3.903315
v 0.166093 1.435905 -0.055618
v -0.609568 -1.083172 0.000000
v -0.166093 1.435905 -0.055618
v -0.298496 0.004865 -3.903315
v -0.000000 -0.484601 -3.903315
v -0.000000 0.494331 -3.903315
v 0.933665 0.004865 -0.000000
v -0.933665 0.004865 0.000000
v -0.000000 0.004865 -3.999187
v 0.000000 -1.455255 0.000000
v -0.000000 1.620085 -0.056591
v 0.554784 -1.006890 2.072250
v 0.582176 -1.056844 1.023155
v 0.582176 1.066574 1.023155
v 0.554784 1.016619 2.072250
v -0.582176 -1.056844 1.023155
v -0.554784 -1.006890 2.072250
v -0.554784 1.016619 2.072250
v -0.582176 1.066574 1.023155
v 0.805801 0.004865 2.072250
v 0.869733 0.004865 1.049094
v -0.805801 0.004865 2.072250
v -0.869733 0.004865 1.049094
v 0.000000 -1.316467 2.072250
v 0.000000 -1.421301 1.049094
v 0.000000 1.326196 2.072250
v 0.000000 1.431030 1.049094
v 0.284455 -1.272024 -1.376221
v 0.161753 -1.047999 -2.080033
v 0.232211 -0.418616 -3.407135
v 0.232211 0.428346 -3.407135
v 0.421633 0.773794 -2.390539
v 0.160514 1.389801 -0.966135
v -0.232211 -0.418616 -3.407135
v -0.161753 -1.047999 -2.080033
v -0.284455 -1.272024 -1.376221
v -0.160514 1.389801 -0.966135
v -0.421634 0.773794 -2.390539
v -0.232211 0.428346 -3.407135
v 0.326645 0.004865 -3.441398
v 0.612405 0.004865 -2.429966
v 0.869733 0.004865 -1.049094
v -0.326646 0.004865 -3.441398
v -0.612406 0.004865 -2.429966
v -0.869733 0.004865 -1.049094
v -0.000000 -0.530760 -3.441398
v -0.000000 -1.041300 -2.270545
v -0.000000 -1.383692 -1.210197
v -0.000000 0.540489 -3.441398
v -0.000000 1.009071 -2.429966
v -0.000000 1.431030 -1.049094
v 0.301757 0.133334 -3.880474
v -0.301758 0.133334 -3.880473
v 0.895047 0.360076 -0.000000
v -0.895047 0.360076 0.000000
v -0.000000 0.161424 -3.951252
v -0.790195 0.328177 2.072249
v -0.842621 0.344126 1.036125
v 0.842621 0.344126 1.036125
v 0.790196 0.328177 2.072249
v -0.842621 0.344126 -1.036125
v -0.600546 0.250649 -2.410253
v -0.324841 0.140356 -3.424267
v 0.324840 0.140356 -3.424267
v 0.600545 0.250649 -2.410253
v 0.842621 0.344126 -1.036125
v 0.301757 -0.123035 -3.880474
v -0.301758 -0.123035 -3.880474
v 0.895047 -0.342233 -0.000000
v -0.895047 -0.342233 0.000000
v -0.000000 -0.151125 -3.951252
v -0.790195 -0.317878 2.072249
v -0.842621 -0.333828 1.036125
v 0.842621 -0.333828 1.036125
v 0.790196 -0.317878 2.072249
v -0.842621 -0.333828 -1.036125
v -0.600546 -0.240350 -2.410253
v -0.324841 -0.130058 -3.424267
v 0.324840 -0.130058 -3.424267
v 0.600545 -0.240350 -2.410253
v 0.842621 -0.333828 -1.036125
v 0.582176 1.066574 -1.023155
v 0.609568 1.116528 -0.000000
v 0.000000 1.535865 -0.000000
v -0.609568 1.116528 0.000000
v -0.582176 1.066574 -1.023155
v -0.000000 1.445380 -0.966135
v 0.006549 1.811543 -1.219852
v 0.000651 2.452506 -0.878314
v 0.121245 1.805768 -1.173656
v 0.125437 2.381321 -0.850357
v -0.124135 2.381321 -0.850357
v -0.114045 1.805768 -1.173656
v -0.158551 1.525338 -0.999718
v -0.156588 1.653891 -1.040502
v -0.154626 1.742949 -1.102020
v 0.005888 1.742949 -1.102020
v 0.003925 1.653891 -1.040502
v 0.001963 1.525338 -0.999718
v -0.000000 1.829480 -0.181127
v -0.000000 2.083200 -0.335352
v -0.000000 2.299405 -0.558137
v -0.166093 2.232315 -0.570170
v -0.166093 2.012859 -0.342017
v -0.166093 1.755630 -0.183668
v 0.160514 1.525338 -0.999718
v 0.160514 1.653891 -1.040502
v 0.160514 1.742949 -1.102020
v 0.166093 2.232315 -0.570170
v 0.166093 2.012859 -0.342017
v 0.166093 1.755630 -0.183668
v 0.582176 -1.056844 -1.023155
v 0.421633 -0.764065 -2.390539
v -0.421634 -0.764065 -2.390539
v -0.582176 -1.056844 -1.023155
v -0.000000 -1.421301 -1.049094
v -0.000000 -0.999342 -2.429966
v -0.000000 -1.384252 -2.673964
v -0.000000 -1.926845 -2.666773
v 0.096936 -1.843663 -2.667936
v 0.055122 -1.507066 -2.672640
v -0.055122 -1.507066 -2.672640
v -0.096937 -1.843663 -2.667936
v -0.234245 -1.574389 -1.553332
v -0.171217 -1.812353 -1.809351
v -0.132187 -1.892220 -2.281715
v -0.000000 -1.996759 -2.222256
v -0.000000 -1.911416 -1.675362
v -0.000000 -1.656041 -1.408076
v 0.132187 -1.892220 -2.281715
v 0.171217 -1.812353 -1.809351
v 0.234244 -1.574389 -1.553332
v 0.075167 -1.469208 -2.522313
v 0.097361 -1.411496 -2.351533
v 0.133201 -1.243986 -2.141109
v -0.000000 -1.150987 -2.306554
v -0.000000 -1.298665 -2.504144
v -0.000000 -1.350140 -2.590035
v -0.075167 -1.469208 -2.522313
v -0.097361 -1.411496 -2.351533
v -0.133201 -1.243986 -2.141109
vn 0.9926 -0.1104 -0.0511
vn 0.9391 0.3395 -0.0527
vn -0.9926 -0.1104 0.0511
vn -0.9391 0.3395 0.0527
vn -0.9556 0.2900 -0.0528
vn -0.9985 -0.0198 -0.0508
vn -0.2397 -0.1647 -0.9568
vn -0.2391 0.1517 -0.9591
vn 0.2391 0.1517 -0.9591
vn 0.2397 -0.1648 -0.9568
vn 0.5207 -0.8530 0.0359
vn -0.5313 -0.8467 0.0274
vn -0.3859 -0.9180 -0.0917
vn 0.4408 -0.8959 -0.0555
vn -0.5316 0.8452 0.0555
vn 0.5649 0.8211 0.0821
vn 0.3859 0.9180 -0.0917
vn -0.4408 0.8959 -0.0555
vn 0.5314 0.8427 0.0863
vn -0.0000 -0.0000 1.0000
vn -0.4866 0.8720 0.0542
vn -0.5314 -0.8427 0.0863
vn 0.4866 -0.8720 0.0542
vn -0.9449 0.3231 0.0528
vn -0.9953 -0.0817 0.0516
vn 0.9926 -0.1104 0.0511
vn 0.9953 -0.0817 0.0516
vn 0.9391 0.3395 0.0527
vn 0.9449 0.3231 0.0528
vn -0.3688 0.8425 0.3928
vn -0.4902 0.8387 -0.2371
vn -0.4799 0.7995 -0.3611
vn -0.1499 -0.8541 -0.4980
vn 0.5218 0.8158 -0.2493
vn 0.4474 0.8115 -0.3760
vn 0.5207 -0.8530 -0.0359
vn 0.6425 -0.7509 -0.1530
vn 0.4799 -0.7995 -0.3611
vn -0.5313 -0.8467 -0.0274
vn -0.5797 -0.8050 -0.1266
vn -0.4474 -0.8115 -0.3760
vn -0.9926 -0.1104 -0.0511
vn -0.9802 -0.0853 -0.1785
vn -0.9608 -0.0681 -0.2686
vn -0.9391 0.3395 -0.0527
vn -0.9276 0.3242 -0.1855
vn -0.9087 0.3090 -0.2807
vn 0.9556 0.2900 -0.0528
vn 0.9087 0.3090 -0.2807
vn 0.9276 0.3242 -0.1855
vn 0.9985 -0.0198 -0.0508
vn 0.9608 -0.0681 -0.2686
vn 0.9802 -0.0853 -0.1785
vn 0.9812 0.0620 -0.1828
vn 0.9613 0.0471 -0.2716
vn 0.9980 -0.0145 -0.0608
vn -0.9613 0.0471 -0.2716
vn -0.9812 0.0620 -0.1828
vn -0.9948 0.0818 -0.0606
vn 0.9969 0.0481 0.0623
vn 0.9948 0.0818 0.0606
vn -0.9969 0.0481 0.0623
vn 0.2936 0.2799 -0.9140
vn -0.2936 0.2799 -0.9140
vn -0.9980 -0.0145 -0.0608
vn -0.9948 0.0818 0.0606
vn 0.9948 0.0818 -0.0606
vn 0.9243 -0.3362 -0.1805
vn 0.9059 -0.3199 -0.2775
vn 0.9507 -0.3076 -0.0405
vn -0.9059 -0.3199 -0.2775
vn -0.9243 -0.3362 -0.1805
vn -0.9326 -0.3593 -0.0342
vn 0.9398 -0.3393 0.0407
vn 0.9326 -0.3593 0.0342
vn -0.9398 -0.3393 0.0407
vn 0.2537 -0.1376 -0.9574
vn -0.2537 -0.1376 -0.9574
vn -0.9507 -0.3076 -0.0405
vn -0.9326 -0.3593 0.0342
vn 0.9326 -0.3593 -0.0342
vn 0.6028 0.7960 -0.0550
vn 0.5545 0.8060 0.2072
vn -0.5230 0.4754 0.7075
vn -0.5875 0.8080 -0.0445
vn -0.4618 0.6988 -0.5462
vn 0.3229 0.9326 -0.1613
vn -0.3372 0.4566 -0.8233
vn 0.4235 0.4290 -0.7979
vn 0.9912 0.0919 -0.0950
vn -0.0000 -0.7519 -0.6593
vn -0.9157 0.1845 -0.3570
vn 0.3854 0.8322 0.3987
vn 0.2338 0.4970 0.8357
vn 0.2464 0.5034 0.8282
vn 0.3222 0.6794 0.6593
vn -0.9999 0.0114 -0.0125
vn -0.9998 0.0094 -0.0184
vn -0.9997 0.0044 -0.0256
vn -0.0830 -0.2397 -0.9673
vn -0.0000 -0.3024 -0.9532
vn -0.0000 -0.5683 -0.8228
vn 1.0000 -0.0024 -0.0060
vn 1.0000 -0.0036 -0.0058
vn 1.0000 -0.0054 -0.0052
vn -0.0000 -0.3872 -0.9220
vn -0.3768 0.3444 0.8599
vn -0.2390 0.5090 0.8269
vn -0.3160 0.6838 0.6577
vn 0.7709 -0.5558 -0.3113
vn -0.5750 -0.7836 -0.2353
vn 0.2422 -0.9448 -0.2206
vn 0.4258 -0.8164 -0.3902
vn -0.5270 -0.8469 0.0718
vn -0.4909 -0.8425 -0.2217
vn -0.0000 -0.0140 -0.9999
vn 0.0055 -0.0133 -0.9999
vn 0.9797 0.1195 -0.1607
vn -0.8911 0.3976 -0.2189
vn 0.8749 0.4486 -0.1823
vn -0.9929 0.0886 -0.0795
vn -0.9808 -0.0529 -0.1878
vn -0.9794 -0.0488 -0.1958
vn -0.9940 0.0586 -0.0920
vn 0.8133 0.1815 -0.5528
vn 0.8815 0.3783 -0.2827
vn 0.8766 0.4127 -0.2474
vn -0.7608 0.0895 -0.6428
vn -0.8131 0.3800 -0.4410
vn -0.8750 0.4126 -0.2532
vn 0.9746 -0.0764 -0.2105
vn 0.9883 -0.0220 -0.1509
vn 0.9881 0.0505 -0.1455
vn -0.5771 -0.4801 0.6607
vn -0.5625 -0.5978 0.5711
vn -0.5692 -0.8124 0.1268
vn 0.5750 -0.4825 0.6607
vn 0.6746 -0.6161 0.4066
vn 0.6394 -0.7650 0.0765
vn 0.9948 -0.0820 -0.0606
vn 0.9348 0.3528 -0.0422
vn -0.9948 -0.0820 0.0606
vn -0.9348 0.3528 0.0422
vn -0.9505 0.3081 -0.0405
vn -0.9980 0.0146 -0.0608
vn -0.2935 -0.2808 -0.9138
vn -0.2538 0.1379 -0.9574
vn 0.2538 0.1379 -0.9574
vn 0.2935 -0.2808 -0.9138
vn 0.5313 -0.8467 0.0274
vn -0.5207 -0.8530 0.0359
vn -0.4408 -0.8959 -0.0555
vn 0.3859 -0.9180 -0.0917
vn -0.5649 0.8211 0.0821
vn 0.5316 0.8452 0.0555
vn 0.4408 0.8959 -0.0555
vn -0.3859 0.9180 -0.0917
vn 0.4866 0.8720 0.0542
vn -0.5314 0.8427 0.0863
vn -0.4866 -0.8720 0.0542
vn 0.5314 -0.8427 0.0863
vn -0.9397 0.3395 0.0407
vn -0.9969 -0.0482 0.0623
vn 0.9948 -0.0820 0.0606
vn 0.9969 -0.0482 0.0623
vn 0.9348 0.3528 0.0422
vn 0.9397 0.3395 0.0407
vn -0.3859 0.8326 0.3973
vn -0.5218 0.8158 -0.2493
vn -0.4474 0.8115 -0.3760
vn 0.4902 0.8387 -0.2371
vn 0.4799 0.7995 -0.3611
vn 0.5313 -0.8467 -0.0274
vn 0.5797 -0.8050 -0.1266
vn 0.4474 -0.8115 -0.3760
vn -0.5207 -0.8530 -0.0359
vn -0.6425 -0.7509 -0.1530
vn -0.4799 -0.7995 -0.3611
vn -0.9948 -0.0820 -0.0606
vn -0.9812 -0.0622 -0.1828
vn -0.9613 -0.0473 -0.2716
vn -0.9348 0.3528 -0.0422
vn -0.9242 0.3364 -0.1805
vn -0.9058 0.3202 -0.2776
vn 0.9505 0.3081 -0.0405
vn 0.9058 0.3202 -0.2776
vn 0.9242 0.3364 -0.1805
vn 0.9980 0.0146 -0.0608
vn 0.9613 -0.0473 -0.2716
vn 0.9812 -0.0622 -0.1828
vn 0.9803 0.0852 -0.1785
vn 0.9608 0.0679 -0.2686
vn 0.9985 0.0197 -0.0508
vn -0.9608 0.0679 -0.2686
vn -0.9803 0.0852 -0.1785
vn -0.9928 0.1079 -0.0519
vn 0.9953 0.0815 0.0516
vn 0.9928 0.1079 0.0519
vn -0.9953 0.0815 0.0516
vn 0.2397 0.1640 -0.9569
vn -0.2397 0.1640 -0.9569
vn -0.9985 0.0197 -0.0508
vn -0.9928 0.1079 0.0519
vn 0.9928 0.1079 -0.0519
vn 0.9277 -0.3239 -0.1855
vn 0.9089 -0.3084 -0.2807
vn 0.9557 -0.2895 -0.0528
vn -0.9089 -0.3084 -0.2807
vn -0.9277 -0.3239 -0.1855
vn -0.9393 -0.3393 -0.0503
vn 0.9450 -0.3229 0.0528
vn 0.9393 -0.3393 0.0503
vn -0.9450 -0.3229 0.0528
vn 0.2391 -0.1514 -0.9591
vn -0.2391 -0.1514 -0.9591
vn -0.9557 -0.2895 -0.0528
vn -0.9393 -0.3393 0.0503
vn 0.9393 -0.3393 -0.0503
vn 0.5875 0.8080 -0.0445
vn 0.5230 0.4754 0.7075
vn -0.5545 0.8060 0.2072
vn -0.6028 0.7960 -0.0550
vn -0.3229 0.9326 -0.1613
vn 0.4618 0.6988 -0.5462
vn -0.4213 0.4235 -0.8020
vn 0.3521 0.4564 -0.8171
vn 0.9211 0.1855 -0.3422
vn 0.1569 -0.8539 -0.4962
vn -0.9909 0.0875 -0.1019
vn 0.3686 0.8419 0.3942
vn 0.3768 0.3444 0.8599
vn 0.2390 0.5090 0.8269
vn 0.3160 0.6838 0.6577
vn -1.0000 -0.0024 -0.0060
vn -1.0000 -0.0048 -0.0079
vn -0.9999 -0.0092 -0.0089
vn 1.0000 -0.0016 -0.0064
vn 1.0000 -0.0022 -0.0069
vn 1.0000 -0.0044 -0.0064
vn 0.0834 -0.2408 -0.9670
vn -0.2338 0.4970 0.8357
vn -0.2464 0.5034 0.8282
vn -0.3222 0.6794 0.6593
vn 0.5750 -0.7836 -0.2353
vn -0.7709 -0.5558 -0.3113
vn 0.5270 -0.8469 0.0718
vn 0.4909 -0.8425 -0.2217
vn -0.2422 -0.9448 -0.2206
vn -0.4258 -0.8164 -0.3902
vn -0.0055 -0.0133 -0.9999
vn 0.9929 0.0886 -0.0795
vn -0.8749 0.4486 -0.1823
vn 0.8911 0.3976 -0.2189
vn -0.9797 0.1195 -0.1607
vn -0.9746 -0.0764 -0.2105
vn -0.9883 -0.0220 -0.1509
vn -0.9881 0.0505 -0.1455
vn 0.7608 0.0895 -0.6428
vn 0.8131 0.3800 -0.4410
vn 0.8750 0.4126 -0.2532
vn -0.8133 0.1815 -0.5528
vn -0.8815 0.3783 -0.2827
vn -0.8766 0.4127 -0.2473
vn 0.9808 -0.0529 -0.1878
vn 0.9794 -0.0488 -0.1958
vn 0.9940 0.0586 -0.0920
vn -0.5750 -0.4825 0.6607
vn -0.6746 -0.6161 0.4066
vn -0.6394 -0.7650 0.0765
vn 0.5771 -0.4801 0.6607
vn 0.5625 -0.5978 0.5711
vn 0.5692 -0.8124 0.1268
vt 0.437500 0.093750
vt 0.500000 0.125000
vt 0.437500 0.125000
vt 0.625000 0.093750
vt 0.562500 0.125000
vt 0.562500 0.093750
vt 0.437500 0.593750
vt 0.500000 0.625000
vt 0.437500 0.625000
vt 0.625000 0.593750
vt 0.562500 0.625000
vt 0.562500 0.593750
vt 0.562500 0.718750
vt 0.625000 0.750000
vt 0.562500 0.750000
vt 0.500000 0.718750
vt 0.437500 0.750000
vt 0.437500 0.718750
vt 0.500000 0.750000
vt 0.437500 0.875000
vt 0.562500 0.875000
vt 0.625000 1.000000
vt 0.562500 1.000000
vt 0.500000 1.000000
vt 0.437500 1.000000
vt 0.125000 0.593750
vt 0.250000 0.625000
vt 0.125000 0.625000
vt 0.375000 0.593750
vt 0.250000 0.593750
vt 0.250000 0.718750
vt 0.375000 0.750000
vt 0.250000 0.750000
vt 0.125000 0.750000
vt 0.125000 0.718750
vt 0.750000 0.593750
vt 0.625000 0.625000
vt 0.875000 0.625000
vt 0.750000 0.625000
vt 0.750000 0.718750
vt 0.875000 0.750000
vt 0.750000 0.750000
vt 0.625000 0.718750
vt 0.750000 0.562500
vt 0.875000 0.593750
vt 0.437500 0.562500
vt 0.250000 0.562500
vt 0.375000 0.187500
vt 0.625000 0.562500
vt 0.125000 0.562500
vt 0.562500 0.562500
vt 0.500000 0.593750
vt 0.437500 0.156250
vt 0.500000 0.156250
vt 0.437500 0.187500
vt 0.625000 0.156250
vt 0.562500 0.156250
vt 0.625000 0.187500
vt 0.562500 0.187500
vt 0.750725 0.630351
vt 0.655962 0.630452
vt 0.625000 0.656250
vt 0.750000 0.687500
vt 0.625000 0.687500
vt 0.750351 0.650904
vt 0.657279 0.650799
vt 0.875000 0.656250
vt 0.750000 0.656250
vt 0.875000 0.718750
vt 0.125000 0.656250
vt 0.156431 0.659883
vt 0.248891 0.659837
vt 0.250000 0.687500
vt 0.125000 0.687500
vt 0.375000 0.656250
vt 0.250000 0.656250
vt 0.343569 0.659883
vt 0.248891 0.659837
vt 0.375000 0.718750
vt 0.437500 0.656250
vt 0.500000 0.656250
vt 0.437500 0.687500
vt 0.500000 0.687500
vt 0.562500 0.656250
vt 0.562500 0.687500
vt 0.625000 0.000000
vt 0.562500 0.031250
vt 0.562500 0.000000
vt 0.625000 0.031250
vt 0.562500 0.062500
vt 0.625000 0.062500
vt 0.437500 0.000000
vt 0.500000 0.031250
vt 0.437500 0.031250
vt 0.500000 0.062500
vt 0.437500 0.062500
vt 0.500000 0.093750
vt 0.500000 0.000000
vt 0.500000 0.187500
vt 0.500000 0.562500
vt 0.687500 0.375000
vt 0.875000 0.562500
vt 0.500000 0.875000
vt 0.375000 0.062500
vt 0.375000 0.093750
vt 0.375000 0.031250
vt 0.375000 0.000000
vt 0.375000 0.687500
vt 0.375000 0.625000
vt 0.375000 0.156250
vt 0.375000 0.125000
vt 0.375000 0.562500
vt 0.375000 1.000000
vt 0.375000 0.875000
vt 0.842721 0.650799
vt 0.844038 0.630452
vt 0.750725 0.630352
vt 0.842721 0.650799
vt 0.844038 0.630452
vt 0.657279 0.650799
vt 0.844038 0.630452
vt 0.655962 0.630452
vt 0.842721 0.650799
vt 0.750351 0.650904
vt 0.842721 0.650799
vt 0.750351 0.650904
vt 0.165300 0.683871
vt 0.334700 0.683870
vt 0.250781 0.683928
vt 0.343569 0.659883
vt 0.165300 0.683871
vt 0.250781 0.683928
vt 0.334700 0.683870
vt 0.343569 0.659883
vt 0.156431 0.659883
vt 0.156431 0.659883
vt 0.248891 0.659837
vt 0.625000 0.125000
vt 0.625000 0.875000
vt 0.875000 0.687500
s 0
f 87/1/1 13/2/1 75/3/1
f 88/4/2 60/5/2 72/6/2
f 79/7/3 14/8/3 76/9/3
f 25/10/4 61/11/4 64/12/4
f 69/13/5 4/14/5 59/15/5
f 49/16/6 74/17/6 84/18/6
f 10/19/7 77/20/7 74/17/7
f 4/14/8 62/21/8 59/15/8
f 62/21/9 2/22/9 58/23/9
f 77/20/10 6/24/10 73/25/10
f 19/26/11 16/27/11 5/28/11
f 22/29/12 16/27/12 31/30/12
f 52/31/13 3/32/13 11/33/13
f 52/31/14 1/34/14 36/35/14
f 33/36/15 91/37/15 25/10/15
f 33/36/16 89/38/16 90/39/16
f 55/40/17 2/41/17 12/42/17
f 55/40/18 4/14/18 45/43/18
f 32/44/19 20/45/19 33/36/19
f 78/46/20 30/47/20 18/48/20
f 32/44/21 25/10/21 24/49/21
f 30/47/22 22/29/22 31/30/22
f 30/47/23 19/26/23 18/50/23
f 24/49/24 64/12/24 63/51/24
f 78/46/25 29/52/25 79/7/25
f 13/2/26 80/53/26 75/3/26
f 27/54/27 81/55/27 80/53/27
f 60/5/28 20/56/28 65/57/28
f 65/57/29 21/58/29 66/59/29
f 108/60/30 98/61/30 109/61/30
f 92/62/31 56/63/31 44/64/31
f 56/63/32 45/43/32 44/64/32
f 103/65/33 99/66/33 94/65/33
f 88/67/34 56/63/34 57/68/34
f 56/63/35 37/69/35 55/40/35
f 16/27/36 118/70/36 5/28/36
f 136/71/37 125/72/37 126/71/37
f 123/73/38 36/35/38 119/74/38
f 16/27/39 121/75/39 122/76/39
f 132/77/40 125/72/40 133/78/40
f 123/73/41 40/79/41 52/31/41
f 14/8/42 82/80/42 76/9/42
f 51/81/43 83/82/43 82/80/43
f 50/83/44 84/18/44 83/82/44
f 61/11/45 92/62/45 67/84/45
f 67/84/46 44/64/46 68/85/46
f 68/85/47 45/43/47 69/13/47
f 2/86/48 70/87/48 58/88/48
f 37/89/49 71/90/49 70/87/49
f 38/91/50 72/6/50 71/90/50
f 73/92/51 46/93/51 85/94/51
f 85/94/52 47/95/52 86/96/52
f 86/96/53 48/97/53 87/1/53
f 71/90/54 48/97/54 47/95/54
f 70/87/55 47/95/55 46/93/55
f 58/88/56 46/93/56 6/98/56
f 50/83/57 69/13/57 49/16/57
f 51/81/58 68/85/58 50/83/58
f 14/8/59 67/84/59 51/81/59
f 27/54/60 66/59/60 26/99/60
f 13/2/61 65/57/61 27/54/61
f 63/51/62 29/52/62 28/100/62
f 24/49/20 66/101/20 21/102/20
f 62/21/63 6/24/63 15/103/63
f 10/19/64 62/21/64 15/103/64
f 49/16/65 59/15/65 10/19/65
f 64/12/66 14/8/66 29/52/66
f 72/6/67 13/2/67 48/97/67
f 119/104/68 87/1/68 118/105/68
f 36/106/69 86/96/69 119/104/69
f 1/107/70 85/94/70 36/106/70
f 83/82/71 40/79/71 120/108/71
f 82/80/72 120/108/72 121/75/72
f 76/9/73 121/75/73 8/109/73
f 80/53/74 18/48/74 19/110/74
f 75/3/75 19/110/75 5/111/75
f 23/112/76 79/7/76 22/29/76
f 63/51/20 78/46/20 26/99/20
f 77/20/77 1/113/77 11/114/77
f 3/32/78 77/20/78 11/114/78
f 84/18/79 3/32/79 40/79/79
f 22/29/80 76/9/80 8/109/80
f 118/105/81 75/3/81 5/111/81
f 39/115/82 89/38/82 88/67/82
f 7/116/83 90/39/83 89/38/83
f 9/61/84 90/39/84 17/117/84
f 43/66/85 91/37/85 9/61/85
f 43/66/86 57/68/86 92/62/86
f 39/115/87 57/68/87 93/65/87
f 98/61/88 94/65/88 99/66/88
f 97/116/89 94/65/89 95/117/89
f 114/118/90 97/116/90 115/119/90
f 103/65/91 96/115/91 114/118/91
f 102/120/92 98/61/92 99/66/92
f 108/60/93 97/116/93 95/117/93
f 17/117/94 117/116/94 106/117/94
f 106/117/95 116/121/95 107/60/95
f 107/60/96 115/119/96 108/60/96
f 43/66/97 111/61/97 100/66/97
f 100/66/98 110/122/98 101/66/98
f 101/66/99 109/61/99 102/120/99
f 93/65/100 112/123/100 39/115/100
f 112/123/101 104/124/101 113/125/101
f 113/125/102 103/65/102 114/118/102
f 39/115/103 117/116/103 7/116/103
f 112/123/104 116/121/104 117/116/104
f 113/125/105 115/119/105 116/121/105
f 93/65/106 100/66/106 105/126/106
f 105/126/101 101/66/101 104/124/101
f 104/124/102 102/120/102 103/65/102
f 17/117/107 111/61/107 9/61/107
f 106/117/108 110/122/108 111/61/108
f 107/60/109 109/61/109 110/122/109
f 35/127/110 118/70/110 34/71/110
f 41/128/111 121/75/111 120/108/111
f 34/71/112 122/76/112 54/72/112
f 53/129/113 119/74/113 35/127/113
f 42/130/114 122/76/114 121/75/114
f 53/129/115 120/108/115 123/73/115
f 125/72/116 127/127/116 126/71/116
f 125/72/117 128/128/117 124/129/117
f 139/131/118 126/71/118 127/127/118
f 145/128/119 124/129/119 128/128/119
f 139/131/120 124/129/120 144/132/120
f 145/128/121 129/130/121 132/77/121
f 41/128/122 130/77/122 42/130/122
f 147/133/123 131/134/123 130/77/123
f 146/133/124 132/77/124 131/134/124
f 53/129/125 141/127/125 142/132/125
f 142/132/126 140/127/126 143/132/126
f 143/132/127 139/131/127 144/132/127
f 53/129/128 147/133/128 41/128/128
f 142/132/129 146/133/129 147/133/129
f 143/132/130 145/128/130 146/133/130
f 35/127/131 138/135/131 141/127/131
f 141/127/132 137/136/132 140/127/132
f 140/127/133 136/71/133 139/131/133
f 54/72/134 130/77/134 135/137/134
f 130/77/135 134/137/135 135/137/135
f 131/134/136 133/78/136 134/137/136
f 54/72/137 138/135/137 34/71/137
f 138/135/138 134/137/138 137/136/138
f 137/136/139 133/78/139 136/71/139
f 87/1/140 48/97/140 13/2/140
f 88/4/141 89/138/141 60/5/141
f 79/7/142 29/52/142 14/8/142
f 25/10/143 91/37/143 61/11/143
f 69/13/144 45/43/144 4/14/144
f 49/16/145 10/19/145 74/17/145
f 10/19/146 15/103/146 77/20/146
f 4/14/147 12/139/147 62/21/147
f 62/21/148 12/139/148 2/22/148
f 77/20/149 15/103/149 6/24/149
f 19/26/150 31/30/150 16/27/150
f 22/29/151 8/109/151 16/27/151
f 52/31/152 40/79/152 3/32/152
f 52/31/153 11/33/153 1/34/153
f 33/36/154 90/39/154 91/37/154
f 33/36/155 20/45/155 89/38/155
f 55/40/156 37/69/156 2/41/156
f 55/40/157 12/42/157 4/14/157
f 32/44/158 21/102/158 20/45/158
f 18/48/20 81/55/20 78/46/20
f 78/46/20 23/112/20 30/47/20
f 32/44/159 33/36/159 25/10/159
f 30/47/160 23/112/160 22/29/160
f 30/47/161 31/30/161 19/26/161
f 24/49/162 25/10/162 64/12/162
f 78/46/163 28/100/163 29/52/163
f 13/2/164 27/54/164 80/53/164
f 27/54/165 26/99/165 81/55/165
f 60/5/166 89/138/166 20/56/166
f 65/57/167 20/56/167 21/58/167
f 108/60/168 95/117/168 98/61/168
f 92/62/169 57/68/169 56/63/169
f 56/63/170 55/40/170 45/43/170
f 103/65/91 102/120/91 99/66/91
f 88/67/171 38/140/171 56/63/171
f 56/63/172 38/140/172 37/69/172
f 16/27/173 122/76/173 118/70/173
f 136/71/174 133/78/174 125/72/174
f 123/73/175 52/31/175 36/35/175
f 16/27/176 8/109/176 121/75/176
f 132/77/177 129/130/177 125/72/177
f 123/73/178 120/108/178 40/79/178
f 14/8/179 51/81/179 82/80/179
f 51/81/180 50/83/180 83/82/180
f 50/83/181 49/16/181 84/18/181
f 61/11/182 91/37/182 92/62/182
f 67/84/183 92/62/183 44/64/183
f 68/85/184 44/64/184 45/43/184
f 2/86/185 37/89/185 70/87/185
f 37/89/186 38/91/186 71/90/186
f 38/91/187 88/4/187 72/6/187
f 73/92/188 6/98/188 46/93/188
f 85/94/189 46/93/189 47/95/189
f 86/96/190 47/95/190 48/97/190
f 71/90/191 72/6/191 48/97/191
f 70/87/192 71/90/192 47/95/192
f 58/88/193 70/87/193 46/93/193
f 50/83/194 68/85/194 69/13/194
f 51/81/195 67/84/195 68/85/195
f 14/8/196 61/11/196 67/84/196
f 27/54/197 65/57/197 66/59/197
f 13/2/198 60/5/198 65/57/198
f 63/51/199 64/12/199 29/52/199
f 21/102/20 32/44/20 24/49/20
f 24/49/20 63/51/20 66/101/20
f 62/21/200 58/23/200 6/24/200
f 10/19/201 59/15/201 62/21/201
f 49/16/202 69/13/202 59/15/202
f 64/12/203 61/11/203 14/8/203
f 72/6/204 60/5/204 13/2/204
f 119/104/205 86/96/205 87/1/205
f 36/106/206 85/94/206 86/96/206
f 1/107/207 73/92/207 85/94/207
f 83/82/208 84/18/208 40/79/208
f 82/80/209 83/82/209 120/108/209
f 76/9/210 82/80/210 121/75/210
f 80/53/211 81/55/211 18/48/211
f 75/3/212 80/53/212 19/110/212
f 23/112/213 78/46/213 79/7/213
f 26/99/20 66/101/20 63/51/20
f 63/51/20 28/100/20 78/46/20
f 78/46/20 81/55/20 26/99/20
f 77/20/214 73/25/214 1/113/214
f 3/32/215 74/17/215 77/20/215
f 84/18/216 74/17/216 3/32/216
f 22/29/217 79/7/217 76/9/217
f 118/105/218 87/1/218 75/3/218
f 39/115/219 7/116/219 89/38/219
f 7/116/220 17/117/220 90/39/220
f 9/61/221 91/37/221 90/39/221
f 43/66/222 92/62/222 91/37/222
f 43/66/223 93/65/223 57/68/223
f 39/115/224 88/67/224 57/68/224
f 98/61/225 95/117/225 94/65/225
f 97/116/226 96/115/226 94/65/226
f 114/118/227 96/115/227 97/116/227
f 103/65/228 94/65/228 96/115/228
f 102/120/229 109/61/229 98/61/229
f 108/60/230 115/119/230 97/116/230
f 17/117/231 7/116/231 117/116/231
f 106/117/232 117/116/232 116/121/232
f 107/60/233 116/121/233 115/119/233
f 43/66/234 9/61/234 111/61/234
f 100/66/235 111/61/235 110/122/235
f 101/66/236 110/122/236 109/61/236
f 93/65/106 105/126/106 112/123/106
f 112/123/101 105/126/101 104/124/101
f 113/125/102 104/124/102 103/65/102
f 39/115/237 112/123/237 117/116/237
f 112/123/238 113/125/238 116/121/238
f 113/125/239 114/118/239 115/119/239
f 93/65/240 43/66/240 100/66/240
f 105/126/101 100/66/101 101/66/101
f 104/124/102 101/66/102 102/120/102
f 17/117/241 106/117/241 111/61/241
f 106/117/242 107/60/242 110/122/242
f 107/60/243 108/60/243 109/61/243
f 35/127/244 119/74/244 118/70/244
f 41/128/245 42/130/245 121/75/245
f 34/71/246 118/70/246 122/76/246
f 53/129/247 123/73/247 119/74/247
f 42/130/248 54/72/248 122/76/248
f 53/129/249 41/128/249 120/108/249
f 125/72/250 124/129/250 127/127/250
f 125/72/116 129/130/116 128/128/116
f 139/131/251 136/71/251 126/71/251
f 145/128/252 144/132/252 124/129/252
f 139/131/253 127/127/253 124/129/253
f 145/128/254 128/128/254 129/130/254
f 41/128/255 147/133/255 130/77/255
f 147/133/256 146/133/256 131/134/256
f 146/133/257 145/128/257 132/77/257
f 53/129/258 35/127/258 141/127/258
f 142/132/259 141/127/259 140/127/259
f 143/132/260 140/127/260 139/131/260
f 53/129/261 142/132/261 147/133/261
f 142/132/262 143/132/262 146/133/262
f 143/132/263 144/132/263 145/128/263
f 35/127/264 34/71/264 138/135/264
f 141/127/265 138/135/265 137/136/265
f 140/127/266 137/136/266 136/71/266
f 54/72/267 42/130/267 130/77/267
f 130/77/268 131/134/268 134/137/268
f 131/134/269 132/77/269 133/78/269
f 54/72/270 135/137/270 138/135/270
f 138/135/271 135/137/271 134/137/271
f 137/136/272 134/137/272 133/78/272
