# Blender 4.2.1 LTS
# www.blender.org
mtllib enemy_head.mtl
o head
v -0.620812 -0.902003 -2.108807
v -0.620812 0.902003 -2.108807
v -0.400626 -0.907305 -3.513724
v -0.406957 0.771569 -3.510432
v 0.620812 -0.902003 -2.108807
v 0.620812 0.902003 -2.108807
v 0.400626 -0.907305 -3.513724
v 0.406957 0.771569 -3.510432
v -0.793086 -0.334464 -2.108807
v -0.793086 0.000000 -2.108807
v -0.793086 0.334464 -2.108807
v -0.403610 -0.159684 -3.545240
v -0.400626 -0.222192 -3.513724
v -0.400626 -0.296888 -3.513724
v 0.403610 -0.159684 -3.545240
v 0.400626 -0.222192 -3.513724
v 0.400626 -0.296888 -3.513724
v 0.793086 0.334464 -2.108807
v 0.793086 0.000000 -2.108807
v 0.793086 -0.334464 -2.108807
v -0.235702 -0.018626 -4.918411
v -0.235702 -0.398155 -4.918411
v 0.235702 -0.398155 -4.918411
v -0.397643 0.864613 -5.249573
v 0.397643 0.864613 -5.249573
v 0.235702 -0.018626 -4.918411
v -0.394296 0.514650 -5.260058
v 0.394296 0.514650 -5.260058
v 0.000000 -1.062443 -3.523867
v 0.000000 0.909631 -3.523867
v 0.000000 -1.392361 -2.112383
v 0.000000 1.332789 -2.112383
v 0.000000 -0.416662 -2.112383
v 0.000000 -0.029786 -2.112383
v 0.000000 0.357090 -2.112383
v 0.000000 -0.325716 -3.715776
v 0.000000 -0.222192 -3.714590
v 0.000000 -0.159684 -3.716906
v 0.000000 -0.359882 -5.148228
v 0.000000 0.919298 -5.508034
v 0.000000 0.061197 -5.149508
v 0.000000 0.390906 -5.510351
v -0.449255 -0.707592 -3.367206
v -0.449255 0.597891 -3.367206
v 0.449255 -0.707592 -3.367206
v 0.449255 0.597891 -3.367206
v 0.573922 -0.296888 -3.367206
v 0.573922 -0.054851 -3.367206
v 0.573922 0.187187 -3.367206
v -0.573922 -0.296888 -3.367206
v -0.573922 -0.054851 -3.367206
v -0.573922 0.187187 -3.367206
v 0.000000 0.909631 -3.367206
v 0.000000 -1.062443 -3.367206
v 0.402300 1.045174 -4.580608
v -0.402300 1.045174 -4.580608
v -0.398953 0.670641 -4.580608
v 0.398953 0.670641 -4.580608
v 0.000000 0.552471 -4.580608
v 0.000000 1.214717 -4.580608
v -0.404628 0.931930 -4.084241
v 0.401281 0.251294 -3.881763
v 0.404628 0.931930 -4.084241
v -0.401281 0.251294 -3.881763
v 0.000000 0.113290 -3.881763
v 0.000000 1.085733 -4.084241
v 0.399971 0.956606 -4.939375
v -0.396624 0.582073 -4.939375
v 0.000000 0.483737 -4.939375
v 0.000000 1.141890 -4.939375
v -0.399971 0.956606 -4.939375
v 0.396624 0.582073 -4.939375
v -0.235702 -0.214582 -4.277518
v -0.235702 -0.594110 -4.277518
v 0.235702 -0.214582 -4.277518
v 0.235702 -0.594110 -4.277518
v 0.000000 -0.672140 -4.277518
v 0.000000 -0.232569 -4.277518
v -0.235702 -0.155784 -4.636374
v 0.235702 -0.155784 -4.636374
v 0.235702 -0.535313 -4.636374
v 0.000000 -0.604128 -4.636374
v 0.000000 -0.173804 -4.636374
v -0.235702 -0.535313 -4.636374
v -0.235702 -0.652908 -3.918663
v -0.235702 -0.273379 -3.918663
v 0.235702 -0.273379 -3.918663
v 0.235702 -0.652908 -3.918663
v 0.000000 -0.740152 -3.918663
v 0.000000 -0.291335 -3.918663
v -0.542086 -0.788248 -2.889154
v 0.542086 0.786989 -2.889154
v 0.692513 -0.292680 -2.889154
v 0.692513 -0.000630 -2.889154
v 0.692513 0.291421 -2.889154
v 0.000000 1.163146 -2.890715
v 0.000000 -1.216423 -2.890715
v -0.542086 0.786989 -2.889154
v 0.542086 -0.788248 -2.889154
v -0.692513 -0.292680 -2.889154
v -0.692513 -0.000630 -2.889154
v -0.692513 0.291421 -2.889154
vn -0.5354 0.1625 -0.8288
vn -1.0000 -0.0000 -0.0000
vn 0.9477 0.2877 -0.1380
vn 0.0045 -0.0014 1.0000
vn 0.6109 -0.7722 -0.1746
vn -0.5619 0.8083 -0.1762
vn 0.0058 -0.0000 1.0000
vn 0.0045 -0.0000 1.0000
vn 0.9478 -0.2877 -0.1376
vn 0.9918 -0.0000 -0.1278
vn 0.3429 0.8748 -0.3424
vn 0.4497 0.0102 -0.8931
vn 0.4053 -0.4269 -0.8084
vn -0.9491 -0.0000 -0.3150
vn -0.6456 -0.0000 -0.7636
vn -0.7716 -0.3154 -0.5524
vn 0.5351 0.0037 -0.8448
vn 0.6981 -0.0000 -0.7160
vn -0.2035 -0.9664 0.1571
vn -0.0998 0.9046 0.4143
vn 1.0000 -0.0000 -0.0000
vn -0.9999 -0.0094 -0.0053
vn -0.2637 -0.8706 -0.4154
vn 0.9999 -0.0089 -0.0049
vn 0.2540 -0.8698 -0.4230
vn 0.0686 0.8972 0.4363
vn 0.2359 -0.9513 0.1983
vn -0.6981 -0.0000 -0.7160
vn -0.5351 0.0037 -0.8448
vn -0.4053 -0.4269 -0.8084
vn -0.4497 0.0102 -0.8931
vn -0.4056 0.8755 -0.2627
vn -0.0045 -0.0000 1.0000
vn -0.0058 -0.0000 1.0000
vn 0.5616 0.8085 -0.1758
vn -0.6107 -0.7725 -0.1742
vn -0.0045 -0.0014 1.0000
vn -0.4690 -0.5938 0.6537
vn 0.4391 0.6328 0.6377
vn -0.9706 -0.0000 -0.2408
vn -0.9315 -0.2828 -0.2286
vn 0.7716 -0.3154 -0.5524
vn 0.6456 -0.0000 -0.7636
vn 0.9491 -0.0000 -0.3150
vn -0.3213 0.9470 -0.0000
vn 0.3611 -0.9325 -0.0000
vn 0.5354 0.1625 -0.8288
vn -0.9164 0.2782 -0.2880
vn -0.3476 0.9145 0.2070
vn 0.2461 -0.8307 -0.4993
vn 0.9999 -0.0089 -0.0067
vn -0.9999 -0.0072 -0.0076
vn -0.2796 -0.8129 -0.5109
vn 0.3777 0.8962 0.2329
vn 0.3409 0.8969 0.2818
vn -0.3421 -0.4858 -0.8044
vn -0.9999 -0.0032 -0.0108
vn 1.0000 -0.0067 -0.0059
vn 0.2126 -0.6183 -0.7566
vn -0.3030 0.9181 0.2554
vn -0.4099 0.8849 -0.2211
vn 0.2765 -0.9334 0.2286
vn 1.0000 -0.0089 -0.0043
vn -1.0000 -0.0089 -0.0043
vn -0.2366 -0.9543 0.1828
vn 0.3817 0.9058 -0.1839
vn 0.0751 0.9841 0.1612
vn 0.3105 -0.9381 -0.1537
vn -0.3418 -0.9233 -0.1750
vn -0.0750 0.9841 0.1612
vn 0.0752 0.9840 0.1612
vn 0.2769 -0.9483 -0.1554
vn -0.3093 -0.9343 -0.1771
vn -0.0751 0.9841 0.1611
vn -0.9261 -0.0000 -0.3772
vn -0.0749 0.9832 0.1666
vn 0.9261 -0.0000 -0.3772
vn -0.3013 -0.7387 -0.6030
vn 0.2803 -0.7573 -0.5899
vn 0.1256 0.9861 0.1084
vn -0.9477 0.2877 -0.1380
vn -0.9478 -0.2877 -0.1376
vn -0.9918 -0.0000 -0.1278
vn -0.6009 -0.7608 -0.2451
vn 0.5226 0.7532 -0.3994
vn 0.9706 -0.0000 -0.2408
vn 0.9315 -0.2828 -0.2286
vn -0.5232 0.7523 -0.4003
vn 0.6013 -0.7603 -0.2457
vn 0.9164 0.2782 -0.2880
vn -0.9613 0.0068 -0.2756
vn 0.6107 -0.7725 -0.1742
vn -0.5616 0.8085 -0.1758
vn 0.0047 0.0014 1.0000
vn 0.4056 0.8755 -0.2627
vn 0.4482 -0.0000 -0.8939
vn 0.3912 -0.0341 -0.9197
vn -0.6336 -0.1923 -0.7494
vn -0.7226 -0.0000 -0.6913
vn 0.5468 0.0198 -0.8370
vn 0.6997 -0.0022 -0.7144
vn -0.2359 -0.9513 0.1983
vn -0.0686 0.8972 0.4363
vn -0.9999 -0.0089 -0.0049
vn -0.2540 -0.8698 -0.4230
vn 0.9999 -0.0094 -0.0053
vn 0.2637 -0.8706 -0.4154
vn 0.0998 0.9046 0.4143
vn 0.2035 -0.9664 0.1571
vn -0.6997 -0.0022 -0.7144
vn -0.5468 0.0198 -0.8370
vn -0.3912 -0.0341 -0.9197
vn -0.4482 -0.0000 -0.8939
vn -0.3429 0.8748 -0.3424
vn -0.0047 0.0014 1.0000
vn 0.5619 0.8083 -0.1762
vn -0.6109 -0.7722 -0.1746
vn -0.3611 -0.9325 -0.0000
vn 0.3213 0.9470 -0.0000
vn 0.7226 -0.0000 -0.6913
vn 0.6336 -0.1923 -0.7494
vn -0.4391 0.6328 0.6377
vn 0.4690 -0.5938 0.6537
vn 0.9613 0.0068 -0.2756
vn -0.3777 0.8962 0.2329
vn 0.2796 -0.8129 -0.5109
vn 0.9999 -0.0072 -0.0076
vn -0.9999 -0.0089 -0.0067
vn -0.2461 -0.8307 -0.4993
vn 0.3476 0.9145 0.2070
vn 0.3030 0.9181 0.2554
vn -0.2126 -0.6183 -0.7566
vn -1.0000 -0.0067 -0.0059
vn 0.9999 -0.0032 -0.0108
vn 0.3421 -0.4858 -0.8044
vn -0.3409 0.8969 0.2818
vn -0.3817 0.9058 -0.1839
vn 0.2366 -0.9543 0.1828
vn -0.2765 -0.9334 0.2286
vn 0.4099 0.8849 -0.2211
vn 0.0750 0.9841 0.1612
vn 0.3418 -0.9233 -0.1750
vn -0.3105 -0.9381 -0.1537
vn -0.0751 0.9841 0.1612
vn 0.0751 0.9841 0.1611
vn 0.3093 -0.9343 -0.1771
vn -0.2769 -0.9483 -0.1554
vn -0.0752 0.9840 0.1612
vn -0.1256 0.9861 0.1084
vn -0.2803 -0.7573 -0.5899
vn 0.3013 -0.7387 -0.6030
vn 0.0749 0.9832 0.1666
vn -0.6013 -0.7603 -0.2457
vn 0.5232 0.7523 -0.4003
vn -0.5226 0.7532 -0.3994
vn 0.6009 -0.7608 -0.2451
vt 0.625000 0.125000
vt 0.562500 0.250000
vt 0.562500 0.125000
vt 0.437500 0.250000
vt 0.375000 0.250000
vt 0.375000 0.250000
vt 0.625000 0.687500
vt 0.562500 0.750000
vt 0.562500 0.687500
vt 0.562500 0.875000
vt 0.625000 1.000000
vt 0.562500 1.000000
vt 0.250000 0.687500
vt 0.375000 0.750000
vt 0.250000 0.750000
vt 0.750000 0.687500
vt 0.875000 0.750000
vt 0.750000 0.750000
vt 0.437500 0.875000
vt 0.375000 1.000000
vt 0.375000 0.875000
vt 0.500000 0.875000
vt 0.437500 1.000000
vt 0.500000 1.000000
vt 0.375000 0.687500
vt 0.437500 0.750000
vt 0.437500 0.687500
vt 0.500000 0.750000
vt 0.500000 0.687500
vt 0.750000 0.500000
vt 0.625000 0.500000
vt 0.750000 0.500000
vt 0.500000 0.375000
vt 0.437500 0.500000
vt 0.437500 0.375000
vt 0.562500 0.500000
vt 0.500000 0.500000
vt 0.375000 0.125000
vt 0.437500 0.125000
vt 0.500000 0.250000
vt 0.500000 0.125000
vt 0.625000 0.375000
vt 0.562500 0.375000
vt 0.375000 0.375000
vt 0.375000 0.500000
vt 0.437500 0.375000
vt 0.437500 0.500000
vt 0.625000 0.250000
vt 0.250000 0.500000
vt 0.125000 0.500000
vt 0.250000 0.500000
vt 0.562500 0.500000
vt 0.625000 0.500000
vt 0.375000 0.500000
vt 0.875000 0.500000
vt 0.625000 0.750000
vt 0.125000 0.750000
vt 0.125000 0.687500
vt 0.250000 0.625000
vt 0.125000 0.625000
vt 0.750000 0.625000
vt 0.625000 0.625000
vt 0.500000 0.062500
vt 0.437500 0.062500
vt 0.375000 0.062500
vt 0.500000 0.625000
vt 0.437500 0.625000
vt 0.375000 0.625000
vt 0.562500 0.625000
vt 0.562500 0.062500
vt 0.750000 0.500000
vt 0.875000 0.500000
vt 0.562500 0.375000
vt 0.625000 0.500000
vt 0.562500 0.250000
vt 0.562500 0.375000
vt 0.750000 0.500000
vt 0.625000 0.250000
vt 0.437500 0.375000
vt 0.437500 0.250000
vt 0.375000 0.500000
vt 0.250000 0.500000
vt 0.375000 0.500000
vt 0.437500 0.500000
vt 0.562500 0.000000
vt 0.625000 0.062500
vt 0.437500 0.000000
vt 0.375000 0.000000
vt 0.500000 0.000000
vt 0.875000 0.687500
vt 0.625000 0.875000
vt 0.875000 0.625000
vt 0.625000 0.000000
s 0
f 44/1/1 12/2/1 52/3/1
f 79/4/2 22/5/2 84/6/2
f 92/7/3 18/8/3 95/9/3
f 35/10/4 2/11/4 11/12/4
f 97/13/5 5/14/5 31/15/5
f 96/16/6 2/17/6 32/18/6
f 33/19/7 1/20/7 31/21/7
f 34/22/8 9/23/8 33/19/8
f 35/10/8 10/24/8 34/22/8
f 99/25/9 20/26/9 5/14/9
f 93/27/10 19/28/10 20/26/10
f 95/9/10 19/28/10 94/29/10
f 70/30/11 25/31/11 40/32/11
f 37/33/12 17/34/12 36/35/12
f 37/33/13 15/36/13 16/37/13
f 43/38/14 14/4/14 3/5/14
f 50/39/15 13/40/15 14/4/15
f 51/41/16 12/2/16 13/40/16
f 40/42/17 28/36/17 42/43/17
f 39/44/18 26/34/18 23/45/18
f 69/43/19 27/2/19 42/43/19
f 83/46/20 26/34/20 41/35/20
f 80/47/21 23/45/21 26/34/21
f 68/2/22 24/48/22 27/2/22
f 82/49/23 22/50/23 39/51/23
f 72/52/24 25/31/24 67/53/24
f 82/49/25 23/45/25 81/54/25
f 83/46/26 21/4/26 79/4/26
f 69/43/27 28/36/27 72/52/27
f 21/4/28 39/44/28 22/5/28
f 27/2/29 40/42/29 42/43/29
f 12/2/30 37/33/30 13/40/30
f 14/4/31 37/33/31 36/35/31
f 70/30/32 24/55/32 71/55/32
f 19/28/33 35/10/33 34/22/33
f 20/26/33 34/22/33 33/19/33
f 5/14/34 33/19/34 31/21/34
f 96/16/35 6/56/35 92/7/35
f 97/13/36 1/57/36 91/58/36
f 6/56/37 35/10/37 18/8/37
f 3/50/38 54/59/38 43/60/38
f 8/31/39 53/61/39 46/62/39
f 101/63/40 52/3/40 51/41/40
f 100/64/40 51/41/40 50/39/40
f 100/64/41 43/38/41 91/65/41
f 15/36/42 48/66/42 16/37/42
f 16/37/43 47/67/43 17/34/43
f 17/34/44 45/68/44 7/45/44
f 4/55/45 53/61/45 30/32/45
f 7/45/46 54/59/46 29/51/46
f 15/36/47 46/62/47 49/69/47
f 102/70/48 44/1/48 52/3/48
f 66/71/49 56/55/49 61/72/49
f 62/36/50 59/73/50 58/36/50
f 63/74/51 58/36/51 55/31/51
f 61/48/52 57/75/52 64/2/52
f 64/2/53 59/73/53 65/76/53
f 66/71/54 55/31/54 60/77/54
f 30/32/55 63/74/55 66/71/55
f 12/2/56 65/76/56 38/43/56
f 4/48/57 64/2/57 12/2/57
f 8/31/58 62/36/58 63/74/58
f 15/36/59 65/76/59 62/36/59
f 30/32/60 61/72/60 4/55/60
f 56/55/61 70/30/61 71/55/61
f 59/73/62 72/52/62 58/36/62
f 58/36/63 67/53/63 55/31/63
f 57/75/64 71/78/64 68/2/64
f 59/73/65 68/2/65 69/43/65
f 55/31/66 70/30/66 60/77/66
f 86/4/67 78/79/67 73/80/67
f 88/81/68 77/82/68 76/83/68
f 85/50/69 77/82/69 89/51/69
f 87/47/21 76/83/21 75/84/21
f 87/47/70 78/79/70 90/35/70
f 86/4/2 74/5/2 85/5/2
f 73/80/71 83/46/71 79/4/71
f 76/83/72 82/49/72 81/54/72
f 74/50/73 82/49/73 77/82/73
f 75/84/21 81/54/21 80/47/21
f 75/84/74 83/46/74 78/79/74
f 73/80/2 84/6/2 74/5/2
f 14/4/75 85/5/75 3/5/75
f 36/35/76 87/47/76 90/35/76
f 17/34/77 88/81/77 87/47/77
f 3/50/78 89/51/78 29/51/78
f 7/45/79 89/51/79 88/81/79
f 36/35/80 86/4/80 14/4/80
f 11/85/81 98/86/81 102/70/81
f 9/87/82 91/65/82 1/88/82
f 10/89/83 100/64/83 9/87/83
f 10/89/83 102/70/83 101/63/83
f 54/59/84 91/58/84 43/60/84
f 53/61/85 92/7/85 46/62/85
f 49/69/86 94/29/86 48/66/86
f 48/66/86 93/27/86 47/67/86
f 45/68/87 93/27/87 99/25/87
f 53/61/88 98/90/88 96/16/88
f 54/59/89 99/25/89 97/13/89
f 46/62/90 95/9/90 49/69/90
f 44/1/91 4/48/91 12/2/91
f 79/4/2 21/4/2 22/5/2
f 92/7/3 6/56/3 18/8/3
f 35/10/7 32/91/7 2/11/7
f 97/13/92 99/25/92 5/14/92
f 96/16/93 98/90/93 2/17/93
f 33/19/94 9/23/94 1/20/94
f 34/22/8 10/24/8 9/23/8
f 35/10/8 11/12/8 10/24/8
f 99/25/9 93/27/9 20/26/9
f 93/27/10 94/29/10 19/28/10
f 95/9/10 18/8/10 19/28/10
f 70/30/95 67/53/95 25/31/95
f 37/33/96 16/37/96 17/34/96
f 37/33/97 38/43/97 15/36/97
f 43/38/98 50/39/98 14/4/98
f 50/39/15 51/41/15 13/40/15
f 51/41/99 52/3/99 12/2/99
f 40/42/100 25/31/100 28/36/100
f 39/44/101 41/35/101 26/34/101
f 69/43/102 68/2/102 27/2/102
f 83/46/103 80/47/103 26/34/103
f 80/47/21 81/54/21 23/45/21
f 68/2/104 71/78/104 24/48/104
f 82/49/105 84/50/105 22/50/105
f 72/52/106 28/36/106 25/31/106
f 82/49/107 39/51/107 23/45/107
f 83/46/108 41/35/108 21/4/108
f 69/43/109 42/43/109 28/36/109
f 21/4/110 41/35/110 39/44/110
f 27/2/111 24/48/111 40/42/111
f 12/2/112 38/43/112 37/33/112
f 14/4/113 13/40/113 37/33/113
f 70/30/114 40/32/114 24/55/114
f 19/28/33 18/8/33 35/10/33
f 20/26/33 19/28/33 34/22/33
f 5/14/115 20/26/115 33/19/115
f 96/16/116 32/18/116 6/56/116
f 97/13/117 31/15/117 1/57/117
f 6/56/34 32/91/34 35/10/34
f 3/50/118 29/51/118 54/59/118
f 8/31/119 30/32/119 53/61/119
f 101/63/40 102/70/40 52/3/40
f 100/64/40 101/63/40 51/41/40
f 100/64/41 50/39/41 43/38/41
f 15/36/120 49/69/120 48/66/120
f 16/37/43 48/66/43 47/67/43
f 17/34/121 47/67/121 45/68/121
f 4/55/122 44/92/122 53/61/122
f 7/45/123 45/68/123 54/59/123
f 15/36/124 8/31/124 46/62/124
f 102/70/48 98/86/48 44/1/48
f 66/71/125 60/77/125 56/55/125
f 62/36/126 65/76/126 59/73/126
f 63/74/127 62/36/127 58/36/127
f 61/48/128 56/48/128 57/75/128
f 64/2/129 57/75/129 59/73/129
f 66/71/130 63/74/130 55/31/130
f 30/32/131 8/31/131 63/74/131
f 12/2/132 64/2/132 65/76/132
f 4/48/133 61/48/133 64/2/133
f 8/31/134 15/36/134 62/36/134
f 15/36/135 38/43/135 65/76/135
f 30/32/136 66/71/136 61/72/136
f 56/55/137 60/77/137 70/30/137
f 59/73/138 69/43/138 72/52/138
f 58/36/63 72/52/63 67/53/63
f 57/75/64 56/48/64 71/78/64
f 59/73/139 57/75/139 68/2/139
f 55/31/140 67/53/140 70/30/140
f 86/4/141 90/35/141 78/79/141
f 88/81/142 89/51/142 77/82/142
f 85/50/143 74/50/143 77/82/143
f 87/47/21 88/81/21 76/83/21
f 87/47/144 75/84/144 78/79/144
f 86/4/2 73/80/2 74/5/2
f 73/80/145 78/79/145 83/46/145
f 76/83/146 77/82/146 82/49/146
f 74/50/147 84/50/147 82/49/147
f 75/84/21 76/83/21 81/54/21
f 75/84/148 80/47/148 83/46/148
f 73/80/2 79/4/2 84/6/2
f 14/4/75 86/4/75 85/5/75
f 36/35/149 17/34/149 87/47/149
f 17/34/77 7/45/77 88/81/77
f 3/50/150 85/50/150 89/51/150
f 7/45/151 29/51/151 89/51/151
f 36/35/152 90/35/152 86/4/152
f 11/85/81 2/93/81 98/86/81
f 9/87/82 100/64/82 91/65/82
f 10/89/83 101/63/83 100/64/83
f 10/89/83 11/85/83 102/70/83
f 54/59/153 97/13/153 91/58/153
f 53/61/154 96/16/154 92/7/154
f 49/69/86 95/9/86 94/29/86
f 48/66/86 94/29/86 93/27/86
f 45/68/87 47/67/87 93/27/87
f 53/61/155 44/92/155 98/90/155
f 54/59/156 45/68/156 99/25/156
f 46/62/90 92/7/90 95/9/90
