# Blender 4.2.1 LTS
# www.blender.org
mtllib bulletItem.mtl
o Cube
v 0.818342 1.189378 1.414206
v 1.633903 2.338880 -0.004776
v -0.002745 0.032087 0.004776
v 0.812816 1.181588 -1.414206
v -0.812816 2.346670 1.414206
v 0.002745 3.496171 -0.004776
v -1.633903 1.189378 0.004776
v -0.818342 2.338880 -1.414206
vn -0.4078 -0.5748 0.7095
vn -0.4105 -0.5786 -0.7047
vn -0.8156 0.5786 -0.0000
vn 0.4078 0.5748 -0.7095
vn 0.8156 -0.5786 -0.0000
vn 0.4105 0.5786 0.7047
vt 1.000000 0.000000
vt 0.000000 1.000000
vt 0.000000 0.000000
vt 1.000000 1.000000
s 0
usemtl Material
f 5/1/1 3/2/1 1/3/1
f 3/1/2 8/2/2 4/3/2
f 7/1/3 6/2/3 8/3/3
f 2/1/4 8/2/4 6/3/4
f 1/1/5 4/2/5 2/3/5
f 5/1/6 2/2/6 6/3/6
f 5/1/1 7/4/1 3/2/1
f 3/1/2 7/4/2 8/2/2
f 7/1/3 5/4/3 6/2/3
f 2/1/4 4/4/4 8/2/4
f 1/1/5 3/4/5 4/2/5
f 5/1/6 1/4/6 2/2/6
