# Blender 4.2.1 LTS
# www.blender.org
mtllib player_body.mtl
o body
v -0.231313 0.302763 -0.061713
v -0.470077 1.927855 0.581314
v -0.231313 0.421106 -0.624352
v -0.470077 2.167541 -0.558229
v 0.234407 0.302763 -0.061713
v 0.473171 1.927855 0.581314
v 0.234407 0.421106 -0.624352
v 0.473171 2.167541 -0.558229
v -0.470077 1.708165 0.535105
v -0.470077 1.947851 -0.604437
v 0.473171 1.947851 -0.604437
v 0.473171 1.708165 0.535105
v -0.267260 0.361935 -0.343033
v -0.542881 2.168053 0.036857
v 0.270353 0.361935 -0.343033
v 0.545975 2.168053 0.036857
v 0.545975 1.914449 -0.016484
v -0.542881 1.914449 -0.016484
v 0.001547 0.430240 -0.667779
v 0.001547 2.306396 -0.620869
v 0.001547 0.293629 -0.018286
v 0.001547 2.029710 0.694583
v 0.001547 1.776106 0.641241
v 0.001547 2.052792 -0.674210
v 0.001547 2.310112 0.066737
v 0.001547 0.361935 -0.343033
v -0.469120 1.140396 -0.773066
v 0.472214 1.140396 -0.773066
v 0.472214 0.901197 0.364164
v -0.469120 0.901197 0.364164
v -0.541776 0.982631 -0.212479
v 0.544870 0.982631 -0.212479
v 0.001547 1.120692 -0.868869
v 0.001547 0.844569 0.443912
vn -0.9923 0.0255 -0.1214
vn 0.1872 0.2022 -0.9613
vn 0.9923 -0.0255 0.1214
vn -0.1872 -0.2022 0.9613
vn -0.0000 -0.9786 -0.2058
vn -0.2831 0.8757 0.3911
vn -0.1873 -0.2038 0.9609
vn 0.9923 -0.0269 0.1212
vn 0.1873 0.2006 -0.9616
vn -0.9923 0.0243 -0.1218
vn -0.9923 -0.0269 0.1212
vn 0.9923 0.0243 -0.1218
vn -0.2831 0.9591 -0.0052
vn 0.9923 0.0255 -0.1214
vn -0.9923 -0.0255 0.1214
vn 0.2507 0.9675 -0.0315
vn -0.1873 0.2006 -0.9616
vn 0.1873 -0.2038 0.9609
vn 0.2507 0.8729 0.4186
vn 0.1872 -0.2022 0.9613
vn -0.1872 0.2022 -0.9613
vn 0.1658 -0.6338 0.7555
vn -0.1658 -0.2758 -0.9468
vn 0.9117 -0.3627 -0.1928
vn -0.9118 -0.4096 0.0303
vn -0.9118 -0.3627 -0.1928
vn 0.1658 -0.2758 -0.9468
vn 0.9118 -0.4096 0.0303
vn -0.1658 -0.6338 0.7555
vn -0.2507 0.8729 0.4186
vn -0.1869 -0.2036 0.9610
vn 0.9923 -0.0266 0.1210
vn 0.1870 0.2008 -0.9616
vn -0.9923 0.0244 -0.1215
vn -0.9923 -0.0266 0.1210
vn 0.9923 0.0244 -0.1215
vn -0.2507 0.9675 -0.0315
vn 0.2831 0.9591 -0.0052
vn -0.1869 0.2008 -0.9616
vn 0.1869 -0.2036 0.9610
vn 0.2831 0.8757 0.3911
vn 0.2030 -0.6200 0.7579
vn -0.2030 -0.2622 -0.9434
vn 0.9129 -0.3464 -0.2158
vn -0.9129 -0.4040 0.0580
vn -0.9129 -0.3464 -0.2158
vn 0.2030 -0.2622 -0.9434
vn 0.9129 -0.4040 0.0580
vn -0.2030 -0.6200 0.7579
vt 0.500000 0.125000
vt 0.625000 0.250000
vt 0.500000 0.250000
vt 0.500000 0.375000
vt 0.625000 0.500000
vt 0.500000 0.500000
vt 0.500000 0.625000
vt 0.625000 0.750000
vt 0.500000 0.750000
vt 0.500000 0.875000
vt 0.625000 1.000000
vt 0.500000 1.000000
vt 0.250000 0.625000
vt 0.375000 0.750000
vt 0.250000 0.750000
vt 0.750000 0.625000
vt 0.875000 0.750000
vt 0.750000 0.750000
vt 0.437500 0.875000
vt 0.437500 1.000000
vt 0.437500 0.625000
vt 0.437500 0.750000
vt 0.437500 0.375000
vt 0.437500 0.500000
vt 0.437500 0.125000
vt 0.437500 0.250000
vt 0.500000 0.000000
vt 0.437500 0.000000
vt 0.875000 0.500000
vt 0.750000 0.500000
vt 0.375000 0.500000
vt 0.250000 0.500000
vt 0.625000 0.000000
vt 0.125000 0.500000
vt 0.125000 0.625000
vt 0.625000 0.625000
vt 0.125000 0.750000
vt 0.375000 0.875000
vt 0.375000 0.250000
vt 0.375000 0.375000
vt 0.375000 0.625000
vt 0.375000 0.000000
vt 0.375000 0.125000
vt 0.375000 1.000000
vt 0.625000 0.125000
vt 0.625000 0.375000
vt 0.625000 0.875000
vt 0.875000 0.625000
s 0
f 18/1/1 4/2/1 10/3/1
f 24/4/2 8/5/2 11/6/2
f 17/7/3 6/8/3 12/9/3
f 23/10/4 2/11/4 9/12/4
f 26/13/5 5/14/5 21/15/5
f 25/16/6 2/17/6 22/18/6
f 34/19/7 9/12/7 30/20/7
f 32/21/8 12/9/8 29/22/8
f 33/23/9 11/6/9 28/24/9
f 31/25/10 10/3/10 27/26/10
f 9/27/11 31/25/11 30/28/11
f 11/6/12 32/21/12 28/24/12
f 4/29/13 25/16/13 20/30/13
f 7/31/5 26/13/5 19/32/5
f 8/5/14 17/7/14 11/6/14
f 2/33/15 18/1/15 9/27/15
f 3/34/5 26/13/5 13/35/5
f 8/5/16 25/16/16 16/36/16
f 10/3/17 33/23/17 27/26/17
f 12/9/18 34/19/18 29/22/18
f 25/16/19 6/8/19 16/36/19
f 26/13/5 1/37/5 13/35/5
f 6/8/20 23/10/20 12/9/20
f 4/2/21 24/4/21 10/3/21
f 5/14/22 34/19/22 21/38/22
f 3/39/23 33/23/23 19/40/23
f 7/31/24 32/21/24 15/41/24
f 1/42/25 31/25/25 13/43/25
f 31/25/26 3/39/26 13/43/26
f 33/23/27 7/31/27 19/40/27
f 32/21/28 5/14/28 15/41/28
f 34/19/29 1/44/29 21/38/29
f 18/1/1 14/45/1 4/2/1
f 24/4/2 20/46/2 8/5/2
f 17/7/3 16/36/3 6/8/3
f 23/10/4 22/47/4 2/11/4
f 26/13/5 15/41/5 5/14/5
f 25/16/30 14/48/30 2/17/30
f 34/19/31 23/10/31 9/12/31
f 32/21/32 17/7/32 12/9/32
f 33/23/33 24/4/33 11/6/33
f 31/25/34 18/1/34 10/3/34
f 9/27/35 18/1/35 31/25/35
f 11/6/36 17/7/36 32/21/36
f 4/29/37 14/48/37 25/16/37
f 7/31/5 15/41/5 26/13/5
f 8/5/14 16/36/14 17/7/14
f 2/33/15 14/45/15 18/1/15
f 3/34/5 19/32/5 26/13/5
f 8/5/38 20/30/38 25/16/38
f 10/3/39 24/4/39 33/23/39
f 12/9/40 23/10/40 34/19/40
f 25/16/41 22/18/41 6/8/41
f 26/13/5 21/15/5 1/37/5
f 6/8/20 22/47/20 23/10/20
f 4/2/21 20/46/21 24/4/21
f 5/14/42 29/22/42 34/19/42
f 3/39/43 27/26/43 33/23/43
f 7/31/44 28/24/44 32/21/44
f 1/42/45 30/28/45 31/25/45
f 31/25/46 27/26/46 3/39/46
f 33/23/47 28/24/47 7/31/47
f 32/21/48 29/22/48 5/14/48
f 34/19/49 30/20/49 1/44/49
