# Blender 4.2.1 LTS
# www.blender.org
mtllib player_r_leg.mtl
o right_leg
v 0.012775 -0.938324 0.307597
v 0.012775 -0.938324 0.646419
v 0.100202 -0.243839 -0.073261
v 0.100202 0.000866 0.457249
v -0.260571 -0.938324 0.307597
v -0.260571 -0.938324 0.646419
v -0.194051 -0.243839 -0.073261
v -0.106695 0.000866 0.457249
v 0.030446 -0.641829 0.302982
v 0.030446 -0.473294 0.668359
v -0.278242 -0.641829 0.302982
v -0.278242 -0.473294 0.668359
v 0.100202 0.153608 -0.090770
v -0.106695 0.153608 -0.090770
vn 0.9911 -0.1210 0.0558
vn -0.9743 0.2168 0.0604
vn -0.9982 -0.0595 -0.0000
vn -0.0000 -1.0000 -0.0000
vn -0.0000 -0.0156 -0.9999
vn -0.0000 -0.0471 0.9989
vn -0.0000 0.4067 0.9135
vn -0.0000 -0.6870 -0.7267
vn -0.9678 0.2475 0.0452
vn 0.9982 -0.0595 -0.0000
vn -0.0000 -0.0440 -0.9990
vn 1.0000 -0.0000 -0.0000
vn -0.0000 0.9633 0.2685
vn -0.9991 -0.0388 0.0179
vn -0.9495 0.2850 -0.1315
vn 0.9991 -0.0388 0.0179
vt 0.375000 0.125000
vt 0.625000 0.250000
vt 0.375000 0.250000
vt 0.625000 0.500000
vt 0.375000 0.500000
vt 0.375000 0.625000
vt 0.625000 0.750000
vt 0.375000 0.750000
vt 0.375000 1.000000
vt 0.125000 0.625000
vt 0.125000 0.750000
vt 0.875000 0.625000
vt 0.625000 0.625000
vt 0.125000 0.500000
vt 0.625000 0.000000
vt 0.375000 0.000000
vt 0.875000 0.500000
vt 0.625000 0.125000
vt 0.625000 1.000000
vt 0.875000 0.750000
s 0
f 9/1/1 3/3/1 4/2/1
f 8/4/2 14/5/2 7/5/2
f 11/6/3 5/8/3 6/7/3
f 6/7/4 5/8/4 1/9/4
f 9/10/5 1/11/5 5/8/5
f 10/12/6 12/13/6 6/7/6
f 8/4/7 12/13/7 10/12/7
f 7/5/8 3/14/8 9/10/8
f 8/4/9 7/5/9 11/6/9
f 2/15/10 1/16/10 9/1/10
f 3/14/11 7/5/11 14/5/11
f 3/3/12 13/3/12 4/2/12
f 8/4/13 4/17/13 13/3/13
f 9/1/1 4/2/1 10/18/1
f 11/6/14 6/7/14 12/13/14
f 6/7/4 1/9/4 2/19/4
f 9/10/5 5/8/5 11/6/5
f 10/12/6 6/7/6 2/20/6
f 8/4/7 10/12/7 4/17/7
f 7/5/8 9/10/8 11/6/8
f 8/4/15 11/6/15 12/13/15
f 2/15/16 9/1/16 10/18/16
f 3/14/11 14/5/11 13/14/11
f 8/4/13 13/3/13 14/5/13
