# Blender 4.2.1 LTS
# www.blender.org
mtllib player_head.mtl
o head
v 0.181541 3.546773 0.078445
v 0.336933 3.801145 0.131948
v 0.176974 3.584536 -0.101094
v 0.332367 3.820561 0.039637
v 0.413345 3.507974 0.057559
v 0.447453 3.776581 0.114057
v 0.408779 3.545737 -0.121980
v 0.442887 3.795997 0.021745
v -0.213386 2.444749 1.157173
v -0.213386 2.848311 1.311917
v -0.414545 2.703508 -0.321494
v -0.414545 3.596856 -0.133591
v 0.213386 2.444749 1.157173
v 0.213386 2.848311 1.311917
v 0.414545 2.703508 -0.321494
v 0.414545 3.596856 -0.133591
v -0.524112 2.554026 0.158005
v -0.260146 2.643941 1.246854
v -0.455739 3.444201 0.592181
v -0.524112 2.984920 -0.374268
v 0.000000 2.559690 -0.463709
v 0.000000 3.691129 -0.225728
v 0.524112 2.984920 -0.374268
v 0.524112 2.554026 0.158005
v 0.455739 3.444201 0.592181
v 0.260146 2.643941 1.246854
v 0.000000 2.370085 1.182535
v 0.000000 2.879755 1.389601
v -0.649225 2.859451 0.222247
v 0.000000 3.032248 -0.599283
v 0.649225 2.859451 0.222247
v 0.000000 2.623742 1.342884
v 0.000000 2.425904 0.136997
v 0.000000 3.502620 0.670502
v -0.295036 2.487640 0.556569
v -0.295036 3.065077 0.678024
v 0.295036 2.487640 0.556569
v 0.295036 3.065077 0.678024
v -0.394235 2.771546 0.640176
v 0.394235 2.771546 0.640176
v 0.000000 2.403136 0.563463
v 0.000000 3.157340 0.721321
v -0.181541 3.546773 0.078445
v -0.336933 3.801145 0.131948
v -0.176974 3.584536 -0.101094
v -0.332367 3.820561 0.039637
v -0.413345 3.507974 0.057559
v -0.447453 3.776581 0.114057
v -0.408779 3.545737 -0.121980
v -0.442887 3.795997 0.021745
vn -0.8613 0.4923 0.1255
vn 0.9930 -0.1078 -0.0479
vn 0.0075 0.5085 -0.8611
vn 0.0484 -0.2338 0.9711
vn -0.1791 -0.9637 -0.1981
vn 0.2420 0.9518 0.1882
vn -0.8201 -0.4055 0.4038
vn -0.8155 0.2059 0.5409
vn -0.9606 0.2321 -0.1527
vn -0.9028 -0.3063 -0.3018
vn -0.3915 -0.2538 -0.8845
vn -0.3922 0.3967 -0.8300
vn 0.3922 0.3967 -0.8300
vn 0.3915 -0.2538 -0.8845
vn 0.9028 -0.3063 -0.3018
vn 0.9606 0.2321 -0.1527
vn 0.9597 0.1425 0.2421
vn 0.9296 -0.3546 0.1010
vn 0.2762 -0.5135 0.8124
vn 0.3529 -0.2096 0.9119
vn -0.3529 -0.2096 0.9119
vn -0.2762 -0.5135 0.8124
vn -0.2362 -0.9110 -0.3380
vn 0.3819 -0.9021 -0.2009
vn 0.3245 -0.9445 -0.0504
vn -0.2745 -0.9611 -0.0313
vn 0.1576 0.9681 0.1947
vn -0.1741 0.9636 0.2027
vn -0.2658 0.8903 0.3698
vn 0.3258 0.8809 0.3432
vn 0.1853 0.1416 0.9724
vn -0.1873 0.1430 0.9718
vn -0.2383 -0.9709 -0.0247
vn 0.2739 -0.9604 -0.0513
vn 0.8201 -0.4055 0.4038
vn 0.8155 0.2059 0.5409
vn -0.9597 0.1425 0.2421
vn -0.9296 -0.3546 0.1010
vn -0.8613 -0.4923 -0.1255
vn 0.9930 0.1078 0.0479
vn 0.0075 -0.5085 0.8611
vn 0.0484 0.2338 -0.9711
vn -0.1791 0.9637 0.1981
vn 0.2420 -0.9518 -0.1882
vn -0.8576 0.4931 0.1461
vn 0.9912 -0.1107 -0.0723
vn -0.0288 0.5008 -0.8651
vn 0.1086 -0.2178 0.9699
vn -0.8119 -0.4182 0.4074
vn -0.7407 -0.1666 0.6508
vn -0.9513 0.3080 0.0108
vn -0.8800 -0.3927 -0.2672
vn -0.3527 -0.3033 -0.8852
vn -0.2922 0.4717 -0.8320
vn 0.2922 0.4717 -0.8320
vn 0.3527 -0.3033 -0.8852
vn 0.8800 -0.3927 -0.2672
vn 0.9513 0.3080 0.0108
vn 0.9327 0.2871 0.2183
vn 0.9458 -0.2888 0.1483
vn 0.3397 -0.4513 0.8252
vn 0.3148 -0.1704 0.9337
vn -0.3148 -0.1704 0.9337
vn -0.3397 -0.4513 0.8252
vn -0.3819 -0.9021 -0.2009
vn 0.2362 -0.9110 -0.3380
vn 0.2745 -0.9611 -0.0313
vn -0.3245 -0.9445 -0.0504
vn 0.1741 0.9636 0.2027
vn -0.1576 0.9681 0.1947
vn -0.3258 0.8809 0.3432
vn 0.2658 0.8903 0.3698
vn 0.1873 0.1430 0.9718
vn -0.1853 0.1416 0.9724
vn -0.2739 -0.9604 -0.0513
vn 0.2383 -0.9709 -0.0247
vn 0.8119 -0.4183 0.4074
vn 0.7407 -0.1666 0.6508
vn -0.9327 0.2871 0.2183
vn -0.9458 -0.2888 0.1483
vn -0.8576 -0.4931 -0.1461
vn 0.9912 0.1107 0.0723
vn -0.0288 -0.5008 0.8651
vn 0.1086 0.2178 -0.9699
vt 0.375000 0.000000
vt 0.625000 0.250000
vt 0.375000 0.250000
vt 0.625000 0.500000
vt 0.375000 0.750000
vt 0.375000 0.500000
vt 0.625000 1.000000
vt 0.375000 1.000000
vt 0.125000 0.500000
vt 0.125000 0.750000
vt 0.875000 0.500000
vt 0.625000 0.750000
vt 0.500000 0.062500
vt 0.375000 0.125000
vt 0.375000 0.062500
vt 0.625000 0.062500
vt 0.500000 0.125000
vt 0.500000 0.250000
vt 0.500000 0.375000
vt 0.375000 0.375000
vt 0.500000 0.500000
vt 0.500000 0.625000
vt 0.375000 0.625000
vt 0.500000 0.687500
vt 0.500000 0.750000
vt 0.375000 0.687500
vt 0.500000 0.875000
vt 0.375000 0.875000
vt 0.625000 1.000000
vt 0.500000 1.000000
vt 0.375000 1.000000
vt 0.125000 0.500000
vt 0.250000 0.625000
vt 0.125000 0.625000
vt 0.250000 0.500000
vt 0.250000 0.687500
vt 0.250000 0.750000
vt 0.125000 0.750000
vt 0.125000 0.687500
vt 0.750000 0.625000
vt 0.625000 0.625000
vt 0.875000 0.500000
vt 0.750000 0.500000
vt 0.750000 0.687500
vt 0.875000 0.750000
vt 0.750000 0.750000
vt 0.625000 0.687500
vt 0.875000 0.687500
vt 0.625000 0.000000
vt 0.500000 0.000000
vt 0.375000 0.000000
vt 0.625000 0.000000
vt 0.875000 0.750000
vt 0.625000 0.125000
vt 0.625000 0.375000
vt 0.625000 0.875000
vt 0.875000 0.625000
s 0
f 1/1/1 4/2/1 3/3/1
f 8/4/2 5/5/2 7/6/2
f 4/2/3 7/6/3 3/3/3
f 5/5/4 2/7/4 1/8/4
f 3/9/5 5/5/5 1/10/5
f 4/11/6 6/12/6 8/4/6
f 39/13/7 17/14/7 35/15/7
f 36/16/8 29/17/8 39/13/8
f 29/17/9 12/2/9 20/18/9
f 29/17/10 11/3/10 17/14/10
f 11/3/11 30/19/11 21/20/11
f 12/2/12 30/19/12 20/18/12
f 30/19/13 16/4/13 23/21/13
f 30/19/14 15/6/14 21/20/14
f 15/6/15 31/22/15 24/23/15
f 16/4/16 31/22/16 23/21/16
f 40/24/17 14/12/17 26/25/17
f 40/24/18 13/5/18 37/26/18
f 13/5/19 32/27/19 27/28/19
f 14/12/20 32/27/20 26/25/20
f 32/27/21 10/29/21 18/30/21
f 32/27/22 9/31/22 27/28/22
f 11/32/23 33/33/23 17/34/23
f 15/6/24 33/33/24 21/35/24
f 41/36/25 13/5/25 27/37/25
f 41/36/26 9/38/26 35/39/26
f 16/4/27 34/40/27 25/41/27
f 12/42/28 34/40/28 22/43/28
f 42/44/29 10/45/29 28/46/29
f 42/44/30 14/12/30 38/47/30
f 34/40/31 38/47/31 25/41/31
f 34/40/32 36/48/32 42/44/32
f 33/33/33 35/39/33 17/34/33
f 33/33/34 37/26/34 41/36/34
f 24/23/35 40/24/35 37/26/35
f 31/22/36 38/47/36 40/24/36
f 10/49/37 39/13/37 18/50/37
f 9/51/38 39/13/38 35/15/38
f 43/1/39 46/2/39 45/3/39
f 50/4/40 47/5/40 49/6/40
f 46/2/41 49/6/41 45/3/41
f 47/5/42 44/7/42 43/8/42
f 45/9/43 47/5/43 43/10/43
f 46/11/44 48/12/44 50/4/44
f 1/1/45 2/52/45 4/2/45
f 8/4/46 6/12/46 5/5/46
f 4/2/47 8/4/47 7/6/47
f 5/5/48 6/12/48 2/7/48
f 3/9/5 7/6/5 5/5/5
f 4/11/6 2/53/6 6/12/6
f 39/13/49 29/17/49 17/14/49
f 36/16/50 19/54/50 29/17/50
f 29/17/51 19/54/51 12/2/51
f 29/17/52 20/18/52 11/3/52
f 11/3/53 20/18/53 30/19/53
f 12/2/54 22/55/54 30/19/54
f 30/19/55 22/55/55 16/4/55
f 30/19/56 23/21/56 15/6/56
f 15/6/57 23/21/57 31/22/57
f 16/4/58 25/41/58 31/22/58
f 40/24/59 38/47/59 14/12/59
f 40/24/60 26/25/60 13/5/60
f 13/5/61 26/25/61 32/27/61
f 14/12/62 28/56/62 32/27/62
f 32/27/63 28/56/63 10/29/63
f 32/27/64 18/30/64 9/31/64
f 11/32/65 21/35/65 33/33/65
f 15/6/66 24/23/66 33/33/66
f 41/36/67 37/26/67 13/5/67
f 41/36/68 27/37/68 9/38/68
f 16/4/69 22/43/69 34/40/69
f 12/42/70 19/57/70 34/40/70
f 42/44/71 36/48/71 10/45/71
f 42/44/72 28/46/72 14/12/72
f 34/40/73 42/44/73 38/47/73
f 34/40/74 19/57/74 36/48/74
f 33/33/75 41/36/75 35/39/75
f 33/33/76 24/23/76 37/26/76
f 24/23/77 31/22/77 40/24/77
f 31/22/78 25/41/78 38/47/78
f 10/49/79 36/16/79 39/13/79
f 9/51/80 18/50/80 39/13/80
f 43/1/81 44/52/81 46/2/81
f 50/4/82 48/12/82 47/5/82
f 46/2/83 50/4/83 49/6/83
f 47/5/84 48/12/84 44/7/84
f 45/9/43 49/6/43 47/5/43
f 46/11/44 44/53/44 48/12/44
