# Blender 4.1.1
# www.blender.org
mtllib playerHead.mtl
o 立方体.002
v 0.000000 4.500000 -0.000000
v 0.499995 4.649346 0.162456
v 0.000000 4.649348 0.525730
v -0.499995 4.649345 0.162456
v 0.309011 4.649346 -0.425323
v -0.309011 4.649346 -0.425323
v -0.525725 5.052781 -0.723607
v -0.809011 4.974262 -0.262869
v 0.000000 4.974264 -0.850648
v 0.525725 5.052781 -0.723607
v 0.309013 5.500000 -0.951058
v -0.309012 5.500000 -0.951058
v 0.000000 5.947216 -0.894426
v -0.499997 6.025736 -0.688189
v -0.809017 5.500000 -0.587785
v -0.850649 5.947220 -0.276388
v -1.000000 5.500000 0.000000
v -0.850649 5.052780 0.276388
v -0.809011 6.025738 0.262869
v -0.809017 5.500000 0.587786
v -0.525725 5.947219 0.723607
v -0.309012 5.500000 0.951058
v -0.499997 4.974264 0.688189
v 0.000000 5.052784 0.894426
v 0.499997 4.974264 0.688189
v 0.309013 5.500000 0.951058
v 0.525725 5.947220 0.723607
v 0.000000 6.025736 0.850648
v 0.809017 5.500000 0.587785
v 0.850649 5.052780 0.276388
v 0.809012 6.025738 0.262869
v 1.000000 5.500000 -0.000000
v 0.850649 5.947220 -0.276388
v 0.809017 5.500000 -0.587786
v 0.809012 4.974262 -0.262869
v 0.499997 6.025736 -0.688189
v 0.499995 6.350655 -0.162456
v 0.000000 6.350652 -0.525730
v 0.000000 6.500000 -0.000000
v -0.499995 6.350654 -0.162456
v -0.309011 6.350654 0.425323
v 0.309012 6.350655 0.425323
vn 0.1947 -0.9435 0.2680
vn 0.3151 -0.9435 -0.1024
vn -0.1947 -0.9435 0.2680
vn -0.3151 -0.9435 -0.1024
vn -0.0000 -0.9435 -0.3313
vn -0.2680 -0.6617 -0.7002
vn -0.5831 -0.6617 -0.4713
vn -0.5773 -0.7947 -0.1876
vn -0.0000 -0.7947 -0.6071
vn 0.2680 -0.3304 -0.9050
vn 0.2680 -0.6617 -0.7002
vn -0.2680 -0.3304 -0.9050
vn -0.0000 -0.1876 -0.9822
vn -0.0000 0.1256 -0.9921
vn -0.3151 0.3304 -0.8897
vn -0.5831 -0.1256 -0.8026
vn -0.5773 0.1876 -0.7947
vn -0.7779 -0.3304 -0.5346
vn -0.9435 0.1256 -0.3066
vn -0.7488 0.3304 -0.5746
vn -0.9342 -0.1876 -0.3035
vn -0.9435 0.3304 0.0247
vn -0.9435 -0.3304 -0.0247
vn -0.9435 -0.1256 0.3066
vn -0.9342 0.1876 0.3035
vn -0.7488 -0.3304 0.5746
vn -0.5831 0.1256 0.8026
vn -0.7779 0.3304 0.5346
vn -0.5773 -0.1876 0.7947
vn -0.6284 -0.6617 0.4089
vn -0.1947 -0.6617 0.7240
vn -0.3151 -0.3304 0.8897
vn -0.3568 -0.7947 0.4911
vn 0.1947 -0.6617 0.7240
vn 0.3151 -0.3304 0.8897
vn -0.0000 -0.1256 0.9921
vn 0.5831 0.1256 0.8026
vn 0.2680 0.3304 0.9050
vn -0.0000 0.1876 0.9822
vn 0.5773 -0.1876 0.7947
vn 0.7779 0.3304 0.5346
vn 0.7488 -0.3304 0.5746
vn 0.9435 -0.1256 0.3066
vn 0.9342 0.1876 0.3035
vn 0.9435 -0.3304 -0.0247
vn 0.9435 0.1256 -0.3066
vn 0.9435 0.3304 0.0247
vn 0.9342 -0.1876 -0.3035
vn 0.7488 -0.6617 0.0385
vn 0.5831 -0.6617 -0.4713
vn 0.7779 -0.3304 -0.5346
vn 0.5773 -0.7947 -0.1876
vn 0.7488 0.3304 -0.5746
vn 0.5831 -0.1256 -0.8026
vn 0.5773 0.1876 -0.7947
vn 0.6284 0.6617 -0.4089
vn 0.3151 0.3304 -0.8897
vn 0.1947 0.6617 -0.7240
vn 0.3568 0.7947 -0.4911
vn 0.1947 0.9435 -0.2680
vn -0.1947 0.9435 -0.2680
vn -0.1947 0.6617 -0.7240
vn -0.3568 0.7947 -0.4911
vn -0.6284 0.6617 -0.4089
vn -0.7488 0.6617 -0.0385
vn -0.3151 0.9435 0.1024
vn -0.5773 0.7947 0.1876
vn -0.5831 0.6617 0.4713
vn -0.2680 0.6617 0.7002
vn -0.0000 0.9435 0.3313
vn -0.0000 0.7947 0.6071
vn 0.2680 0.6617 0.7002
vn 0.5831 0.6617 0.4713
vn 0.3151 0.9435 0.1024
vn 0.5773 0.7947 0.1876
vn 0.7488 0.6617 -0.0385
vn 0.6284 -0.6617 0.4089
vn -0.2680 0.3304 0.9050
vn 0.3568 -0.7947 0.4911
vn -0.7488 -0.6617 0.0385
vt 0.760597 0.046249
vt 0.800461 0.023233
vt 0.800461 0.069264
vt 0.760597 0.414494
vt 0.800461 0.391479
vt 0.800461 0.437509
vt 0.760597 0.138310
vt 0.800461 0.115295
vt 0.800461 0.161325
vt 0.760597 0.230371
vt 0.800461 0.207356
vt 0.800461 0.253387
vt 0.800461 0.345448
vt 0.760597 0.322433
vt 0.800461 0.299417
vt 0.840326 0.322433
vt 0.840326 0.276402
vt 0.840326 0.230371
vt 0.840326 0.368463
vt 0.880190 0.345448
vt 0.880190 0.299417
vt 0.920053 0.322433
vt 0.920053 0.276402
vt 0.880190 0.253387
vt 0.880190 0.207356
vt 0.920053 0.230371
vt 0.920053 0.184341
vt 0.840326 0.184341
vt 0.880190 0.161325
vt 0.840326 0.138310
vt 0.880190 0.115295
vt 0.920053 0.138310
vt 0.840326 0.092279
vt 0.840325 0.046249
vt 0.880190 0.069264
vt 0.880190 0.023233
vt 0.920053 0.046249
vt 0.920053 0.092279
vt 0.880190 0.483540
vt 0.920053 0.460525
vt 0.920053 0.506556
vt 0.840325 0.000218
vt 0.840326 0.460525
vt 0.880190 0.437509
vt 0.840326 0.414494
vt 0.880190 0.391479
vt 0.920053 0.414494
vt 0.920053 0.368463
vt 0.959918 0.391479
vt 0.959918 0.345448
vt 0.999782 0.368463
vt 0.959918 0.299417
vt 0.959918 0.253387
vt 0.999782 0.276402
vt 0.959918 0.207356
vt 0.959918 0.161325
vt 0.999782 0.184341
vt 0.959918 0.115295
vt 0.959918 0.069264
vt 0.999782 0.092279
vt 0.959918 0.483540
vt 0.959918 0.437509
vt 0.999782 0.460525
s 0
usemtl マテリアル.001
f 1/1/1 2/2/1 3/3/1
f 1/4/2 5/5/2 2/6/2
f 1/7/3 3/8/3 4/9/3
f 1/10/4 4/11/4 6/12/4
f 5/13/5 1/14/5 6/15/5
f 9/16/6 6/15/6 7/17/6
f 6/12/7 8/18/7 7/17/7
f 6/12/8 4/11/8 8/18/8
f 9/16/9 5/13/9 6/15/9
f 10/19/10 9/16/10 11/20/10
f 10/19/11 5/13/11 9/16/11
f 9/16/12 7/17/12 12/21/12
f 11/20/13 9/16/13 12/21/13
f 11/20/14 12/21/14 13/22/14
f 12/21/15 14/23/15 13/22/15
f 7/17/16 15/24/16 12/21/16
f 12/21/17 15/24/17 14/23/17
f 7/17/18 8/18/18 15/24/18
f 15/24/19 17/25/19 16/26/19
f 15/24/20 16/26/20 14/23/20
f 15/24/21 8/18/21 17/25/21
f 17/25/22 19/27/22 16/26/22
f 8/18/23 18/28/23 17/25/23
f 18/28/24 20/29/24 17/25/24
f 17/25/25 20/29/25 19/27/25
f 18/28/26 23/30/26 20/29/26
f 20/29/27 22/31/27 21/32/27
f 20/29/28 21/32/28 19/27/28
f 20/29/29 23/30/29 22/31/29
f 4/9/30 23/30/30 18/28/30
f 3/8/31 24/33/31 23/30/31
f 23/30/32 24/33/32 22/31/32
f 4/9/33 3/8/33 23/30/33
f 3/3/34 25/34/34 24/33/34
f 24/33/35 25/34/35 26/35/35
f 24/33/36 26/35/36 22/31/36
f 26/35/37 29/36/37 27/37/37
f 26/35/38 27/37/38 28/38/38
f 22/31/39 26/35/39 28/38/39
f 26/35/40 25/34/40 29/36/40
f 29/39/41 31/40/41 27/41/41
f 25/34/42 30/42/42 29/36/42
f 30/43/43 32/44/43 29/39/43
f 29/39/44 32/44/44 31/40/44
f 30/43/45 35/45/45 32/44/45
f 32/44/46 34/46/46 33/47/46
f 32/44/47 33/47/47 31/40/47
f 32/44/48 35/45/48 34/46/48
f 2/6/49 35/45/49 30/43/49
f 5/5/50 10/19/50 35/45/50
f 35/45/51 10/19/51 34/46/51
f 2/6/52 5/5/52 35/45/52
f 34/46/53 36/48/53 33/47/53
f 10/19/54 11/20/54 34/46/54
f 34/46/55 11/20/55 36/48/55
f 33/47/56 36/48/56 37/49/56
f 11/20/57 13/22/57 36/48/57
f 36/48/58 13/22/58 38/50/58
f 37/49/59 36/48/59 38/50/59
f 37/49/60 38/50/60 39/51/60
f 38/52/61 40/53/61 39/54/61
f 13/22/62 14/23/62 38/52/62
f 38/52/63 14/23/63 40/53/63
f 14/23/64 16/26/64 40/53/64
f 16/26/65 19/27/65 40/55/65
f 40/55/66 41/56/66 39/57/66
f 40/55/67 19/27/67 41/56/67
f 19/27/68 21/32/68 41/56/68
f 21/32/69 28/38/69 41/58/69
f 41/58/70 42/59/70 39/60/70
f 41/58/71 28/38/71 42/59/71
f 28/38/72 27/37/72 42/59/72
f 27/41/73 31/40/73 42/61/73
f 42/61/74 37/62/74 39/63/74
f 42/61/75 31/40/75 37/62/75
f 31/40/76 33/47/76 37/62/76
f 2/2/77 30/42/77 25/34/77
f 22/31/78 28/38/78 21/32/78
f 3/3/79 2/2/79 25/34/79
f 4/11/80 18/28/80 8/18/80
